SplineFontDB: 3.2
FontName: OverusedGrotesk-BlackItalic
FullName: Overused Grotesk Black
FamilyName: Overused Grotesk
Weight: Black
Copyright: Copyright (c) 2023, Bao Nguyen (RandomMaerks) (rmforbusiness@gmail.com)
UComments: "2023-7-28: Created with FontForge (http://fontforge.org)"
Version: 0.2
ItalicAngle: -10
UnderlinePosition: -100
UnderlineWidth: 50
Ascent: 800
Descent: 200
InvalidEm: 0
UFOAscent: 800
UFODescent: -200
LayerCount: 2
Layer: 0 0 "Back" 1
Layer: 1 0 "public.default" 0 "glyphs"
StyleMap: 0x0001
FSType: 0
OS2Version: 0
OS2_WeightWidthSlopeOnly: 0
OS2_UseTypoMetrics: 1
CreationTime: 1691315371
ModificationTime: 1693307359
PfmFamily: 17
TTFWeight: 900
TTFWidth: 5
LineGap: 90
VLineGap: 0
OS2TypoAscent: 800
OS2TypoAOffset: 0
OS2TypoDescent: -200
OS2TypoDOffset: 0
OS2TypoLinegap: 90
OS2WinAscent: 1054
OS2WinAOffset: 0
OS2WinDescent: 276
OS2WinDOffset: 0
HheadAscent: 1054
HheadAOffset: 0
HheadDescent: -276
HheadDOffset: 0
OS2Vendor: 'Rand'
Lookup: 1 0 0 "'cv01' Character Variants 01 in Latin lookup 16" { "'cv01' Character Variants 01 in Latin lookup 16-1" ("cv01") } ['cv01' ('DFLT' <'dflt' > 'latn' <'dflt' > ) ]
Lookup: 1 0 0 "'cv02' Character Variants 02 in Latin lookup 17" { "'cv02' Character Variants 02 in Latin lookup 17-1" ("cv02") } ['cv02' ('DFLT' <'dflt' > 'latn' <'dflt' > ) ]
Lookup: 1 0 0 "'cv03' Character Variants 03 in Latin lookup 18" { "'cv03' Character Variants 03 in Latin lookup 18-1"  } ['cv03' ('DFLT' <'dflt' > 'latn' <'dflt' > ) ]
Lookup: 1 0 0 "'cv04' Character Variants 04 in Latin lookup 19" { "'cv04' Character Variants 04 in Latin lookup 19-1"  } ['cv04' ('DFLT' <'dflt' > 'latn' <'dflt' > ) ]
Lookup: 1 0 0 "'cv05' Character Variants 05 in Latin lookup 20" { "'cv05' Character Variants 05 in Latin lookup 20-1" ("cv05") } ['cv05' ('DFLT' <'dflt' > 'latn' <'dflt' > ) ]
Lookup: 1 0 0 "'dnom' Denominators in Latin lookup 12" { "'dnom' Denominators in Latin lookup 12-1" ("dnom") } ['dnom' ('DFLT' <'dflt' > 'latn' <'dflt' > ) ]

StartChar: A
Encoding: 65 65 0
GlifName: A_
Width: 677
VWidth: 0
GlyphClass: 2
Flags: HW
AnchorPoint: "bottom2" 662 0 basechar 0
AnchorPoint: "bottom1" 340 0 basechar 0
AnchorPoint: "top1" 459.429 700 basechar 0
LayerCount: 2
Fore
SplineSet
217.08203125 250 m 257
 549.08203125 250 l 257
 522.985351562 102 l 257
 190.985351562 102 l 257
 217.08203125 250 l 257
662 0 m 257
 474 0 l 257
 426.052734375 454 l 257
 222 0 l 257
 15 0 l 257
 344.612304688 650 l 257
 561.612304688 650 l 257
 662 0 l 257
EndSplineSet
Substitution2: "'cv05' Character Variants 05 in Latin lookup 20-1" A.cv05
EndChar

StartChar: AE
Encoding: 198 198 1
GlifName: A_E_
Width: 962
VWidth: 0
GlyphClass: 2
Flags: HW
AnchorPoint: "top1" 539.429 700 basechar 0
LayerCount: 2
Fore
SplineSet
1031.61230469 650 m 257
 1000.2265625 472 l 257
 710.2265625 472 l 257
 700.528320312 417 l 257
 962.528320312 417 l 257
 931.142578125 239 l 257
 669.142578125 239 l 257
 658.385742188 178 l 257
 948.385742188 178 l 257
 917 0 l 257
 437 0 l 257
 454.985351562 102 l 257
 277.985351562 102 l 261
 223 0 l 261
 15 0 l 257
 387.612304688 650 l 257
 1031.61230469 650 l 257
358.08203125 250 m 261
 481.08203125 250 l 257
 521.63671875 480 l 257
 481.63671875 480 l 261
 358.08203125 250 l 261
EndSplineSet
EndChar

StartChar: B
Encoding: 66 66 12
GlifName: B_
Width: 648
VWidth: 0
GlyphClass: 2
Flags: HW
LayerCount: 2
Fore
SplineSet
470.612304688 650 m 258
 592.445414234 650 671.1875 588.590151868 671.1875 493.57421875 c 0
 671.1875 427.685734977 624.015835538 363.397629735 554.833007812 335 c 257
 612.343136282 311.341199019 646.221679688 259.515520595 646.221679688 195.198242188 c 0
 646.221679688 84.602069191 555.108210165 0 436 0 c 258
 45 0 l 257
 159.612304688 650 l 257
 470.612304688 650 l 258
438.752929688 492 m 258
 321.752929688 492 l 257
 306.764648438 407 l 257
 423.764648438 407 l 258
 451.75855913 407 469.977881651 426.774673441 469.977881651 457.158374133 c 0
 469.977881651 476.59038466 456.167834422 492 438.752929688 492 c 258
419.905273438 249 m 258
 278.905273438 249 l 257
 262.859375 158 l 257
 399.859375 158 l 258
 433.905746284 158 456.810833678 179.903196194 456.810833678 212.46034549 c 0
 456.810833678 233.359087488 441.013294082 249 419.905273438 249 c 258
EndSplineSet
Substitution2: "'cv05' Character Variants 05 in Latin lookup 20-1" B.cv05
EndChar

StartChar: C
Encoding: 67 67 13
GlifName: C_
Width: 657
VWidth: 0
GlyphClass: 2
Flags: HW
AnchorPoint: "bottom1" 330 0 basechar 0
AnchorPoint: "top1" 452 700 basechar 0
LayerCount: 2
Fore
SplineSet
87 273 m 4
 87 493 227 659 414 659 c 4
 576 659 686 571 686 390 c 261
 496 390 l 261
 496 455 466 489 409 489 c 4
 334 489 279 400 279 279 c 4
 279 204 312 162 372 162 c 4
 420 162 456 193 468 246 c 261
 665 246 l 261
 634 90 536 -8 361 -8 c 4
 194 -8 87 101 87 273 c 4
EndSplineSet
Substitution2: "'cv05' Character Variants 05 in Latin lookup 20-1" C.cv05
EndChar

StartChar: D
Encoding: 68 68 20
GlifName: D_
Width: 679
VWidth: 0
GlyphClass: 2
Flags: HW
AnchorPoint: "top1" 434.429 700 basechar 0
LayerCount: 2
Fore
SplineSet
319.989257812 482 m 261
 264.623046875 168 l 261
 376.623046875 168 l 262
 454.777177748 168 511.200888666 250.931925857 511.200888666 365.803359897 c 4
 511.200888666 440.50300857 475.769707596 482 411.989257812 482 c 262
 319.989257812 482 l 261
432.612304688 650 m 262
 601.587434572 650 706.368164062 543.310367356 706.368164062 371.256835938 c 4
 706.368164062 149.324658996 573.891711047 -2.41114840363e-14 377 0 c 262
 45 0 l 261
 159.612304688 650 l 261
 432.612304688 650 l 262
EndSplineSet
Substitution2: "'cv05' Character Variants 05 in Latin lookup 20-1" D.cv05
EndChar

StartChar: Dcroat
Encoding: 272 272 22
GlifName: D_croat
Width: 745
VWidth: 0
GlyphClass: 2
Flags: HW
LayerCount: 2
Fore
SplineSet
101.236328125 404 m 257
 493.236328125 404 l 257
 465.375976562 246 l 257
 73.3759765625 246 l 257
 101.236328125 404 l 257
389.989257812 482 m 257
 334.623046875 168 l 257
 446.623046875 168 l 258
 524.777342218 168 581.201171875 250.932073036 581.201171875 365.803710938 c 0
 581.201171875 440.503133936 545.769889664 482 481.989257812 482 c 258
 389.989257812 482 l 257
502.612304688 650 m 258
 671.587434572 650 776.368164062 543.310367356 776.368164062 371.256835938 c 0
 776.368164062 149.324658996 643.891711047 -2.411959521e-14 447 0 c 258
 115 0 l 257
 229.612304688 650 l 257
 502.612304688 650 l 258
EndSplineSet
EndChar

StartChar: E
Encoding: 69 69 23
GlifName: E_
Width: 560
VWidth: 0
GlyphClass: 2
Flags: HW
AnchorPoint: "bottom2" 511 0 basechar 0
AnchorPoint: "bottom1" 296 0 basechar 0
AnchorPoint: "top1" 421.429 700 basechar 0
LayerCount: 2
Fore
SplineSet
639.612304688 650 m 257
 608.2265625 472 l 257
 318.2265625 472 l 257
 308.528320312 417 l 257
 570.528320312 417 l 257
 539.142578125 239 l 257
 277.142578125 239 l 257
 266.385742188 178 l 257
 556.385742188 178 l 257
 525 0 l 257
 45 0 l 257
 159.612304688 650 l 257
 639.612304688 650 l 257
EndSplineSet
Substitution2: "'cv05' Character Variants 05 in Latin lookup 20-1" E.cv05
EndChar

StartChar: Eng
Encoding: 330 330 34
GlifName: E_ng
Width: 680
VWidth: 0
GlyphClass: 2
Flags: HW
LayerCount: 2
Fore
SplineSet
559.612304688 650 m 257
 749.612304688 650 l 257
 636.41015625 8 l 258
 613.407226562 -122.458007812 518.091796875 -200 380.734375 -200 c 258
 318.734375 -200 l 257
 348.357421875 -32 l 257
 379.357421875 -32 l 258
 421.19140625 -32 441.813476562 -18.072265625 447.46875 14 c 258
 450.290039062 30 l 257
 298.654296875 361 l 257
 235 0 l 257
 45 0 l 257
 159.612304688 650 l 257
 379.612304688 650 l 257
 502.834960938 328 l 261
 559.612304688 650 l 257
EndSplineSet
EndChar

StartChar: Eth
Encoding: 208 208 36
GlifName: E_th
Width: 745
VWidth: 0
GlyphClass: 2
Flags: HW
LayerCount: 2
Fore
SplineSet
101.236328125 404 m 257
 493.236328125 404 l 257
 465.375976562 246 l 257
 73.3759765625 246 l 257
 101.236328125 404 l 257
389.989257812 482 m 257
 334.623046875 168 l 257
 446.623046875 168 l 258
 524.777342218 168 581.201171875 250.932073036 581.201171875 365.803710938 c 0
 581.201171875 440.503133936 545.769889664 482 481.989257812 482 c 258
 389.989257812 482 l 257
502.612304688 650 m 258
 671.587434572 650 776.368164062 543.310367356 776.368164062 371.256835938 c 0
 776.368164062 149.324658996 643.891711047 -2.411959521e-14 447 0 c 258
 115 0 l 257
 229.612304688 650 l 257
 502.612304688 650 l 258
EndSplineSet
EndChar

StartChar: F
Encoding: 70 70 37
GlifName: F_
Width: 560
VWidth: 0
GlyphClass: 2
Flags: HW
LayerCount: 2
Fore
SplineSet
639.612304688 650 m 257
 608.2265625 472 l 257
 318.2265625 472 l 257
 303.23828125 387 l 257
 565.23828125 387 l 257
 533.852539062 209 l 257
 271.852539062 209 l 257
 235 0 l 257
 45 0 l 257
 159.612304688 650 l 257
 639.612304688 650 l 257
EndSplineSet
Substitution2: "'cv05' Character Variants 05 in Latin lookup 20-1" F.cv05
EndChar

StartChar: G
Encoding: 71 71 38
GlifName: G_
Width: 667
VWidth: 0
GlyphClass: 2
Flags: HW
HStem: -8 170<273.864 390.446> 0 21G<496.032 622> 231 151<310 427> 491 169<275.404 404.42>
VStem: 35 193<218.865 434.447>
AnchorPoint: "bottom1" 354.43 0 basechar 0
AnchorPoint: "top1" 452.858 700 basechar 0
LayerCount: 2
Fore
SplineSet
503 269 m 257x78
 695 383 l 257
 619 0 l 257
 497 0 l 257
 503 269 l 257x78
376 383 m 257
 695 383 l 257
 619 233 l 257
 350 233 l 257
 376 383 l 257
87 265 m 0
 87 493 226 659 415 659 c 0
 590 659 694 569.361445783 694 419 c 257
 500 419 l 257
 500 462.4875 468.461538462 490 418 490 c 0
 338.837209302 490 280 399 280 277 c 0
 280 204 311 162 366 162 c 0
 415 162 479 198 479 263 c 257
 558 256 l 257
 508 98 458 -6 314 -6 c 0
 180 -6 87 105 87 265 c 0
EndSplineSet
Substitution2: "'cv05' Character Variants 05 in Latin lookup 20-1" G.cv05
Substitution2: "ss04StyleSet4inLatinlookup3 subtable" G.ss04
EndChar

StartChar: G.ss04
Encoding: 65540 -1 39
GlifName: G_.ss04
Width: 667
VWidth: 0
GlyphClass: 2
Flags: HW
HStem: -8 170<280.034 407.637> 251 131<310 438> 491 169<276.333 406.714>
VStem: 35 193<221.881 432.965>
AnchorPoint: "top1" 452.858 700 basechar 0
AnchorPoint: "bottom1" 356 0 basechar 0
LayerCount: 2
Fore
SplineSet
87 265 m 0
 87 492.515453532 225.596272186 659 415 659 c 0
 589.897604049 659 694 569.44955187 694 419 c 1
 500 419 l 1
 500 462.589957126 468.343330765 490 418 490 c 0
 338.897468667 490 280 399.093037493 280 277 c 0
 280 203.726505973 312.655526413 162 370 162 c 0
 423.61110503 162 454.249485595 183.742421456 470.049804688 233 c 1
 350 233 l 1
 376 383 l 1
 695 383 l 1
 683 323 l 2
 639.307692308 104.538461538 536.400903873 -6 362 -6 c 0
 199.651787079 -6 87 105.01321563 87 265 c 0
EndSplineSet
EndChar

StartChar: H
Encoding: 72 72 44
GlifName: H_
Width: 660
VWidth: 0
GlyphClass: 2
Flags: HW
HStem: 0 21G<45 235 425 615> 247 178<235 425> 630 20G<45 235 425 615>
VStem: 45 190<0 247 425 650> 425 190<0 247 425 650>
AnchorPoint: "top1" 454.429 700 basechar 0
LayerCount: 2
Fore
SplineSet
159.612304688 650 m 261
 349.612304688 650 l 261
 309.939453125 425 l 261
 499.939453125 425 l 261
 539.612304688 650 l 261
 729.612304688 650 l 261
 615 0 l 261
 425 0 l 261
 468.552734375 247 l 261
 278.552734375 247 l 261
 235 0 l 261
 45 0 l 261
 159.612304688 650 l 261
EndSplineSet
Substitution2: "'cv05' Character Variants 05 in Latin lookup 20-1" H.cv05
EndChar

StartChar: Hbar
Encoding: 294 294 45
GlifName: H_bar
Width: 680
VWidth: 0
GlyphClass: 2
Flags: HW
LayerCount: 2
Fore
SplineSet
114.033203125 590 m 257
 774.033203125 590 l 257
 753.2265625 472 l 257
 93.2265625 472 l 257
 114.033203125 590 l 257
169.612304688 650 m 257
 359.612304688 650 l 257
 316.412109375 405 l 257
 506.412109375 405 l 257
 549.612304688 650 l 257
 739.612304688 650 l 257
 625 0 l 257
 435 0 l 257
 478.552734375 247 l 257
 288.552734375 247 l 257
 245 0 l 257
 55 0 l 257
 169.612304688 650 l 257
EndSplineSet
EndChar

StartChar: I
Encoding: 73 73 47
GlifName: I_
Width: 276
VWidth: 0
GlyphClass: 2
Flags: HW
HStem: 0 21G<43 233> 630 20G<43 233>
VStem: 43 190<0 650>
AnchorPoint: "bottom2" 233 0 basechar 0
AnchorPoint: "bottom1" 140 0 basechar 0
AnchorPoint: "top1" 264.429 700 basechar 0
LayerCount: 2
Fore
SplineSet
157.612304688 650 m 261
 347.612304688 650 l 261
 233 0 l 261
 43 0 l 261
 157.612304688 650 l 261
EndSplineSet
Substitution2: "'cv05' Character Variants 05 in Latin lookup 20-1" I.cv05
EndChar

StartChar: J
Encoding: 74 74 60
GlifName: J_
Width: 392
VWidth: 0
GlyphClass: 2
Flags: HW
AnchorPoint: "top1" 376.429 700 basechar 0
LayerCount: 2
Fore
SplineSet
45.623046875 168 m 257
 116.623046875 168 l 258
 163.208848211 168 190.446152551 189.684603734 200.0234375 244 c 258
 271.612304688 650 l 257
 461.612304688 650 l 257
 385.439453125 218 l 258
 361.082586249 79.8646108895 277.735500004 0 158 0 c 258
 26 0 l 257
 45.623046875 168 l 257
EndSplineSet
Substitution2: "'cv05' Character Variants 05 in Latin lookup 20-1" J.cv05
Substitution2: "ss06StyleSet6inLatinlookup5 subtable" J.ss06
EndChar

StartChar: J.ss06
Encoding: 65544 -1 61
GlifName: J_.ss06
Width: 599
VWidth: 0
GlyphClass: 2
Flags: HW
HStem: -8 180<247.897 342.471> 630 20G<359 559>
VStem: 359 200<188.191 650>
AnchorPoint: "top1" 577 700 basechar 0
LayerCount: 2
Fore
SplineSet
253 256 m 257
 253 198.929692559 277.055256952 173 330 173 c 0
 365.462322805 173 390.089551711 196.524517164 397 237 c 258
 469 650 l 257
 669 650 l 257
 594 220 l 258
 565.724183178 57.8853168875 468.328524773 -8 333 -8 c 0
 160.808232622 -8 74 80.4840672289 74 256 c 257
 253 256 l 257
EndSplineSet
EndChar

StartChar: K
Encoding: 75 75 63
GlifName: K_
Width: 679
VWidth: 0
GlyphClass: 2
Flags: HW
AnchorPoint: "bottom1" 341 0 basechar 0
AnchorPoint: "top1" 464.429 700 basechar 0
LayerCount: 2
Fore
SplineSet
159.612304688 650 m 257
 349.612304688 650 l 257
 235 0 l 257
 45 0 l 257
 159.612304688 650 l 257
530.612304688 650 m 261
 776.612304688 650 l 257
 482.893554688 334 l 257
 674 0 l 257
 465 0 l 257
 344.083984375 233 l 257
 250.333007812 138 l 257
 193.666015625 276 l 261
 530.612304688 650 l 261
EndSplineSet
Substitution2: "'cv05' Character Variants 05 in Latin lookup 20-1" K.cv05
EndChar

StartChar: L
Encoding: 76 76 64
GlifName: L_
Width: 500
VWidth: 0
GlyphClass: 2
Flags: HW
HStem: 0 178<235 475> 630 20G<45 235>
VStem: 45 190<178 650>
AnchorPoint: "top2" 361.347 450 basechar 0
AnchorPoint: "bottom1" 276 0 basechar 0
AnchorPoint: "top1" 266.429 700 basechar 0
LayerCount: 2
Fore
SplineSet
475 0 m 257
 45 0 l 257
 159.612304688 650 l 257
 350.612304688 650 l 261
 267.385742188 178 l 261
 506.385742188 178 l 257
 475 0 l 257
EndSplineSet
Substitution2: "'cv05' Character Variants 05 in Latin lookup 20-1" L.cv05
EndChar

StartChar: Lslash
Encoding: 321 321 69
GlifName: L_slash
Width: 530
VWidth: 0
GlyphClass: 2
Flags: HW
LayerCount: 2
Fore
SplineSet
70.70703125 401 m 257
 461.754882812 475 l 257
 435.659179688 327 l 257
 44.6103515625 253 l 257
 70.70703125 401 l 257
505 0 m 257
 75 0 l 257
 189.612304688 650 l 257
 379.612304688 650 l 257
 296.385742188 178 l 257
 536.385742188 178 l 257
 505 0 l 257
EndSplineSet
EndChar

StartChar: M
Encoding: 77 77 70
GlifName: M_
Width: 866
VWidth: 0
GlyphClass: 2
Flags: HW
LayerCount: 2
Fore
SplineSet
518 0 m 257
 348 0 l 257
 302.180664062 381 l 257
 235 0 l 257
 45 0 l 257
 159.612304688 650 l 257
 432.612304688 650 l 261
 471.197265625 262 l 261
 642.612304688 650 l 261
 935.612304688 650 l 257
 821 0 l 257
 631 0 l 257
 698.180664062 381 l 257
 518 0 l 257
EndSplineSet
Substitution2: "'cv05' Character Variants 05 in Latin lookup 20-1" M.cv05
EndChar

StartChar: N
Encoding: 78 78 71
GlifName: N_
Width: 680
VWidth: 0
GlyphClass: 2
Flags: HW
AnchorPoint: "bottom1" 345 0 basechar 0
AnchorPoint: "top1" 464.429 700 basechar 0
LayerCount: 2
Fore
SplineSet
559.612304688 650 m 257
 749.612304688 650 l 257
 635 0 l 257
 448 0 l 261
 298.654296875 361 l 257
 235 0 l 257
 45 0 l 257
 159.612304688 650 l 257
 379.612304688 650 l 257
 501.072265625 318 l 257
 559.612304688 650 l 257
EndSplineSet
Substitution2: "'cv05' Character Variants 05 in Latin lookup 20-1" N.cv05
EndChar

StartChar: O
Encoding: 79 79 75
GlifName: O_
Width: 685
VWidth: 0
GlyphClass: 2
Flags: HW
AnchorPoint: "top3" 534 650 basechar 0
AnchorPoint: "bottom1" 341 0 basechar 0
AnchorPoint: "top1" 466 700 basechar 0
LayerCount: 2
Fore
SplineSet
87 270 m 0
 87 490 226 660 427 660 c 0
 598 660 709 547 709 372 c 0
 709 152 578 -8 374 -8 c 0
 200 -8 87 101 87 270 c 0
517 366 m 0
 517 445 481 490 418 490 c 0
 341 490 280 396 280 278 c 0
 280 204 318 162 383 162 c 0
 462 162 517 246 517 366 c 0
EndSplineSet
Substitution2: "'cv05' Character Variants 05 in Latin lookup 20-1" O.cv05
EndChar

StartChar: OE
Encoding: 338 338 76
GlifName: O_E_
Width: 972
VWidth: 0
GlyphClass: 2
Flags: HW
LayerCount: 2
Fore
SplineSet
1053.61230469 650 m 257
 1022.2265625 472 l 257
 732.2265625 472 l 257
 722.528320312 417 l 257
 984.528320312 417 l 257
 953.142578125 239 l 257
 691.142578125 239 l 257
 680.385742188 178 l 257
 970.385742188 178 l 257
 939 0 l 257
 459 0 l 257
 573.612304688 650 l 257
 1053.61230469 650 l 257
87 270 m 0
 87 490 209.647058824 660 387 660 c 0
 515.553191489 660 599 550.923611111 599 382 c 0
 599 156.210526316 491.462686567 -8 324 -8 c 4
 180.31358885 -8 87 101 87 270 c 0
517 366 m 0
 517 445 481 490 418 490 c 0
 341 490 280 396 280 278 c 0
 280 204 318 162 383 162 c 0
 462 162 517 246 517 366 c 0
EndSplineSet
EndChar

StartChar: Ohorn
Encoding: 416 416 83
GlifName: O_horn
Width: 685
VWidth: 0
GlyphClass: 2
Flags: HW
AnchorPoint: "top1" 426 700 basechar 0
AnchorPoint: "bottom1" 341 0 basechar 0
LayerCount: 2
Fore
SplineSet
87 270 m 0
 87 490 226 660 427 660 c 0
 598 660 709 547 709 372 c 0
 709 152 578 -8 374 -8 c 0
 200 -8 87 101 87 270 c 0
517 366 m 0
 517 445 481 490 418 490 c 0
 341 490 280 396 280 278 c 0
 280 204 318 162 383 162 c 0
 462 162 517 246 517 366 c 0
534 650 m 257
 635 650 l 258
 663.333007812 650 686.819335938 660.31640625 694.875 706 c 258
 706.51171875 772 l 257
 846.51171875 772 l 257
 833.81640625 700 l 258
 813.913085938 587.119140625 714.114257812 552 628.719726562 552 c 258
 516.719726562 552 l 257
 534 650 l 257
EndSplineSet
EndChar

StartChar: Oslash
Encoding: 216 216 86
GlifName: O_slash
Width: 685
VWidth: 0
GlyphClass: 2
Flags: HW
LayerCount: 2
Fore
SplineSet
677.428710938 700 m 261
 759.322265625 620 l 261
 122.18359375 -50 l 261
 40.2900390625 30 l 261
 677.428710938 700 l 261
87 270 m 4
 87 490 226 660 427 660 c 4
 598 660 709 547 709 372 c 4
 709 152 578 -8 374 -8 c 4
 200 -8 87 101 87 270 c 4
517 366 m 4
 517 445 481 490 418 490 c 4
 341 490 280 396 280 278 c 4
 280 204 318 162 383 162 c 4
 462 162 517 246 517 366 c 4
EndSplineSet
EndChar

StartChar: P
Encoding: 80 80 88
GlifName: P_
Width: 626
VWidth: 0
GlyphClass: 2
Flags: HW
LayerCount: 2
Fore
SplineSet
414 489 m 258
 321 489 l 257
 299 364 l 257
 392 364 l 258
 456 364 478 409 478 441 c 0
 478 472 455 489 414 489 c 258
408 196 m 258
 270 196 l 257
 235 0 l 257
 45 0 l 257
 160 650 l 257
 440 650 l 258
 582.725581395 650 669 568.268156425 669 441 c 4
 669 327.854545455 575.718411552 196 408 196 c 258
EndSplineSet
Substitution2: "'cv05' Character Variants 05 in Latin lookup 20-1" P.cv05
EndChar

StartChar: Q
Encoding: 81 81 89
GlifName: Q_
Width: 685
VWidth: 0
GlyphClass: 2
Flags: HW
LayerCount: 2
Fore
SplineSet
689 83 m 261
 593 -17 l 261
 323 247 l 257
 419 347 l 257
 689 83 l 261
87 270 m 0
 87 490 226 660 427 660 c 0
 598 660 709 547 709 372 c 0
 709 152 578 -8 374 -8 c 0
 200 -8 87 101 87 270 c 0
517 366 m 0
 517 445 481 490 418 490 c 0
 341 490 280 396 280 278 c 0
 280 204 318 162 383 162 c 0
 462 162 517 246 517 366 c 0
EndSplineSet
Substitution2: "'cv05' Character Variants 05 in Latin lookup 20-1" Q.cv05
EndChar

StartChar: R
Encoding: 82 82 90
GlifName: R_
Width: 626
VWidth: 0
GlyphClass: 2
Flags: HW
AnchorPoint: "bottom1" 323 0 basechar 0
AnchorPoint: "top1" 434 700 basechar 0
LayerCount: 2
Fore
SplineSet
360 209 m 257
 433 309 l 257
 559.500526316 309 615 261.429022557 615 153 c 258
 615 0 l 257
 426 0 l 257
 426 136 l 258
 426 191.481379321 410.161247057 209 360 209 c 257
421 492 m 262
 322 492 l 261
 300 367 l 261
 401 367 l 262
 467.040681738 367 480.322267383 419.728237979 480.322267383 444.965452916 c 4
 480.322267383 475.18691624 459.46909168 492 421 492 c 262
438 279 m 261
 408 209 l 261
 272 209 l 261
 235 0 l 261
 45 0 l 261
 160 650 l 261
 459 650 l 262
 594.72570951 650 677.458984375 574.241311462 677.458984375 455.6484375 c 4
 677.458984375 367.533875975 590.896943475 279 438 279 c 261
EndSplineSet
Substitution2: "'cv05' Character Variants 05 in Latin lookup 20-1" R.cv05
Substitution2: "ss05StyleSet5inLatinlookup4 subtable" R.ss05
EndChar

StartChar: R.ss05
Encoding: 65547 -1 91
GlifName: R_.ss05
Width: 626
VWidth: 0
GlyphClass: 2
Flags: HW
AnchorPoint: "top1" 434.429 700 basechar 0
AnchorPoint: "bottom1" 323 0 basechar 0
LayerCount: 2
Fore
SplineSet
514 263 m 257
 614 0 l 257
 409 0 l 257
 337 263 l 257
 514 263 l 257
421 492 m 258
 322 492 l 257
 300 367 l 257
 401 367 l 258
 467.040681738 367 480.322267383 419.728237979 480.322267383 444.965452916 c 0
 480.322267383 475.18691624 459.46909168 492 421 492 c 258
418 209 m 258
 272 209 l 257
 235 0 l 257
 45 0 l 257
 160 650 l 257
 459 650 l 258
 594.72570951 650 677.458984375 574.241311462 677.458984375 455.6484375 c 0
 677.458984375 332.616956278 583.667142419 209 418 209 c 258
EndSplineSet
EndChar

StartChar: S
Encoding: 83 83 94
GlifName: S_
Width: 630
VWidth: 0
GlyphClass: 2
Flags: HW
AnchorPoint: "bottom1" 323.693 0 basechar 0
AnchorPoint: "top1" 425.123 700 basechar 0
LayerCount: 2
Fore
SplineSet
388 229 m 262
 276 249 l 262
 173.310546875 267.337890625 115 334.102539062 115 435 c 4
 115 576.715820312 213.08984375 660 380 660 c 4
 557.08984375 660 657 579.927734375 657 438 c 261
 467 438 l 261
 467 487.571289062 436.365234375 515 381 515 c 4
 339.134765625 515 311 494.099609375 311 463 c 4
 311 445.823242188 323.791992188 429.856445312 345 426 c 262
 444 408 l 262
 571.952148438 384.736328125 630 317.893554688 630 217 c 4
 630 72.3310546875 526.760742188 -10 365 -10 c 4
 183.157226562 -10 72 76.876953125 72 219 c 261
 264 219 l 261
 264 167.985351562 301.018554688 138 364 138 c 4
 403.72265625 138 435 161.788085938 435 192 c 4
 435 209.213867188 418.623046875 224.060546875 388 229 c 262
EndSplineSet
Substitution2: "'cv05' Character Variants 05 in Latin lookup 20-1" S.cv05
EndChar

StartChar: T
Encoding: 84 84 99
GlifName: T_
Width: 580
VWidth: 0
GlyphClass: 2
Flags: HW
HStem: 0 21G<195 385> 472 178<25 195 385 555>
VStem: 195 190<0 472>
AnchorPoint: "bottom1" 294 0 basechar 0
AnchorPoint: "top1" 410.429 700 basechar 0
LayerCount: 2
Fore
SplineSet
669.612304688 650 m 261
 638.2265625 472 l 261
 468.2265625 472 l 261
 385 0 l 261
 195 0 l 261
 278.2265625 472 l 261
 108.2265625 472 l 261
 139.612304688 650 l 261
 669.612304688 650 l 261
EndSplineSet
Substitution2: "'cv05' Character Variants 05 in Latin lookup 20-1" T.cv05
EndChar

StartChar: Tbar
Encoding: 358 358 100
GlifName: T_bar
Width: 580
VWidth: 0
GlyphClass: 2
Flags: HW
LayerCount: 2
Fore
SplineSet
148.477539062 360 m 257
 570.477539062 360 l 257
 540.854492188 192 l 257
 118.854492188 192 l 257
 148.477539062 360 l 257
669.612304688 650 m 257
 638.2265625 472 l 257
 468.2265625 472 l 257
 385 0 l 257
 195 0 l 257
 278.2265625 472 l 257
 108.2265625 472 l 257
 139.612304688 650 l 257
 669.612304688 650 l 257
EndSplineSet
EndChar

StartChar: Thorn
Encoding: 222 222 102
GlifName: T_horn
Width: 626
VWidth: 0
GlyphClass: 2
Flags: HW
LayerCount: 2
Fore
SplineSet
157.612304688 650 m 257
 347.612304688 650 l 257
 331.743164062 560 l 257
 433.743164062 560 l 258
 569.506486855 560 654.481445312 479.414088597 654.481445312 350.663085938 c 0
 654.481445312 215.020406936 547.383341392 106 391.690429688 106 c 258
 253.690429688 106 l 257
 235 0 l 257
 43 0 l 257
 157.612304688 650 l 257
305.354492188 399 m 257
 283.313476562 274 l 257
 376.313476562 274 l 258
 426.973682398 274 461.791968063 305.324662937 461.791968063 350.901687821 c 0
 461.791968063 381.771026204 439.068455323 399 398.354492188 399 c 258
 305.354492188 399 l 257
EndSplineSet
EndChar

StartChar: U
Encoding: 85 85 103
GlifName: U_
Width: 639
VWidth: 0
GlyphClass: 2
Flags: HW
AnchorPoint: "top3" 524 650 basechar 0
AnchorPoint: "bottom2" 394 0 basechar 0
AnchorPoint: "bottom1" 324 0 basechar 0
AnchorPoint: "top1" 436 700 basechar 0
LayerCount: 2
Fore
SplineSet
154 650 m 257
 344 650 l 257
 277 265 l 258
 267 208 299 168 365 168 c 0
 411 168 446 200 454 249 c 258
 524 650 l 257
 715 650 l 257
 642 233 l 258
 616 86 504 -8 357 -8 c 0
 172 -8 59 114 89 282 c 258
 154 650 l 257
EndSplineSet
Substitution2: "'cv05' Character Variants 05 in Latin lookup 20-1" U.cv05
EndChar

StartChar: V
Encoding: 86 86 116
GlifName: V_
Width: 677
VWidth: 0
GlyphClass: 2
Flags: HW
LayerCount: 2
Fore
SplineSet
129.612304688 650 m 257
 316.612304688 650 l 257
 367.560546875 216 l 261
 568.612304688 650 l 257
 776.612304688 650 l 257
 447 0 l 257
 230 0 l 257
 129.612304688 650 l 257
EndSplineSet
Substitution2: "'cv05' Character Variants 05 in Latin lookup 20-1" V.cv05
EndChar

StartChar: W
Encoding: 87 87 117
GlifName: W_
Width: 1045
VWidth: 0
GlyphClass: 2
Flags: HW
AnchorPoint: "top1" 638.429 700 basechar 0
LayerCount: 2
Fore
SplineSet
129.612304688 650 m 257
 316.612304688 650 l 257
 329.44140625 211 l 257
 507.612304688 650 l 257
 744.612304688 650 l 257
 768.44140625 211 l 257
 937.612304688 650 l 257
 1144.61230469 650 l 257
 855 0 l 257
 617 0 l 257
 595.11328125 433 l 257
 431 0 l 257
 183 0 l 257
 129.612304688 650 l 257
EndSplineSet
Substitution2: "'cv05' Character Variants 05 in Latin lookup 20-1" W.cv05
EndChar

StartChar: X
Encoding: 88 88 119
GlifName: X_
Width: 657
VWidth: 0
GlyphClass: 2
Flags: HW
LayerCount: 2
Fore
SplineSet
129.612304688 650 m 257
 316.612304688 650 l 257
 396.87890625 436 l 257
 548.612304688 650 l 257
 756.612304688 650 l 257
 522.306640625 325 l 257
 642 0 l 257
 455 0 l 257
 374.734375 214 l 261
 223 0 l 257
 15 0 l 257
 249.306640625 325 l 257
 129.612304688 650 l 257
EndSplineSet
Substitution2: "'cv05' Character Variants 05 in Latin lookup 20-1" X.cv05
EndChar

StartChar: Y
Encoding: 89 89 120
GlifName: Y_
Width: 657
VWidth: 0
GlyphClass: 2
Flags: HW
AnchorPoint: "bottom1" 331 0 basechar 0
AnchorPoint: "top1" 450.429 700 basechar 0
LayerCount: 2
Fore
SplineSet
270.262695312 217 m 257
 129.612304688 650 l 257
 326.612304688 650 l 257
 392.470703125 411 l 257
 538.612304688 650 l 257
 756.612304688 650 l 257
 460.086914062 216 l 257
 422 0 l 257
 232 0 l 257
 270.262695312 217 l 257
EndSplineSet
Substitution2: "'cv05' Character Variants 05 in Latin lookup 20-1" Y.cv05
EndChar

StartChar: Z
Encoding: 90 90 126
GlifName: Z_
Width: 562
VWidth: 0
GlyphClass: 2
Flags: HW
AnchorPoint: "top1" 405.429 700 basechar 0
LayerCount: 2
Fore
SplineSet
159.612304688 650 m 257
 621.612304688 650 l 257
 598.462890625 462 l 257
 279.859375 158 l 257
 544.859375 158 l 257
 517 0 l 257
 55 0 l 257
 78.1494140625 188 l 257
 395.752929688 492 l 257
 131.752929688 492 l 257
 159.612304688 650 l 257
EndSplineSet
Substitution2: "'cv05' Character Variants 05 in Latin lookup 20-1" Z.cv05
EndChar

StartChar: a
Encoding: 97 97 131
GlifName: a
Width: 576
VWidth: 0
GlyphClass: 2
Flags: HW
HStem: -14 146<152 286.219> 0 21G<359 558> 384 133<241.722 333.023>
VStem: 343 190<7.92595 211 315 373.991>
AnchorPoint: "bottom1" 309 0 basechar 0
AnchorPoint: "bottom2" 558 0 basechar 0
AnchorPoint: "top1" 389 559 basechar 0
LayerCount: 2
Fore
SplineSet
563 148 m 258x70
 550.141601562 74.5224609375 548.650390625 30.38671875 558 0 c 257
 368 0 l 257
 360.002929688 29.501953125 359.630859375 72.751953125 367 116 c 258
 405 339 l 258
 409.52734375 365.569335938 385.028320312 385 347 385 c 0
 318.8671875 385 301.696289062 371.068808066 294 342 c 257
 102 342 l 257
 127.637695312 447.130853597 227.051757812 517 351 517 c 0
 513.485351562 517 610.546875 425.671875 588 294 c 258
 563 148 l 258x70
402 167 m 257
 382.1328125 53.7568359375 314.634765625 -13 220 -13 c 0
 127.705078125 -13 62 51.0419921875 62 141 c 0
 62 251.815429688 130.288085938 305.877929688 251 309 c 258
 367 312 l 258
 392.698242188 312.665039062 402.1875 322.938476562 405 337 c 257
 400 206 l 257
 306 203 l 258
 276.837890625 202.069335938 258 190.043945312 258 165 c 0
 258 140.696289062 277.48828125 127 307 127 c 0
 339.62890625 127 372.299804688 147 379 185 c 257
 402 167 l 257
EndSplineSet
Substitution2: "'cv05' Character Variants 05 in Latin lookup 20-1" a.cv05
Substitution2: "ss01StyleSet1inLatinlookup0 subtable" a.ss01
EndChar

StartChar: a.ss01
Encoding: 65551 -1 132
GlifName: a.ss01
Width: 608
VWidth: 0
GlyphClass: 2
Flags: HW
AnchorPoint: "bottom2" 566.742 0 basechar 0
AnchorPoint: "top1" 408.485 560 basechar 0
AnchorPoint: "bottom1" 327.742 0 basechar 0
LayerCount: 2
Fore
SplineSet
655.263671875 500 m 257
 464.263671875 500 l 257
 376 0 l 257
 567 0 l 257
 655.263671875 500 l 257
466 313 m 0
 466 446.478515625 407.385742188 526 309 526 c 0
 177.083984375 526 72 384.114257812 72 206 c 0
 72 72.1259765625 132.908203125 -11 231 -11 c 0
 360.915039062 -11 466 133.8828125 466 313 c 0
266 228 m 0
 266 303.915039062 305.939453125 360 360 360 c 0
 399.03515625 360 420 329.950195312 420 274 c 0
 420 197.676757812 380.772460938 142 327 142 c 0
 287.493164062 142 266 172.30078125 266 228 c 0
EndSplineSet
EndChar

StartChar: acutecomb
Encoding: 769 769 139
GlifName: acutecomb
Width: 300
VWidth: 0
GlyphClass: 4
Flags: HW
AnchorPoint: "top1" 244.163 500 mark 0
LayerCount: 2
Fore
SplineSet
492.428710938 700 m 257
 307.163085938 500 l 261
 147.163085938 500 l 257
 272.428710938 700 l 257
 492.428710938 700 l 257
EndSplineSet
EndChar

StartChar: adieresis.ss01.ss03
Encoding: 65556 -1 142
GlifName: adieresis.ss01.ss03
Width: 608
VWidth: 0
GlyphClass: 2
Flags: HW
LayerCount: 2
Fore
SplineSet
167 651 m 260
 167 711 215 759 275 759 c 260
 335 759 383 711 383 651 c 260
 383 591 335 543 275 543 c 260
 215 543 167 591 167 651 c 260
457 651 m 260
 457 711 505 759 565 759 c 260
 625 759 673 711 673 651 c 260
 673 591 625 543 565 543 c 260
 505 543 457 591 457 651 c 260
EndSplineSet
Refer: 132 -1 N 1 0 0 1 0 0 2
EndChar

StartChar: ae
Encoding: 230 230 144
GlifName: ae
Width: 911
VWidth: 0
GlyphClass: 2
Flags: HW
AnchorPoint: "top1" 546.743 560 basechar 0
LayerCount: 2
Fore
SplineSet
442 227 m 0
 442 392.99456789 547.540069563 511 696 511 c 0
 855.110156266 511 948.242842457 403.49523088 922 240 c 258
 916 207 l 257
 571 207 l 257
 592 322 l 257
 735 322 l 257
 735 357.620379606 709.919390938 380 670 380 c 0
 613.006023939 380 584 325.360745604 584 218 c 0
 584 161.140301982 605.101207624 135 651 135 c 0
 682 135 703 147 714 171 c 257
 915 171 l 257
 880.308100237 51.6623719062 797.402858631 -9 669 -9 c 0
 524.864443887 -9 442 77.1498183138 442 227 c 0
533 148 m 257x70
 367 116 l 257
 405 339 l 258
 409.52734375 365.569335938 385.028320312 385 347 385 c 0
 318.8671875 385 301.696289062 371.068808066 294 342 c 257
 102 342 l 257
 126.608068994 447.130853597 222.029598864 517 341 517 c 0
 489.773507548 517 578.644185127 425.671875 558 294 c 258
 533 148 l 257x70
482 167 m 257
 457.766397665 53.7568359375 375.433615213 -13 260 -13 c 0
 144.339275119 -13 62 51.0419921875 62 141 c 0
 62 251.815429688 130.288085938 305.877929688 251 309 c 258
 367 312 l 258
 392.698242188 312.665039062 402.1875 322.938476562 405 337 c 257
 400 206 l 257
 306 203 l 258
 276.837890625 202.069335938 258 190.043945312 258 165 c 0
 258 140.696289062 277.48828125 127 307 127 c 0
 339.62890625 127 372.299804688 147 379 185 c 257
 482 167 l 257
EndSplineSet
EndChar

StartChar: ampersand
Encoding: 38 38 149
GlifName: ampersand
Width: 711
VWidth: 0
GlyphClass: 2
Flags: HW
LayerCount: 2
Fore
SplineSet
417.0234375 658 m 256
 539.913085938 658 629.424804688 589.826171875 629.424804688 499.916015625 c 0
 629.424804688 392.806640625 549.726779108 330.981880121 389.83984375 294 c 256
 299.989542614 273.760952846 263.137886234 244.416202786 263.137886234 193.108001087 c 0
 263.137886234 157.05826149 293.531771723 137 348.157226562 137 c 256
 437.098921724 137 524.655273438 197.927734375 546.072265625 318 c 257
 718.072265625 318 l 257
 683.579101562 118.037109375 525.626953125 -8 335.58984375 -8 c 256
 183.350585938 -8 65.4709995717 57.0842283138 65.4709995717 158.313802487 c 0
 65.4709995717 267.772733792 136.344446561 328.760730849 330.0625 386 c 256
 424.186827809 413.812523202 464.091796875 441.061523438 464.091796875 484.596679688 c 0
 464.091796875 507.264648438 446.028320312 523 419.21875 523 c 256
 385.6796875 523 362.766601562 503.80078125 362.766601562 475.068359375 c 0
 362.766601562 438.225585938 406.202371517 401.929677976 437.477539062 360 c 258
 706 0 l 257
 507 0 l 257
 235.482421875 326 l 258
 191.693846075 378.575143787 177.517578125 422.375 177.517578125 462.997070312 c 0
 177.517578125 579.79296875 274.873046875 658 417.0234375 658 c 256
EndSplineSet
Substitution2: "'cv05' Character Variants 05 in Latin lookup 20-1" ampersand.cv05
EndChar

StartChar: asciicircum
Encoding: 94 94 154
GlifName: asciicircum
Width: 470
VWidth: 0
GlyphClass: 2
Flags: HW
LayerCount: 2
Fore
SplineSet
271.955078125 720 m 257
 451.955078125 720 l 257
 523.163085938 500 l 257
 380.163085938 500 l 261
 354.143554688 636 l 261
 280.163085938 500 l 261
 123.163085938 500 l 257
 271.955078125 720 l 257
EndSplineSet
Substitution2: "'cv05' Character Variants 05 in Latin lookup 20-1" asciicircum.cv05
EndChar

StartChar: asciitilde
Encoding: 126 126 155
GlifName: asciitilde
Width: 507
VWidth: 0
GlyphClass: 2
Flags: HW
LayerCount: 2
Fore
SplineSet
238.044921875 505 m 256
 293.044921875 505 319.6953125 486 345.874023438 470 c 256
 363.110351562 460 378.5234375 451 401.5234375 451 c 256
 437.5234375 451 461.697265625 469 466.987304688 499 c 257
 569.987304688 499 l 257
 548.828125 379 483.837890625 311 389.837890625 311 c 256
 345.837890625 311 321.482421875 326 300.951171875 340 c 256
 282.243164062 353 266.359375 365 242.359375 365 c 256
 213.359375 365 190.833007812 345 185.54296875 315 c 257
 80.54296875 315 l 257
 102.583984375 440 157.044921875 505 238.044921875 505 c 256
EndSplineSet
Substitution2: "'cv05' Character Variants 05 in Latin lookup 20-1" asciitilde.cv05
EndChar

StartChar: asterisk
Encoding: 42 42 156
GlifName: asterisk
Width: 566
VWidth: 0
GlyphClass: 2
Flags: HW
LayerCount: 2
Fore
SplineSet
342.53125 707.565429688 m 257
 470.556640625 684.991210938 l 257
 423.021484375 507.549804688 l 257
 601.95703125 549.109375 l 257
 619.81640625 420.046875 l 257
 436.416992188 410.752929688 l 257
 531.615234375 253.837890625 l 257
 414.028320312 197.399414062 l 257
 348.71875 368.336914062 l 257
 228.883789062 230.044921875 l 257
 137.692382812 323.296875 l 257
 280.817382812 438.189453125 l 257
 111.65625 509.649414062 l 257
 172.581054688 624.819335938 l 257
 326.510742188 524.56640625 l 257
 342.53125 707.565429688 l 257
EndSplineSet
Substitution2: "'cv05' Character Variants 05 in Latin lookup 20-1" asterisk.cv05
Substitution2: "ss09StyleSet9inLatinlookup8 subtable" asterisk.ss09
EndChar

StartChar: asterisk.ss09
Encoding: 65562 -1 157
GlifName: asterisk.ss09
Width: 698
VWidth: 0
GlyphClass: 2
Flags: HW
LayerCount: 2
Fore
SplineSet
376.7265625 659.822265625 m 261
 544.14453125 630.302734375 l 261
 501.766601562 441.796875 l 261
 680.349609375 515.913085938 l 261
 738.532226562 356.385742188 l 261
 554.67578125 298.431640625 l 261
 707.623046875 181.08984375 l 261
 598.387695312 51.0830078125 l 261
 455.923828125 181.80859375 l 261
 431.2734375 -9.822265625 l 261
 263.85546875 19.697265625 l 261
 306.233398438 208.203125 l 261
 127.650390625 134.086914062 l 261
 69.4677734375 293.614257812 l 261
 253.32421875 351.568359375 l 261
 100.376953125 468.91015625 l 261
 209.612304688 598.916992188 l 261
 352.076171875 468.19140625 l 261
 376.7265625 659.822265625 l 261
EndSplineSet
EndChar

StartChar: at
Encoding: 64 64 158
GlifName: at
Width: 946
VWidth: 0
GlyphClass: 2
Flags: HW
LayerCount: 2
Fore
SplineSet
470.173828125 243.259765625 m 0
 470.173828125 293.516452941 493.750982652 332 524.541015625 332 c 256
 549.021122781 332 562.720703125 314.331339787 562.720703125 282.758789062 c 0
 562.720703125 233.033112641 538.74743448 194 508.20703125 194 c 256
 483.655310891 194 470.173828125 211.46091906 470.173828125 243.259765625 c 0
602.88922474 321.437828123 m 0
 602.88922474 408.899933109 557.396160692 462 482.462890625 462 c 256
 384.234494938 462 304.373046875 352.649584685 304.373046875 218.149414062 c 0
 304.373046875 122.321524242 352.767841193 64 432.28515625 64 c 256
 525.126915805 64 602.88922474 181.341632585 602.88922474 321.437828123 c 0
752.936523438 442 m 257
 592.936523438 442 l 257
 550.44140625 201 l 258
 532.703124775 106.038630819 594.279151378 56 728.874023438 56 c 256
 877.400915246 56 967.3984375 167.539166819 967.3984375 351.6171875 c 0
 967.3984375 560.102066351 808.153068937 690 584.666015625 690 c 256
 286.46875 690 73.005859375 474.596679688 73.005859375 186.694335938 c 0
 73.005859375 -19.19140625 236.999023438 -158 483.140625 -158 c 256
 554.099609375 -158 630.928710938 -146.6953125 694.135742188 -124 c 257
 700.584960938 26 l 257
 642.74009578 3.62676414675 571.271362387 -8 491.58984375 -8 c 256
 328.722406951 -8 237.809328874 65.6598550462 237.809328874 197.618777129 c 0
 237.809328874 398.212549056 378.779405345 540 578.216796875 540 c 256
 720.42272254 540 800.047225807 465.916748267 800.047225807 333.607258641 c 0
 800.047225807 246.173529897 778.673360104 194 742.854492188 194 c 260
 720.520270145 194 711.214563009 206.694413192 715.731445312 231 c 258
 752.936523438 442 l 257
EndSplineSet
Substitution2: "'cv05' Character Variants 05 in Latin lookup 20-1" at.cv05
EndChar

StartChar: b
Encoding: 98 98 161
GlifName: b
Width: 608
VWidth: 0
GlyphClass: 2
Flags: HW
LayerCount: 2
Fore
SplineSet
167 700 m 261
 358 700 l 261
 235 0 l 261
 44 0 l 261
 167 700 l 261
231 183 m 4
 231 367 331 514 455 514 c 4
 556 514 625 425 625 294 c 4
 625 117 526 -16 393 -16 c 4
 291 -16 231 58 231 183 c 4
432 281 m 4
 432 331 408 360 367 360 c 4
 316 360 278 301 278 222 c 4
 278 172 302 143 343 143 c 4
 393 143 432 203 432 281 c 4
EndSplineSet
Substitution2: "'cv05' Character Variants 05 in Latin lookup 20-1" b.cv05
EndChar

StartChar: backslash
Encoding: 92 92 162
GlifName: backslash
Width: 500
VWidth: 0
GlyphClass: 2
Flags: HW
LayerCount: 2
Fore
SplineSet
347.612304688 650 m 257
 467 0 l 257
 267 0 l 261
 147.612304688 650 l 257
 347.612304688 650 l 257
EndSplineSet
Substitution2: "'cv05' Character Variants 05 in Latin lookup 20-1" backslash.cv05
EndChar

StartChar: bar
Encoding: 124 124 163
GlifName: bar
Width: 276
VWidth: 0
GlyphClass: 2
Flags: HW
LayerCount: 2
Fore
SplineSet
184.061523438 800 m 261
 374.061523438 800 l 261
 197.734375 -200 l 261
 7.734375 -200 l 261
 184.061523438 800 l 261
EndSplineSet
Substitution2: "'cv05' Character Variants 05 in Latin lookup 20-1" bar.cv05
EndChar

StartChar: braceleft
Encoding: 123 123 164
GlifName: braceleft
Width: 360
VWidth: 0
GlyphClass: 2
Flags: HW
LayerCount: 2
Fore
SplineSet
427.04296875 522 m 257
 397.04296875 522 l 258
 369.04296875 522 355.103515625 511 350.6953125 486 c 258
 332.356445312 382 l 258
 323.1875 330 285.83984375 294 228.37109375 280 c 257
 280.903320312 266 305.555664062 230 296.385742188 178 c 258
 278.047851562 74 l 258
 273.639648438 49 283.700195312 38 311.700195312 38 c 258
 341.700195312 38 l 257
 312.077148438 -130 l 257
 251.077148438 -130 l 258
 132.077148438 -130 74.419921875 -60 95.2265625 58 c 258
 113.565429688 162 l 258
 117.973632812 187 107.913085938 198 79.9130859375 198 c 258
 59.9130859375 198 l 257
 88.830078125 362 l 257
 108.830078125 362 l 258
 136.830078125 362 150.76953125 373 155.177734375 398 c 258
 173.516601562 502 l 258
 194.322265625 620 276.666015625 690 395.666015625 690 c 258
 456.666015625 690 l 257
 427.04296875 522 l 257
EndSplineSet
Substitution2: "'cv05' Character Variants 05 in Latin lookup 20-1" braceleft.cv05
EndChar

StartChar: braceright
Encoding: 125 125 165
GlifName: braceright
Width: 360
VWidth: 0
GlyphClass: 2
Flags: HW
LayerCount: 2
Fore
SplineSet
31.7001953125 38 m 257
 61.7001953125 38 l 258
 89.7001953125 38 103.639648438 49 108.047851562 74 c 258
 126.385742188 178 l 258
 135.555664062 230 172.903320312 266 230.37109375 280 c 257
 177.83984375 294 153.1875 330 162.356445312 382 c 258
 180.6953125 486 l 258
 185.103515625 511 175.04296875 522 147.04296875 522 c 258
 117.04296875 522 l 257
 146.666015625 690 l 257
 207.666015625 690 l 258
 326.666015625 690 384.322265625 620 363.516601562 502 c 258
 345.177734375 398 l 258
 340.76953125 373 350.830078125 362 378.830078125 362 c 258
 398.830078125 362 l 257
 369.913085938 198 l 257
 349.913085938 198 l 258
 321.913085938 198 307.973632812 187 303.565429688 162 c 258
 285.2265625 58 l 258
 264.419921875 -60 182.077148438 -130 63.0771484375 -130 c 258
 2.0771484375 -130 l 257
 31.7001953125 38 l 257
EndSplineSet
Substitution2: "'cv05' Character Variants 05 in Latin lookup 20-1" braceright.cv05
EndChar

StartChar: bracketleft
Encoding: 91 91 166
GlifName: bracketleft
Width: 360
VWidth: 0
GlyphClass: 2
Flags: HW
LayerCount: 2
Fore
SplineSet
315.279296875 512 m 257
 425.279296875 512 l 257
 456.666015625 690 l 257
 156.666015625 690 l 257
 12.0771484375 -130 l 257
 312.077148438 -130 l 257
 343.463867188 48 l 257
 233.463867188 48 l 257
 315.279296875 512 l 257
EndSplineSet
Substitution2: "'cv05' Character Variants 05 in Latin lookup 20-1" bracketleft.cv05
EndChar

StartChar: bracketright
Encoding: 93 93 167
GlifName: bracketright
Width: 360
VWidth: 0
GlyphClass: 2
Flags: HW
LayerCount: 2
Fore
SplineSet
143.463867188 48 m 257
 33.4638671875 48 l 257
 2.0771484375 -130 l 257
 302.077148438 -130 l 257
 446.666015625 690 l 257
 146.666015625 690 l 257
 115.279296875 512 l 257
 225.279296875 512 l 257
 143.463867188 48 l 257
EndSplineSet
Substitution2: "'cv05' Character Variants 05 in Latin lookup 20-1" bracketright.cv05
EndChar

StartChar: bullet
Encoding: 8226 8226 168
GlifName: bullet
Width: 336
VWidth: 0
GlyphClass: 2
Flags: HW
LayerCount: 2
Fore
SplineSet
30 324 m 256
 30 400.666666667 91.3333333333 462 168 462 c 256
 244.666666667 462 306 400.666666667 306 324 c 256
 306 247.333333333 244.666666667 186 168 186 c 256
 91.3333333333 186 30 247.333333333 30 324 c 256
EndSplineSet
EndChar

StartChar: c
Encoding: 99 99 169
GlifName: c
Width: 593
VWidth: 0
GlyphClass: 2
Flags: HW
AnchorPoint: "bottom1" 305 0 basechar 0
AnchorPoint: "top1" 395 559 basechar 0
LayerCount: 2
Fore
SplineSet
74 216 m 4
 74 401.192350416 195.180880859 520 360 520 c 4
 525.9876322 520 610 434 610 292 c 261
 416 292 l 261
 416 336.581192639 394.647557994 360 354 360 c 4
 303.779153443 360 266 300.326109902 266 221 c 4
 266 169.042848483 289.962017643 142 336 142 c 4
 378.741228084 142 402.530133441 162.345774318 412 207 c 261
 597 207 l 261
 573.168330792 63.8639236787 474.904916872 -19 329 -19 c 4
 173.914883413 -19 74 73.0784219689 74 216 c 4
EndSplineSet
Substitution2: "'cv05' Character Variants 05 in Latin lookup 20-1" c.cv05
EndChar

StartChar: colon
Encoding: 58 58 176
GlifName: colon
Width: 276
VWidth: 0
GlyphClass: 2
Flags: HW
LayerCount: 2
Fore
SplineSet
123.987304688 499 m 257
 327.987304688 499 l 257
 293.250976562 302 l 257
 89.2509765625 302 l 257
 123.987304688 499 l 257
70.736328125 197 m 257
 274.736328125 197 l 257
 240 0 l 257
 36 0 l 257
 70.736328125 197 l 257
EndSplineSet
Substitution2: "'cv05' Character Variants 05 in Latin lookup 20-1" colon.cv05
Substitution2: "'tnum' Tabular Numbers in Latin lookup 11-1" colon.tabl
Substitution2: "ss03StyleSet3inLatinlookup2 subtable" colon.ss03
EndChar

StartChar: colon.ss03
Encoding: 65565 -1 177
GlifName: colon.ss03
Width: 276
VWidth: 0
GlyphClass: 2
Flags: HW
LayerCount: 2
Fore
SplineSet
100 404 m 260
 100 464 148 512 208 512 c 260
 268 512 316 464 316 404 c 260
 316 344 268 296 208 296 c 260
 148 296 100 344 100 404 c 260
43 97 m 256
 43 157 91 205 151 205 c 256
 211 205 259 157 259 97 c 256
 259 37 211 -11 151 -11 c 256
 91 -11 43 37 43 97 c 256
EndSplineSet
Substitution2: "'tnum' Tabular Numbers in Latin lookup 11-1" colon.ss03.tabl
EndChar

StartChar: comma
Encoding: 44 44 178
GlifName: comma
Width: 276
VWidth: 0
GlyphClass: 2
Flags: HW
LayerCount: 2
Fore
SplineSet
70.736328125 197 m 257
 274.736328125 197 l 257
 240 0 l 257
 129.379882812 -185 l 257
 -1.6201171875 -185 l 257
 156 0 l 257
 36 0 l 257
 70.736328125 197 l 257
EndSplineSet
Substitution2: "'cv05' Character Variants 05 in Latin lookup 20-1" comma.cv05
Substitution2: "ss03StyleSet3inLatinlookup2 subtable" comma.ss03
EndChar

StartChar: comma.ss03
Encoding: 65566 -1 179
GlifName: comma.ss03
Width: 276
VWidth: 0
GlyphClass: 2
Flags: HW
LayerCount: 2
Fore
SplineSet
34 97 m 260
 34 157 82 205 142 205 c 260
 202 205 250 157 250 97 c 262
 250 -25 l 262
 250 -112 195 -163 101 -163 c 262
 49 -163 l 261
 49 -75 l 261
 70 -75 l 262
 132 -75 160 -58 160 -19 c 262
 160 -10 l 261
 154 -11 148 -11 142 -11 c 260
 82 -11 34 37 34 97 c 260
EndSplineSet
EndChar

StartChar: d
Encoding: 100 100 180
GlifName: d
Width: 608
VWidth: 0
GlyphClass: 2
Flags: HW
AnchorPoint: "top2" 696 500 basechar 0
LayerCount: 2
Fore
SplineSet
690 700 m 261
 499 700 l 261
 376 0 l 261
 567 0 l 261
 690 700 l 261
466 313 m 4
 466 446.478515625 407.385742188 526 309 526 c 4
 177.083984375 526 72 384.114257812 72 206 c 4
 72 72.1259765625 132.908203125 -11 231 -11 c 4
 360.915039062 -11 466 133.8828125 466 313 c 4
266 228 m 4
 266 303.915039062 305.939453125 360 360 360 c 4
 399.03515625 360 420 329.950195312 420 274 c 4
 420 197.676757812 380.772460938 142 327 142 c 4
 287.493164062 142 266 172.30078125 266 228 c 4
EndSplineSet
Substitution2: "'cv05' Character Variants 05 in Latin lookup 20-1" d.cv05
EndChar

StartChar: dagger
Encoding: 8224 8224 181
GlifName: dagger
Width: 418
VWidth: 0
GlyphClass: 2
Flags: HW
LayerCount: 2
Fore
SplineSet
176.067382812 352 m 257
 85.0673828125 352 l 257
 111.163085938 500 l 257
 202.163085938 500 l 257
 225.0859375 630 l 257
 415.0859375 630 l 257
 392.163085938 500 l 257
 483.163085938 500 l 257
 457.067382812 352 l 257
 366.067382812 352 l 257
 304 0 l 257
 114 0 l 257
 176.067382812 352 l 257
EndSplineSet
EndChar

StartChar: daggerdbl
Encoding: 8225 8225 182
GlifName: daggerdbl
Width: 418
VWidth: 0
GlyphClass: 2
Flags: HW
LayerCount: 2
Fore
SplineSet
392.163085938 500 m 257
 483.163085938 500 l 257
 457.067382812 352 l 257
 366.067382812 352 l 257
 353.018554688 278 l 257
 444.018554688 278 l 257
 417.922851562 130 l 257
 326.922851562 130 l 257
 304 0 l 257
 114 0 l 257
 136.922851562 130 l 257
 45.9228515625 130 l 257
 72.0185546875 278 l 257
 163.018554688 278 l 257
 176.067382812 352 l 257
 85.0673828125 352 l 257
 111.163085938 500 l 257
 202.163085938 500 l 257
 225.0859375 630 l 257
 415.0859375 630 l 257
 392.163085938 500 l 257
EndSplineSet
EndChar

StartChar: dcroat
Encoding: 273 273 184
GlifName: dcroat
Width: 650
VWidth: 0
GlyphClass: 2
Flags: HW
LayerCount: 2
Fore
SplineSet
364.612304688 650 m 257
 344.158203125 534 l 257
 736.158203125 534 l 257
 756.612304688 650 l 257
 364.612304688 650 l 257
690 700 m 257
 499 700 l 257
 376 0 l 257
 567 0 l 257
 690 700 l 257
464 303 m 0
 464 430.211918647 405.75908141 506 308 506 c 4
 176.640592036 506 72 368.548187255 72 196 c 0
 72 68.2952863983 132.908203125 -11 231 -11 c 0
 359.809379155 -11 464 129.411120756 464 303 c 0
266 218 m 0
 266 288.163899739 305.514565326 340 359 340 c 4
 397.384570312 340 418 313.444358648 418 264 c 0
 418 193.458821614 379.616063929 142 327 142 c 0
 287.493164062 142 266 168.777434593 266 218 c 0
EndSplineSet
EndChar

StartChar: divide
Encoding: 247 247 185
GlifName: divide
Width: 512
VWidth: 0
GlyphClass: 2
Flags: HW
LayerCount: 2
Fore
SplineSet
273.861328125 555 m 257
 437.861328125 555 l 257
 408.415039062 388 l 257
 244.415039062 388 l 257
 273.861328125 555 l 257
204.741210938 163 m 257
 368.741210938 163 l 257
 339.294921875 -4 l 257
 175.294921875 -4 l 257
 204.741210938 163 l 257
86.71484375 350 m 257
 548.71484375 350 l 257
 522.618164062 202 l 257
 60.6181640625 202 l 257
 86.71484375 350 l 257
EndSplineSet
Substitution2: "'tnum' Tabular Numbers in Latin lookup 11-1" divide.tabl
Substitution2: "ss03StyleSet3inLatinlookup2 subtable" divide.ss03
EndChar

StartChar: divide.ss03
Encoding: 65567 -1 186
GlifName: divide.ss03
Width: 512
VWidth: 0
GlyphClass: 2
Flags: HW
LayerCount: 2
Fore
SplineSet
227 479 m 256
 227 539 275 587 335 587 c 256
 395 587 443 539 443 479 c 256
 443 419 395 371 335 371 c 256
 275 371 227 419 227 479 c 256
170 72 m 256
 170 132 218 180 278 180 c 256
 338 180 386 132 386 72 c 256
 386 12 338 -36 278 -36 c 256
 218 -36 170 12 170 72 c 256
86.71484375 350 m 257
 548.71484375 350 l 257
 522.618164062 202 l 257
 60.6181640625 202 l 257
 86.71484375 350 l 257
EndSplineSet
Substitution2: "'tnum' Tabular Numbers in Latin lookup 11-1" divide.ss03.tabl
EndChar

StartChar: dollar
Encoding: 36 36 187
GlifName: dollar
Width: 630
VWidth: 0
GlyphClass: 2
Flags: HW
LayerCount: 2
Fore
SplineSet
417.465820312 760 m 261
 477.465820312 760 l 261
 320.534179688 -130 l 261
 260.534179688 -130 l 261
 417.465820312 760 l 261
388 229 m 258
 276 249 l 258
 173.310546875 267.337890625 115 334.102539062 115 435 c 0
 115 576.715820312 213.08984375 660 380 660 c 0
 557.08984375 660 657 579.927734375 657 438 c 257
 467 438 l 257
 467 487.571289062 436.365234375 515 381 515 c 0
 339.134765625 515 311 494.099609375 311 463 c 0
 311 445.823242188 323.791992188 429.856445312 345 426 c 258
 444 408 l 258
 571.952148438 384.736328125 630 317.893554688 630 217 c 0
 630 72.3310546875 526.760742188 -10 365 -10 c 0
 183.157226562 -10 72 76.876953125 72 219 c 257
 264 219 l 257
 264 167.985351562 301.018554688 138 364 138 c 0
 403.72265625 138 435 161.788085938 435 192 c 0
 435 209.213867188 418.623046875 224.060546875 388 229 c 258
EndSplineSet
Substitution2: "'cv05' Character Variants 05 in Latin lookup 20-1" dollar.cv05
EndChar

StartChar: dotbelowcomb
Encoding: 803 803 188
GlifName: dotbelowcomb
Width: 276
VWidth: 0
GlyphClass: 4
Flags: HW
HStem: -200 147<32 236>
VStem: 32 204<-200 -53>
AnchorPoint: "bottom1" 138 0 mark 0
LayerCount: 2
Fore
SplineSet
22.654296875 -53 m 261
 226.654296875 -53 l 261
 200.734375 -200 l 261
 -3.265625 -200 l 261
 22.654296875 -53 l 261
EndSplineSet
Substitution2: "ss03StyleSet3inLatinlookup2 subtable" dotbelowcomb.ss03
EndChar

StartChar: dotbelowcomb.ss03
Encoding: 65568 -1 189
GlifName: dotbelowcomb.ss03
Width: 300
VWidth: 0
GlyphClass: 4
Flags: W
HStem: -262 216<85.2301 214.77>
VStem: 42 216<-218.77 -89.2301>
AnchorPoint: "bottom1" 150 0 mark 0
LayerCount: 2
Fore
SplineSet
42 -154 m 256
 42 -94 90 -46 150 -46 c 256
 210 -46 258 -94 258 -154 c 256
 258 -214 210 -262 150 -262 c 256
 90 -262 42 -214 42 -154 c 256
EndSplineSet
EndChar

StartChar: dotlessi
Encoding: 305 305 190
GlifName: dotlessi
Width: 276
VWidth: 0
GlyphClass: 2
Flags: HW
HStem: 0 21<43 233 43 43> 480 20<43 233 233 233>
VStem: 43 190<0 500 0 500>
AnchorPoint: "bottom1" 144 0 basechar 0
AnchorPoint: "top1" 240.743 560 basechar 0
LayerCount: 2
Fore
SplineSet
131.163085938 500 m 257
 321.163085938 500 l 257
 233 0 l 257
 43 0 l 257
 131.163085938 500 l 257
EndSplineSet
PickledDataWithLists: "(dp0
Vcom.fontlab.hintData\\u000d\\u000d\\u000d\\u000d\\u000d\\u000d\\u000d\\u000d\\u000d\\u000d\\u000d\\u000d\\u000d\\u000d\\u000d
p1
(dp2
Vhhints\\u000d\\u000d\\u000d\\u000d\\u000d\\u000d\\u000d\\u000d\\u000d\\u000d\\u000d\\u000d\\u000d\\u000d\\u000d
p3
(lp4
(dp5
Vposition\\u000d\\u000d\\u000d\\u000d\\u000d\\u000d\\u000d\\u000d\\u000d\\u000d\\u000d\\u000d\\u000d\\u000d\\u000d
p6
I0
sVwidth\\u000d\\u000d\\u000d\\u000d\\u000d\\u000d\\u000d\\u000d\\u000d\\u000d\\u000d\\u000d\\u000d\\u000d\\u000d
p7
I21
sa(dp8
g6
I480
sg7
I20
sasVvhints\\u000d\\u000d\\u000d\\u000d\\u000d\\u000d\\u000d\\u000d\\u000d\\u000d\\u000d\\u000d\\u000d\\u000d\\u000d
p9
(lp10
(dp11
g6
I43
sg7
I190
sass."
Substitution2: "ss03StyleSet3inLatinlookup2 subtable" dotlessi.ss03
EndChar

StartChar: dotlessi.ss03
Encoding: 65569 -1 191
GlifName: dotlessi.ss03
Width: 276
VWidth: 0
GlyphClass: 2
Flags: W
AnchorPoint: "top1" 142 560 basechar 0
AnchorPoint: "bottom1" 144 0 basechar 0
LayerCount: 2
Fore
SplineSet
43 500 m 257
 233 500 l 257
 233 0 l 257
 43 0 l 257
 43 500 l 257
EndSplineSet
EndChar

StartChar: e
Encoding: 101 101 192
GlifName: e
Width: 599
VWidth: 0
GlyphClass: 2
Flags: HW
AnchorPoint: "bottom1" 305 0 basechar 0
AnchorPoint: "bottom2" 501 36 basechar 0
AnchorPoint: "top1" 395 559 basechar 0
LayerCount: 2
Fore
SplineSet
74 227 m 0
 74 392.99456789 187.850311261 511 348 511 c 0
 528.23097347 511 633.726405615 403.49523088 604 240 c 258
 598 207 l 257
 253 207 l 257
 274 322 l 257
 417 322 l 257
 417 357.620379606 391.919390938 380 352 380 c 0
 295.006023939 380 266 325.360745604 266 218 c 0
 266 161.140301982 287.101207624 135 333 135 c 0
 364 135 385 147 396 171 c 257
 597 171 l 257
 560.897860409 51.6623719062 474.622487031 -9 341 -9 c 0
 171.466108008 -9 74 77.1498183138 74 227 c 0
EndSplineSet
Substitution2: "'cv05' Character Variants 05 in Latin lookup 20-1" e.cv05
EndChar

StartChar: eight
Encoding: 56 56 202
GlifName: eight
Width: 597
VWidth: 0
GlyphClass: 2
Flags: HW
HStem: -8 145<241.91 354.42> 257 140<259 338> 302 50<288.24 296 301 308.76> 513 145<252.436 343.858>
VStem: 35 193<150.942 244.505> 55 183<407.796 501.417> 286 10<257 397> 301 10<257 302 352 397> 359 183<407.512 501.025> 369 193<151.433 242.708>
LayerCount: 2
Fore
SplineSet
509 319 m 1
 566 294.083333333 596 249.666666667 596 189 c 0
 596 74.6129032258 479.361204013 -8 317 -8 c 0
 162.811158798 -8 64 60.8205128205 64 168 c 0
 64 245.46961326 117 309.712707182 205 339 c 1
 159 364.03539823 136 406.486725664 136 462 c 0
 136 575.425925926 244.582733813 658 394 658 c 0
 536.14953271 658 628 590.156862745 628 485 c 0
 628 412.375 583 349.181818182 509 319 c 1
375 397 m 2
 413.657142857 397 441 424.916666667 441 464 c 0
 441 495.181818182 420.924528302 513 385 513 c 0
 343.816901408 513 317 486.013888889 317 446 c 0
 317 414.818181818 335.387755102 397 370 397 c 2
 375 397 l 2
343 257 m 2
 338 257 l 2
 290.860759494 257 262 230.944444444 262 190 c 0
 262 155.770833333 284.4 137 326 137 c 0
 373.590361446 137 405 164.972972973 405 206 c 0
 405 239.260869565 382.93220339 257 343 257 c 2
EndSplineSet
Substitution2: "'cv05' Character Variants 05 in Latin lookup 20-1" eight.cv05
Substitution2: "'cv04' Character Variants 04 in Latin lookup 19-1" uni2467
Substitution2: "'cv03' Character Variants 03 in Latin lookup 18-1" uni277D
Substitution2: "'cv02' Character Variants 02 in Latin lookup 17-1" eight.cv02
Substitution2: "'cv01' Character Variants 01 in Latin lookup 16-1" eight.cv01
Substitution2: "'sups' Superscript in Latin lookup 15-1" uni2078
Substitution2: "'subs' Subscript in Latin lookup 14-1" uni2088
Substitution2: "'numr' Numerators in Latin lookup 13-1" eight.numr
Substitution2: "'dnom' Denominators in Latin lookup 12-1" eight.dnom
Substitution2: "'tnum' Tabular Numbers in Latin lookup 11-1" eight.tabl
EndChar

StartChar: ellipsis
Encoding: 8230 8230 203
GlifName: ellipsis
Width: 804
VWidth: 0
GlyphClass: 2
Flags: HW
LayerCount: 2
Fore
SplineSet
598.736328125 197 m 257
 802.736328125 197 l 257
 768 0 l 257
 564 0 l 257
 598.736328125 197 l 257
334.736328125 197 m 257
 538.736328125 197 l 257
 504 0 l 257
 300 0 l 257
 334.736328125 197 l 257
70.736328125 197 m 257
 274.736328125 197 l 257
 240 0 l 257
 36 0 l 257
 70.736328125 197 l 257
EndSplineSet
Substitution2: "ss03StyleSet3inLatinlookup2 subtable" ellipsis.ss03
EndChar

StartChar: ellipsis.ss03
Encoding: 65572 -1 204
GlifName: ellipsis.ss03
Width: 828
VWidth: 0
GlyphClass: 2
Flags: W
LayerCount: 2
Fore
SplineSet
582 97 m 256
 582 157 630 205 690 205 c 256
 750 205 798 157 798 97 c 256
 798 37 750 -11 690 -11 c 256
 630 -11 582 37 582 97 c 256
306 97 m 256
 306 157 354 205 414 205 c 256
 474 205 522 157 522 97 c 256
 522 37 474 -11 414 -11 c 256
 354 -11 306 37 306 97 c 256
30 97 m 256
 30 157 78 205 138 205 c 256
 198 205 246 157 246 97 c 256
 246 37 198 -11 138 -11 c 256
 78 -11 30 37 30 97 c 256
EndSplineSet
EndChar

StartChar: emdash
Encoding: 8212 8212 206
GlifName: emdash
Width: 1000
VWidth: 0
GlyphClass: 2
Flags: HW
LayerCount: 2
Fore
SplineSet
88.4775390625 360 m 257
 1039.47753906 360 l 257
 1009.85449219 192 l 257
 58.8544921875 192 l 257
 88.4775390625 360 l 257
EndSplineSet
EndChar

StartChar: endash
Encoding: 8211 8211 207
GlifName: endash
Width: 700
VWidth: 0
GlyphClass: 2
Flags: HW
LayerCount: 2
Fore
SplineSet
88.4775390625 360 m 257
 738.477539062 360 l 257
 708.854492188 192 l 257
 58.8544921875 192 l 257
 88.4775390625 360 l 257
EndSplineSet
EndChar

StartChar: eng
Encoding: 331 331 208
GlifName: eng
Width: 606
VWidth: 0
GlyphClass: 2
Flags: HW
LayerCount: 2
Fore
SplineSet
132.987304688 499 m 257
 322.987304688 499 l 257
 234.823242188 -1 l 257
 44.8232421875 -1 l 257
 132.987304688 499 l 257
422.431640625 269 m 258
 431.708984375 321.612304688 411.888671875 349 364.538085938 349 c 256
 325.28125 349 291.022460938 317.720703125 283.490234375 275 c 257
 245.547851562 281 l 257
 268.302283892 412.330078125 369.577883643 519 471.513671875 519 c 256
 585.250333401 519 642.752999134 437.392578125 619.485351562 309 c 258
 566.41015625 8 l 258
 546.277890453 -122.05859375 465.461627629 -200 350.734375 -200 c 258
 248.734375 -200 l 257
 278.357421875 -32 l 257
 319.357421875 -32 l 258
 354.249023438 -32 371.80859375 -18.1005859375 377.46875 14 c 258
 422.431640625 269 l 258
EndSplineSet
EndChar

StartChar: equal
Encoding: 61 61 210
GlifName: equal
Width: 588
VWidth: 0
GlyphClass: 2
Flags: HW
LayerCount: 2
Fore
SplineSet
607.08203125 250 m 257
 579.221679688 92 l 257
 41.2216796875 92 l 257
 69.08203125 250 l 257
 607.08203125 250 l 257
654.690429688 520 m 257
 626.830078125 362 l 257
 88.830078125 362 l 257
 116.690429688 520 l 257
 654.690429688 520 l 257
EndSplineSet
Substitution2: "'cv05' Character Variants 05 in Latin lookup 20-1" equal.cv05
Substitution2: "'sups' Superscript in Latin lookup 15-1" uni207C
Substitution2: "'subs' Subscript in Latin lookup 14-1" uni208C
EndChar

StartChar: eth
Encoding: 240 240 211
GlifName: eth
Width: 657
VWidth: 0
GlyphClass: 2
Flags: W
LayerCount: 2
Fore
SplineSet
407 250 m 256
 407 309.73 370.757 350 317 350 c 256
 262.979 350 228 309.912 228 248 c 256
 228 184.88 262.7 143 315 143 c 256
 368.372 143 407 187.926 407 250 c 256
491.878 700 m 257
 566.496 617.171 622 502.911 622 368 c 256
 622 137.279 504.927 -8 319 -8 c 256
 151.463 -8 35 99.8514 35 255 c 256
 35 396.763 126.101 501 250 501 c 256
 330.066 501 399.599 457.105 429 388 c 257
 429 392 429 396 429 400 c 256
 429 519.743 366.015 620.023 283.217 700 c 257
 491.878 700 l 257
240 642 m 257
 628 666 l 257
 628 548 l 257
 240 524 l 257
 240 642 l 257
EndSplineSet
EndChar

StartChar: exclam
Encoding: 33 33 212
GlifName: exclam
Width: 276
VWidth: 0
GlyphClass: 2
Flags: HW
LayerCount: 2
Fore
SplineSet
240 0 m 257
 36 0 l 257
 61.919921875 147 l 257
 265.919921875 147 l 257
 240 0 l 257
248.265625 200 m 257
 98.265625 200 l 257
 157.612304688 650 l 257
 347.612304688 650 l 257
 248.265625 200 l 257
EndSplineSet
Substitution2: "'cv05' Character Variants 05 in Latin lookup 20-1" exclam.cv05
Substitution2: "ss03StyleSet3inLatinlookup2 subtable" exclam.ss03
EndChar

StartChar: exclam.ss03
Encoding: 65573 -1 213
GlifName: exclam.ss03
Width: 276
VWidth: 0
GlyphClass: 2
Flags: W
LayerCount: 2
Fore
SplineSet
30 87 m 256
 30 141 78 185 138 185 c 256
 198 185 246 141 246 87 c 256
 246 33 198 -11 138 -11 c 256
 78 -11 30 33 30 87 c 256
213 217 m 257
 63 217 l 257
 43 650 l 257
 233 650 l 257
 213 217 l 257
EndSplineSet
EndChar

StartChar: exclamdown
Encoding: 161 161 214
GlifName: exclamdown
Width: 276
VWidth: 0
GlyphClass: 2
Flags: HW
LayerCount: 2
Fore
SplineSet
124.163085938 500 m 257
 328.163085938 500 l 257
 302.243164062 353 l 257
 98.2431640625 353 l 257
 124.163085938 500 l 257
115.8984375 300 m 257
 265.8984375 300 l 257
 206.55078125 -150 l 257
 16.55078125 -150 l 257
 115.8984375 300 l 257
EndSplineSet
Substitution2: "ss03StyleSet3inLatinlookup2 subtable" exclamdown.ss03
EndChar

StartChar: exclamdown.ss03
Encoding: 65574 -1 215
GlifName: exclamdown.ss03
Width: 276
VWidth: 0
GlyphClass: 2
Flags: W
LayerCount: 2
Fore
SplineSet
246 412 m 256
 246 358 198 314 138 314 c 256
 78 314 30 358 30 412 c 256
 30 466 78 510 138 510 c 256
 198 510 246 466 246 412 c 256
63 282 m 257
 213 282 l 257
 233 -151 l 257
 43 -151 l 257
 63 282 l 257
EndSplineSet
EndChar

StartChar: f
Encoding: 102 102 216
GlifName: f
Width: 378
VWidth: 0
GlyphClass: 2
Flags: W
HStem: 0 21G<94 287.527> 352 148<111 417> 552 148<382.894 453>
DStem2: 22.9329 0 93.9573 0 0.173648 0.984808<357.43 507.697> 94 0 284 0 0.173648 0.984808<32.9932 594.819>
LayerCount: 2
Fore
SplineSet
85 352 m 257
 111 500 l 257
 443 500 l 257
 417 352 l 257
 85 352 l 257
453 552 m 257
 422 552 l 258
 394 552 379 541 375 516 c 258
 284 0 l 257
 94 0 l 257
 186 522 l 258
 206 634 292 700 417 700 c 258
 479 700 l 257
 453 552 l 257
EndSplineSet
Substitution2: "'cv05' Character Variants 05 in Latin lookup 20-1" f.cv05
EndChar

StartChar: five
Encoding: 53 53 217
GlifName: five
Width: 597
VWidth: 0
GlyphClass: 2
Flags: HW
LayerCount: 2
Fore
SplineSet
410.608398438 243.733398438 m 0
 410.608398438 188.210090131 377.132519935 152 325.801757812 152 c 256
 286.137385214 152 265.380859375 172.611933662 265.380859375 212 c 257
 72.380859375 212 l 257
 72.380859375 73.9362044644 166.312890791 -8 324.58984375 -8 c 256
 487.876620601 -8 606.604492188 103.600490883 606.604492188 257.084960938 c 0
 606.604492188 370.732246147 544.996760626 443 448.11328125 443 c 256
 388.889922834 443 335.185930492 418.000031635 295.59375 372 c 257
 332.9296875 493 l 257
 625.9296875 493 l 257
 653.7890625 651 l 257
 186.7890625 651 l 257
 82.255859375 268 l 257
 271.255859375 268 l 257
 289.363049537 292.591197249 316.427728219 306 347.956054688 306 c 256
 387.973184749 306 410.608398438 283.504148326 410.608398438 243.733398438 c 0
EndSplineSet
Substitution2: "'cv05' Character Variants 05 in Latin lookup 20-1" five.cv05
Substitution2: "'cv04' Character Variants 04 in Latin lookup 19-1" uni2464
Substitution2: "'cv03' Character Variants 03 in Latin lookup 18-1" uni277A
Substitution2: "'cv02' Character Variants 02 in Latin lookup 17-1" five.cv02
Substitution2: "'cv01' Character Variants 01 in Latin lookup 16-1" five.cv01
Substitution2: "'sups' Superscript in Latin lookup 15-1" uni2075
Substitution2: "'subs' Subscript in Latin lookup 14-1" uni2085
Substitution2: "'numr' Numerators in Latin lookup 13-1" five.numr
Substitution2: "'dnom' Denominators in Latin lookup 12-1" five.dnom
Substitution2: "'tnum' Tabular Numbers in Latin lookup 11-1" five.tabl
EndChar

StartChar: four
Encoding: 52 52 218
GlifName: four
Width: 611
VWidth: 0
GlyphClass: 2
Flags: HW
LayerCount: 2
Fore
SplineSet
537.275390625 132 m 257
 514 0 l 257
 334 0 l 257
 357.275390625 132 l 257
 48.275390625 132 l 257
 83.01171875 329 l 257
 398.612304688 650 l 257
 628.612304688 650 l 257
 564.958984375 289 l 257
 646.958984375 289 l 257
 619.275390625 132 l 257
 537.275390625 132 l 257
384.958984375 289 m 257
 412.641601562 446 l 257
 257.958984375 289 l 261
 384.958984375 289 l 257
EndSplineSet
Substitution2: "'cv05' Character Variants 05 in Latin lookup 20-1" four.cv05
Substitution2: "'cv04' Character Variants 04 in Latin lookup 19-1" uni2463
Substitution2: "'cv03' Character Variants 03 in Latin lookup 18-1" uni2779
Substitution2: "'cv02' Character Variants 02 in Latin lookup 17-1" four.cv02
Substitution2: "'cv01' Character Variants 01 in Latin lookup 16-1" four.cv01
Substitution2: "'sups' Superscript in Latin lookup 15-1" uni2074
Substitution2: "'subs' Subscript in Latin lookup 14-1" uni2084
Substitution2: "'numr' Numerators in Latin lookup 13-1" four.numr
Substitution2: "'dnom' Denominators in Latin lookup 12-1" four.dnom
Substitution2: "'tnum' Tabular Numbers in Latin lookup 11-1" four.tabl
EndChar

StartChar: g
Encoding: 103 103 219
GlifName: g
Width: 608
VWidth: 0
GlyphClass: 2
Flags: HW
AnchorPoint: "top1" 397 559 basechar 0
LayerCount: 2
Fore
SplineSet
270 239 m 0
 270 304 305 349 355 349 c 0
 398 349 422 323 422 278 c 0
 422 213 388 167 339 167 c 0
 296 167 270 193 270 239 c 0
468 316 m 0
 468 437 403 514 300 514 c 0
 174 514 75 383 75 215 c 0
 75 92 141 13 245 13 c 0
 369 13 468 147 468 316 c 0
655 500 m 257
 464 500 l 257
 375 -12 l 258
 370 -44 344 -63 304 -63 c 0
 255 -63 226 -47 226 -16 c 261
 35 -16 l 261
 35 -136 143 -200 314 -200 c 0
 448 -200 544 -138 562 -34 c 258
 655 500 l 257
EndSplineSet
Substitution2: "'cv05' Character Variants 05 in Latin lookup 20-1" g.cv05
EndChar

StartChar: germandbls
Encoding: 223 223 224
GlifName: germandbls
Width: 645
VWidth: 0
GlyphClass: 2
Flags: HW
LayerCount: 2
Fore
SplineSet
436 551 m 256
 372.221566136 551 325.045390427 507.24790156 312 436 c 258
 235 0 l 257
 45 0 l 257
 123 442 l 258
 149.391841866 600.204234097 279.476205982 708 444 708 c 256
 586.734461035 708 691 624.418717753 691 510 c 0
 691 398.389022426 580.581722522 316 431 316 c 261
 420 426 l 257
 469.845171998 426 504 454.868961764 504 497 c 0
 504 528.882443859 476.148262637 551 436 551 c 256
468 426 m 257
 442 276 l 257
 353 276 l 257
 379 426 l 257
 468 426 l 257
413 386 m 257
 555.425875129 386 646 312.918731864 646 198 c 0
 646 83.7907917345 544.012218141 0 405 0 c 258
 294 0 l 257
 322 160 l 257
 383 160 l 258
 433.022060921 160 466 187.01807057 466 228 c 0
 466 259.166880892 440.750321337 276 394 276 c 257
 413 386 l 257
EndSplineSet
EndChar

StartChar: grave
Encoding: 96 96 225
GlifName: grave
Width: 430
VWidth: 0
GlyphClass: 2
Flags: HW
LayerCount: 2
Fore
SplineSet
161.955078125 720 m 257
 381.955078125 720 l 257
 486.690429688 520 l 257
 336.690429688 520 l 257
 161.955078125 720 l 257
EndSplineSet
Substitution2: "'cv05' Character Variants 05 in Latin lookup 20-1" grave.cv05
EndChar

StartChar: gravecomb
Encoding: 768 768 226
GlifName: gravecomb
Width: 300
VWidth: 0
GlyphClass: 4
Flags: HW
AnchorPoint: "top1" 244.163 500 mark 0
LayerCount: 2
Fore
SplineSet
74.4287109375 700 m 257
 274.428710938 700 l 257
 349.163085938 500 l 257
 209.163085938 500 l 261
 74.4287109375 700 l 257
EndSplineSet
EndChar

StartChar: greater
Encoding: 62 62 227
GlifName: greater
Width: 591
VWidth: 0
GlyphClass: 2
Flags: HW
LayerCount: 2
Fore
SplineSet
33.052734375 40 m 257
 67.61328125 236 l 257
 455.013671875 312 l 257
 93.3564453125 382 l 257
 128.26953125 580 l 257
 639.705078125 418 l 257
 601.618164062 202 l 257
 33.052734375 40 l 257
EndSplineSet
Substitution2: "'cv05' Character Variants 05 in Latin lookup 20-1" greater.cv05
EndChar

StartChar: h
Encoding: 104 104 228
GlifName: h
Width: 606
VWidth: 0
GlyphClass: 2
Flags: HW
AnchorPoint: "top1" 267 752 basechar 0
LayerCount: 2
Fore
SplineSet
421 270 m 262
 430.233603498 324.197237923 408 350 364 350 c 260
 323.906905208 350 289.175 322.426470588 282 275 c 261
 244 284 l 261
 270.22907489 435.656108597 382.85387035 512 473 512 c 260
 578 512 637.023545222 400.190360575 618 293 c 262
 566 0 l 261
 375 0 l 261
 421 270 l 262
165.029296875 700 m 261
 356.029296875 700 l 261
 234 0 l 261
 44 0 l 261
 165.029296875 700 l 261
EndSplineSet
Substitution2: "'cv05' Character Variants 05 in Latin lookup 20-1" h.cv05
EndChar

StartChar: hbar
Encoding: 295 295 229
GlifName: hbar
Width: 646
VWidth: 0
GlyphClass: 2
Flags: HW
LayerCount: 2
Fore
SplineSet
124.612304688 650 m 257
 516.612304688 650 l 257
 496.158203125 534 l 257
 104.158203125 534 l 257
 124.612304688 650 l 257
459.766601562 263 m 258
 468.991573444 317.195930006 446.766601562 343 402.766601562 343 c 256
 362.673506771 343 327.941601563 315.426470588 320.766601562 268 c 257
 282.766601562 277 l 257
 308.995676452 428.656108597 421.620471913 505 511.766601562 505 c 256
 616.766601562 505 675.792593529 393.185305594 656.766601562 286 c 258
 606 0 l 257
 415 0 l 257
 459.766601562 263 l 258
205.029296875 700 m 257
 396.029296875 700 l 257
 274 0 l 257
 84 0 l 257
 205.029296875 700 l 257
EndSplineSet
EndChar

StartChar: hookabovecomb
Encoding: 777 777 231
GlifName: hookabovecomb
Width: 300
VWidth: 0
GlyphClass: 4
Flags: HW
AnchorPoint: "top1" 244.163 500 mark 0
LayerCount: 2
Fore
SplineSet
184.163085938 500 m 257
 190.864257812 538 220.743164062 560 248.916992188 578 c 256
 274.73828125 594 299.030273438 607 302.028320312 624 c 256
 305.5546875 644 296.670898438 656 278.670898438 656 c 256
 257.670898438 656 241.377929688 643 236.499023438 621 c 257
 108.499023438 621 l 257
 130.665039062 712.68359375 191.126953125 755 298.126953125 755 c 256
 391.126953125 755 442.506835938 706.115234375 429.262695312 631 c 256
 421.856445312 589 389.977539062 567 358.979492188 550 c 256
 329.158203125 534 301.04296875 522 297.163085938 500 c 257
 184.163085938 500 l 257
EndSplineSet
EndChar

StartChar: hyphen
Encoding: 45 45 232
GlifName: hyphen
Width: 512
VWidth: 0
GlyphClass: 2
Flags: HW
LayerCount: 2
Fore
SplineSet
88.4775390625 360 m 261
 550.477539062 360 l 261
 520.854492188 192 l 261
 58.8544921875 192 l 261
 88.4775390625 360 l 261
EndSplineSet
Substitution2: "'cv05' Character Variants 05 in Latin lookup 20-1" hyphen.cv05
Substitution2: "'sups' Superscript in Latin lookup 15-1" uni207B
Substitution2: "'subs' Subscript in Latin lookup 14-1" uni208B
Substitution2: "'tnum' Tabular Numbers in Latin lookup 11-1" hyphen.tabl
EndChar

StartChar: i
Encoding: 105 105 233
GlifName: i
Width: 276
VWidth: 0
GlyphClass: 2
Flags: W
HStem: 0 21G<42.2852 235.812> 480 20G<126.923 320.449> 553 147<158.715 336.794>
VStem: 42.2852 320.43
DStem2: 42.2852 0 232.285 0 0.173648 0.984808<32.9932 507.713 634.957 670.366>
AnchorPoint: "bottom2" 232.285 0 basechar 0
AnchorPoint: "bottom1" 143.285 0 basechar 0
LayerCount: 2
Fore
SplineSet
158.71484375 700 m 257
 362.71484375 700 l 257
 336.793945312 553 l 257
 132.793945312 553 l 257
 158.71484375 700 l 257
130.44921875 500 m 261
 320.44921875 500 l 261
 232.28515625 0 l 261
 42.28515625 0 l 261
 130.44921875 500 l 261
EndSplineSet
Substitution2: "'cv05' Character Variants 05 in Latin lookup 20-1" i.cv05
Substitution2: "ss03StyleSet3inLatinlookup2 subtable" i.ss03
EndChar

StartChar: i.ss03
Encoding: 65576 -1 234
GlifName: i.ss03
Width: 276
VWidth: 0
GlyphClass: 2
Flags: HW
HStem: 0 21G<43 233> 480 20G<43 233> 542 216<73.2301 202.77>
VStem: 30 216<585.23 714.77> 43 190<0 500>
AnchorPoint: "bottom1" 143.285 0 basechar 0
AnchorPoint: "bottom2" 232.285 0 basechar 0
LayerCount: 2
Fore
SplineSet
144 650 m 260xf0
 144 710 192 758 252 758 c 260
 312 758 360 710 360 650 c 260
 360 590 312 542 252 542 c 260
 192 542 144 590 144 650 c 260xf0
130.44921875 500 m 257
 320.44921875 500 l 257
 232.28515625 0 l 257
 42.28515625 0 l 257
 130.44921875 500 l 257
EndSplineSet
EndChar

StartChar: j
Encoding: 106 106 247
GlifName: j
Width: 276
VWidth: 0
GlyphClass: 2
Flags: HW
LayerCount: 2
Fore
SplineSet
-33.724609375 -32 m 261
 -2.724609375 -32 l 262
 29.7194335937 -32 43.6240234375 -21 43.6240234375 4 c 262
 131.08203125 500 l 261
 321.08203125 500 l 261
 232.565429688 -2 l 262
 232.565429688 -126 145.583037257 -200 -1.3466796875 -200 c 262
 -63.3466796875 -200 l 261
 -33.724609375 -32 l 261
159.346679688 700 m 257
 363.346679688 700 l 257
 337.426757812 553 l 257
 133.426757812 553 l 257
 159.346679688 700 l 257
EndSplineSet
Substitution2: "'cv05' Character Variants 05 in Latin lookup 20-1" j.cv05
Substitution2: "ss03StyleSet3inLatinlookup2 subtable" j.ss03
EndChar

StartChar: j.ss03
Encoding: 65580 -1 248
GlifName: j.ss03
Width: 276
VWidth: 0
GlyphClass: 2
Flags: HW
LayerCount: 2
Fore
SplineSet
144 650 m 260xf0
 144 710 192 758 252 758 c 260
 312 758 360 710 360 650 c 260
 360 590 312 542 252 542 c 260
 192 542 144 590 144 650 c 260xf0
-33.724609375 -32 m 257
 -2.724609375 -32 l 258
 29.7194335937 -32 43.6240234375 -21 43.6240234375 4 c 258
 131.08203125 500 l 257
 321.08203125 500 l 257
 232.565429688 -2 l 258
 232.565429688 -126 145.583037257 -200 -1.3466796875 -200 c 258
 -63.3466796875 -200 l 257
 -33.724609375 -32 l 257
EndSplineSet
EndChar

StartChar: k
Encoding: 107 107 250
GlifName: k
Width: 617
VWidth: 0
GlyphClass: 2
Flags: W
HStem: 0 21G<43.2852 236.812 392.157 610.285> 480 20G<417.993 690.449> 680 20G<163.188 356.715>
AnchorPoint: "bottom1" 314.285 0 basechar 0
LayerCount: 2
Fore
SplineSet
166.71484375 700 m 261
 356.71484375 700 l 261
 233.28515625 0 l 261
 43.28515625 0 l 261
 166.71484375 700 l 261
435.44921875 500 m 261
 690.44921875 500 l 261
 480.599609375 274 l 261
 610.28515625 0 l 261
 400.28515625 0 l 261
 330.790039062 171 l 261
 239.802734375 86 l 261
 178.845703125 206 l 261
 435.44921875 500 l 261
EndSplineSet
Substitution2: "'cv05' Character Variants 05 in Latin lookup 20-1" k.cv05
EndChar

StartChar: kgreenlandic
Encoding: 312 312 251
GlifName: kgreenlandic
Width: 631
VWidth: 0
GlyphClass: 2
Flags: HW
LayerCount: 2
Fore
SplineSet
132.685546875 500 m 257
 322.685546875 500 l 257
 233.28515625 0 l 257
 43.28515625 0 l 257
 132.685546875 500 l 257
435.44921875 500 m 257
 690.44921875 500 l 257
 480.599609375 274 l 257
 610.28515625 0 l 257
 400.28515625 0 l 257
 330.790039062 171 l 257
 239.802734375 86 l 257
 178.845703125 206 l 257
 435.44921875 500 l 257
EndSplineSet
EndChar

StartChar: l
Encoding: 108 108 252
GlifName: l
Width: 276
VWidth: 0
GlyphClass: 2
Flags: W
HStem: 0 21G<42 235.514> 680 20G<161.486 355>
VStem: 42 313
DStem2: 42 0 232 0 0.173648 0.984808<32.9932 710.724>
AnchorPoint: "top2" 364.449 500 basechar 0
AnchorPoint: "bottom1" 144.285 0 basechar 0
AnchorPoint: "top1" 271.884 752 basechar 0
LayerCount: 2
Fore
SplineSet
165 700 m 257
 355 700 l 257
 232 0 l 257
 42 0 l 257
 165 700 l 257
EndSplineSet
Substitution2: "'cv05' Character Variants 05 in Latin lookup 20-1" l.cv05
Substitution2: "ss02StyleSet2inLatinlookup1 subtable" l.ss02
EndChar

StartChar: l.ss02
Encoding: 65581 -1 253
GlifName: l.ss02
Width: 329
VWidth: 0
GlyphClass: 2
Flags: HW
AnchorPoint: "top1" 271.598 752 basechar 0
AnchorPoint: "bottom1" 184 0 basechar 0
AnchorPoint: "top2" 364.163 500 basechar 0
LayerCount: 2
Fore
SplineSet
333.859375 158 m 257
 306 0 l 257
 244 0 l 258
 119 0 56.6376953125 66 76.3857421875 178 c 258
 168.428710938 700 l 257
 358.428710938 700 l 257
 270.970703125 204 l 258
 265.328125 172 274.859375 158 302.859375 158 c 258
 333.859375 158 l 257
EndSplineSet
EndChar

StartChar: ldot.ss02
Encoding: 65584 -1 259
GlifName: ldot.ss02
Width: 510
VWidth: 0
GlyphClass: 2
Flags: HW
HStem: 240 197<306 510>
VStem: 306 204<240 437>
LayerCount: 2
Fore
SplineSet
382.368164062 437 m 261
 586.368164062 437 l 261
 551.631835938 240 l 261
 347.631835938 240 l 261
 382.368164062 437 l 261
EndSplineSet
Refer: 253 -1 N 1 0 0 1 0 0 2
Substitution2: "ss03StyleSet3inLatinlookup2 subtable" ldot.ss02.ss03
EndChar

StartChar: ldot.ss02.ss03
Encoding: 65585 -1 260
GlifName: ldot.ss02.ss03
Width: 564
VWidth: 0
GlyphClass: 2
Flags: HW
LayerCount: 2
Fore
SplineSet
368 347 m 260
 368 407 416 455 476 455 c 260
 536 455 584 407 584 347 c 260
 584 287 536 239 476 239 c 260
 416 239 368 287 368 347 c 260
338.145507812 158 m 257
 310.28515625 0 l 257
 248.28515625 0 l 258
 143.000431847 0 80.671875 66 80.671875 178 c 258
 172.71484375 700 l 257
 362.71484375 700 l 257
 275.255859375 204 l 258
 275.255859375 172 284.822753906 158 307.145507812 158 c 258
 338.145507812 158 l 257
EndSplineSet
EndChar

StartChar: less
Encoding: 60 60 262
GlifName: less
Width: 591
VWidth: 0
GlyphClass: 2
Flags: HW
LayerCount: 2
Fore
SplineSet
668.26953125 580 m 261
 633.709960938 384 l 261
 246.30859375 308 l 261
 607.965820312 238 l 261
 573.052734375 40 l 261
 61.6181640625 202 l 261
 99.705078125 418 l 261
 668.26953125 580 l 261
EndSplineSet
Substitution2: "'cv05' Character Variants 05 in Latin lookup 20-1" less.cv05
EndChar

StartChar: longs
Encoding: 383 383 263
GlifName: longs
Width: 329
VWidth: 0
GlyphClass: 2
Flags: HW
LayerCount: 2
Fore
SplineSet
403.33203125 552 m 261
 372.33203125 552 l 262
 344.33203125 552 330.392578125 541 325.984375 516 c 262
 235 0 l 261
 45 0 l 261
 137.04296875 522 l 262
 156.791015625 634 242.428710938 700 367.428710938 700 c 262
 429.428710938 700 l 261
 403.33203125 552 l 261
EndSplineSet
EndChar

StartChar: lslash
Encoding: 322 322 264
GlifName: lslash
Width: 348
VWidth: 0
GlyphClass: 2
Flags: HW
LayerCount: 2
Fore
SplineSet
72.2939453125 410 m 257
 429.815429688 464 l 257
 403.719726562 316 l 257
 46.197265625 262 l 257
 72.2939453125 410 l 257
201.428710938 700 m 257
 391.428710938 700 l 257
 268 0 l 257
 78 0 l 257
 201.428710938 700 l 257
EndSplineSet
Substitution2: "ss02StyleSet2inLatinlookup1 subtable" lslash.ss02
EndChar

StartChar: lslash.ss02
Encoding: 65587 -1 265
GlifName: lslash.ss02
Width: 349
VWidth: 0
GlyphClass: 2
Flags: HW
LayerCount: 2
Fore
SplineSet
353.859375 158 m 257
 326 0 l 257
 264 0 l 258
 139 0 76.6376953125 66 96.3857421875 178 c 258
 188.428710938 700 l 257
 378.428710938 700 l 257
 290.970703125 204 l 258
 285.328125 172 294.859375 158 322.859375 158 c 258
 353.859375 158 l 257
72.2939453125 410 m 257
 429.815429688 464 l 257
 403.719726562 316 l 257
 46.197265625 262 l 257
 72.2939453125 410 l 257
EndSplineSet
EndChar

StartChar: m
Encoding: 109 109 266
GlifName: m
Width: 896
VWidth: 0
GlyphClass: 2
Flags: W
HStem: 0 21G<44 237.52 355 549.549 667 861.549> 350 162<336.386 510.623 648.386 822.623> 480 20G<127.52 322>
DStem2: 355 0 546 0 0.173648 0.984808<33.1668 313.44> 667 0 858 0 0.173648 0.984808<33.1668 335.985>
LayerCount: 2
Fore
SplineSet
713 270 m 258xc0
 722.565429688 326.145507812 703.55078125 350 666 350 c 256
 630.771484375 350 602.338867188 323.506835938 594 275 c 257
 556 284 l 257
 579.10546875 417.594726562 669.784179688 512 775 512 c 256
 870.24609375 512 931.291992188 412.970703125 910 293 c 258
 858 0 l 257
 667 0 l 257
 713 270 l 258xc0
401 270 m 258
 410.565300049 326.145428039 391.550739022 350 354 350 c 256
 318.771805393 350 290.338459472 323.506931333 282 275 c 257
 244 284 l 257
 267.105283125 417.594392537 357.784353451 512 463 512 c 256
 558.245848448 512 619.291529949 412.970338899 598 293 c 258
 546 0 l 257
 355 0 l 257
 401 270 l 258
131 500 m 257xa0
 322 500 l 257
 234 0 l 257
 44 0 l 257
 131 500 l 257xa0
EndSplineSet
Substitution2: "'cv05' Character Variants 05 in Latin lookup 20-1" m.cv05
EndChar

StartChar: minute
Encoding: 8242 8242 267
GlifName: minute
Width: 390
VWidth: -50
GlyphClass: 2
Flags: HW
LayerCount: 2
Fore
SplineSet
479.612304688 650 m 257
 254.346679688 450 l 257
 104.346679688 450 l 257
 269.612304688 650 l 257
 479.612304688 650 l 257
EndSplineSet
EndChar

StartChar: multiply
Encoding: 215 215 268
GlifName: multiply
Width: 588
VWidth: 0
GlyphClass: 2
Flags: HW
LayerCount: 2
Fore
SplineSet
368.939453125 425 m 257
 524.80078125 566 l 257
 622.818359375 447 l 257
 458.719726562 316 l 257
 576.620117188 185 l 257
 436.637695312 66 l 257
 330.5 207 l 257
 174.637695312 66 l 257
 76.6201171875 185 l 257
 240.719726562 316 l 257
 122.818359375 447 l 257
 262.80078125 566 l 257
 368.939453125 425 l 257
EndSplineSet
Substitution2: "'tnum' Tabular Numbers in Latin lookup 11-1" multiply.tabl
EndChar

StartChar: n
Encoding: 110 110 269
GlifName: n
Width: 606
VWidth: 0
GlyphClass: 2
Flags: HW
AnchorPoint: "bottom1" 307 0 basechar 0
AnchorPoint: "top1" 409 560 basechar 0
LayerCount: 2
Fore
SplineSet
421 270 m 262
 430.233603498 324.197237923 408 350 364 350 c 260
 323.906905208 350 289.175 322.426470588 282 275 c 261
 244 284 l 261
 270.22907489 435.656108597 382.85387035 512 473 512 c 260
 578 512 637.023545222 400.190360575 618 293 c 262
 566 0 l 261
 375 0 l 261
 421 270 l 262
131 500 m 261
 322 500 l 261
 234 0 l 261
 44 0 l 261
 131 500 l 261
EndSplineSet
Substitution2: "'cv05' Character Variants 05 in Latin lookup 20-1" n.cv05
Substitution2: "'sups' Superscript in Latin lookup 15-1" uni207F
Substitution2: "'subs' Subscript in Latin lookup 14-1" uni2099
EndChar

StartChar: nine
Encoding: 57 57 273
GlifName: nine
Width: 617
VWidth: 0
GlyphClass: 2
Flags: HW
LayerCount: 2
Fore
SplineSet
645.697265625 406.971679688 m 4
 645.697265625 156.015762609 504.452960572 -8 308.875 -8 c 260
 161.381261589 -8 74.5537109375 62.7748845216 74.5537109375 183 c 261
 267.553710938 183 l 261
 267.553710938 150.659648966 285.849985535 132 317.560546875 132 c 260
 373.760796424 132 422.551298579 194.32969666 438.891601562 287 c 260
 439.984832427 293.202041029 440.460439982 295.898979486 441.0078125 299 c 261
 408.334597468 254.357101596 344.677926967 226 277.135742188 226 c 260
 175.602717852 226 107.364257812 297.523480529 107.364257812 403.944335938 c 4
 107.364257812 547.968837468 218.564068203 660 386.661132812 660 c 260
 549.556595587 660 645.697265625 566.089115872 645.697265625 406.971679688 c 4
445.544921875 457.537109375 m 4
 445.544921875 494.557402732 421.785449724 519 385.799804688 519 c 260
 339.846860573 519 303.719726562 477.526222087 303.719726562 424.772460938 c 4
 303.719726562 388.767555259 325.301099111 367 360.998046875 367 c 260
 408.410393546 367 445.544921875 406.765548436 445.544921875 457.537109375 c 4
EndSplineSet
Substitution2: "'cv05' Character Variants 05 in Latin lookup 20-1" nine.cv05
Substitution2: "'cv04' Character Variants 04 in Latin lookup 19-1" uni2468
Substitution2: "'cv03' Character Variants 03 in Latin lookup 18-1" uni277E
Substitution2: "'cv02' Character Variants 02 in Latin lookup 17-1" nine.cv02
Substitution2: "'cv01' Character Variants 01 in Latin lookup 16-1" nine.cv01
Substitution2: "'sups' Superscript in Latin lookup 15-1" uni2079
Substitution2: "'subs' Subscript in Latin lookup 14-1" uni2089
Substitution2: "'numr' Numerators in Latin lookup 13-1" nine.numr
Substitution2: "'dnom' Denominators in Latin lookup 12-1" nine.dnom
Substitution2: "'tnum' Tabular Numbers in Latin lookup 11-1" nine.tabl
EndChar

StartChar: numbersign
Encoding: 35 35 275
GlifName: numbersign
Width: 740
VWidth: 0
GlyphClass: 2
Flags: HW
LayerCount: 2
Fore
SplineSet
719 267 m 261
 719 139 l 261
 79 139 l 261
 79 267 l 261
 719 267 l 261
769 507 m 261
 769 379 l 261
 129 379 l 261
 129 507 l 261
 769 507 l 261
561 650 m 261
 741 650 l 261
 567 0 l 261
 387 0 l 261
 561 650 l 261
281 650 m 261
 461 650 l 261
 287 0 l 261
 107 0 l 261
 281 650 l 261
EndSplineSet
Substitution2: "'cv05' Character Variants 05 in Latin lookup 20-1" numbersign.cv05
EndChar

StartChar: o
Encoding: 111 111 276
GlifName: o
Width: 601
VWidth: 0
GlyphClass: 2
Flags: HW
AnchorPoint: "top3" 446 494 basechar 0
AnchorPoint: "bottom1" 300 1 basechar 0
AnchorPoint: "top1" 398 559 basechar 0
LayerCount: 2
Fore
SplineSet
74 217 m 0
 74 392 196 520 361 520 c 0
 511 520 613 431 613 287 c 0
 613 112 491 -18 327 -18 c 0
 175 -18 74 75 74 217 c 0
421 281 m 0
 421 331 397 360 356 360 c 0
 305 360 267 301 267 222 c 0
 267 171 291 142 332 142 c 0
 382 142 421 203 421 281 c 0
EndSplineSet
Substitution2: "'cv05' Character Variants 05 in Latin lookup 20-1" o.cv05
EndChar

StartChar: oe
Encoding: 339 339 282
GlifName: oe
Width: 943
VWidth: 0
GlyphClass: 2
Flags: HW
LayerCount: 2
Fore
SplineSet
460 227 m 0
 460 392.99456789 565.540069563 511 714 511 c 0
 880.150428668 511 977.404030176 403.49523088 950 240 c 258
 944 207 l 257
 599 207 l 257
 620 322 l 257
 763 322 l 257
 763 357.620379606 737.919390938 380 698 380 c 0
 641.006023939 380 612 325.360745604 612 218 c 0
 612 161.140301982 633.101207624 135 679 135 c 0
 710 135 731 147 742 171 c 257
 943 171 l 257
 909.718340065 51.6623719062 830.183230232 -9 707 -9 c 0
 550.165275947 -9 460 77.1498183138 460 227 c 0
74 217 m 0
 74 392 187.49825784 520 341 520 c 0
 479.095238095 520 573 431 573 287 c 0
 573 112 459.531468531 -18 307 -18 c 0
 167.015810277 -18 74 75 74 217 c 0
421 281 m 0
 421 331 397 360 356 360 c 0
 305 360 267 301 267 222 c 0
 267 171 291 142 332 142 c 0
 382 142 421 203 421 281 c 0
EndSplineSet
EndChar

StartChar: ohorn
Encoding: 417 417 284
GlifName: ohorn
Width: 601
VWidth: 0
GlyphClass: 2
Flags: HW
AnchorPoint: "top1" 358 559 basechar 0
AnchorPoint: "bottom1" 300 1 basechar 0
LayerCount: 2
Fore
SplineSet
74 217 m 0
 74 392 196 520 361 520 c 0
 511 520 613 431 613 287 c 0
 613 112 491 -18 327 -18 c 0
 175 -18 74 75 74 217 c 0
421 281 m 0
 421 331 397 360 356 360 c 0
 305 360 267 301 267 222 c 0
 267 171 291 142 332 142 c 0
 382 142 421 203 421 281 c 0
446 494 m 257
 547 494 l 258
 575.333007812 494 598.819335938 504.31640625 606.875 550 c 258
 618.51171875 616 l 257
 758.51171875 616 l 257
 745.81640625 544 l 258
 725.913085938 431.119140625 626.114257812 396 540.719726562 396 c 258
 428.719726562 396 l 257
 446 494 l 257
EndSplineSet
EndChar

StartChar: one
Encoding: 49 49 287
GlifName: one
Width: 416
VWidth: 0
GlyphClass: 2
Flags: HW
LayerCount: 2
Fore
SplineSet
295.612304688 650 m 257
 485.612304688 650 l 257
 371 0 l 257
 181 0 l 257
 248.00390625 380 l 257
 92.00390625 380 l 257
 120.745117188 543 l 257
 197.745117188 543 l 258
 249.745117188 543 279.390625 558 288.559570312 610 c 258
 295.612304688 650 l 257
EndSplineSet
Substitution2: "'cv05' Character Variants 05 in Latin lookup 20-1" one.cv05
Substitution2: "'cv04' Character Variants 04 in Latin lookup 19-1" uni2460
Substitution2: "'cv03' Character Variants 03 in Latin lookup 18-1" uni2776
Substitution2: "'cv02' Character Variants 02 in Latin lookup 17-1" one.cv02
Substitution2: "'cv01' Character Variants 01 in Latin lookup 16-1" one.cv01
Substitution2: "'sups' Superscript in Latin lookup 15-1" uni00B9
Substitution2: "'subs' Subscript in Latin lookup 14-1" uni2081
Substitution2: "'numr' Numerators in Latin lookup 13-1" one.numr
Substitution2: "'dnom' Denominators in Latin lookup 12-1" one.dnom
Substitution2: "'tnum' Tabular Numbers in Latin lookup 11-1" one.tabl
EndChar

StartChar: oslash
Encoding: 248 248 288
GlifName: oslash
Width: 601
VWidth: 0
GlyphClass: 2
Flags: HW
LayerCount: 2
Fore
SplineSet
598.274414062 546 m 257
 653.6953125 486 l 257
 93.2412109375 -44 l 257
 37.8212890625 16 l 257
 598.274414062 546 l 257
74 217 m 0
 74 392 196 520 361 520 c 0
 511 520 613 431 613 287 c 0
 613 112 491 -18 327 -18 c 0
 175 -18 74 75 74 217 c 0
431 281 m 0
 431 331 403.307692308 360 356 360 c 0
 299.269662921 360 257 301 257 222 c 4
 257 171 284.692307692 142 332 142 c 0
 387.617977528 142 431 203 431 281 c 0
EndSplineSet
EndChar

StartChar: p
Encoding: 112 112 290
GlifName: p
Width: 608
VWidth: 0
GlyphClass: 2
Flags: HW
LayerCount: 2
Fore
SplineSet
132.564453125 500 m 257
 323.885742188 500 l 257
 204.526367188 -163 l 257
 14.130859375 -163 l 257
 132.564453125 500 l 257
230.552308831 183.105427724 m 0
 230.552308831 366.453651569 330.784987565 513.971124734 455.363339015 513.971124734 c 0
 558.972658408 513.971124734 625.326171875 422.190429688 625.326171875 294.4921875 c 0
 625.326171875 112.69140625 521.775390625 -16.3671875 392.88671875 -16.3671875 c 0
 292.560546875 -16.3671875 230.552308831 55.5004590993 230.552308831 183.105427724 c 0
431.936523438 281.080078125 m 0
 431.936523438 331.268554688 408.30859375 360.319335938 367.486328125 360.319335938 c 0
 316.25390625 360.319335938 277.915039062 301.280273438 277.915039062 222.38671875 c 0
 277.915039062 171.750976562 301.676757812 142.552734375 342.884765625 142.552734375 c 0
 393.182617188 142.552734375 431.936523438 202.837890625 431.936523438 281.080078125 c 0
EndSplineSet
Substitution2: "'cv05' Character Variants 05 in Latin lookup 20-1" p.cv05
EndChar

StartChar: parenleft
Encoding: 40 40 291
GlifName: parenleft
Width: 360
VWidth: 0
GlyphClass: 2
Flags: HW
LayerCount: 2
Fore
SplineSet
321.372070312 -134 m 261
 130.372070312 -134 l 261
 70.1259765625 -56 44.04296875 108 73.8427734375 277 c 260
 103.641601562 446 187.559570312 610 275.3125 688 c 261
 466.3125 688 l 261
 366.325195312 603 298.581054688 457 266.842773438 277 c 260
 235.103515625 97 251.360351562 -49 321.372070312 -134 c 261
EndSplineSet
Substitution2: "'cv05' Character Variants 05 in Latin lookup 20-1" parenleft.cv05
Substitution2: "'sups' Superscript in Latin lookup 15-1" uni207D
Substitution2: "'subs' Subscript in Latin lookup 14-1" uni208D
EndChar

StartChar: parenright
Encoding: 41 41 292
GlifName: parenright
Width: 360
VWidth: 0
GlyphClass: 2
Flags: HW
LayerCount: 2
Fore
SplineSet
136.3125 688 m 257
 327.3125 688 l 257
 387.559570312 610 413.641601562 446 383.842773438 277 c 256
 354.04296875 108 270.125976562 -56 182.372070312 -134 c 257
 -8.6279296875 -134 l 257
 91.3603515625 -49 159.103515625 97 190.842773438 277 c 256
 222.581054688 457 206.325195312 603 136.3125 688 c 257
EndSplineSet
Substitution2: "'cv05' Character Variants 05 in Latin lookup 20-1" parenright.cv05
Substitution2: "'sups' Superscript in Latin lookup 15-1" uni207E
Substitution2: "'subs' Subscript in Latin lookup 14-1" uni208E
EndChar

StartChar: percent
Encoding: 37 37 293
GlifName: percent
Width: 1031
VWidth: 0
GlyphClass: 2
Flags: HW
LayerCount: 2
Fore
SplineSet
648 160 m 0
 648 297 740 398 863 398 c 0
 974 398 1047 328 1047 220 c 0
 1047 83 955 -20 832 -20 c 0
 721 -20 648 51 648 160 c 0
905 217 m 0
 905 256 888 278 859 278 c 0
 820 278 791 228 791 162 c 0
 791 123 808 100 837 100 c 0
 875 100 905 152 905 217 c 0
682 650 m 257
 842 650 l 257
 464 0 l 257
 304 0 l 257
 682 650 l 257
98 432 m 0
 98 569 190 670 313 670 c 0
 424 670 497 600 497 492 c 0
 497 355 405 252 282 252 c 0
 171 252 98 323 98 432 c 0
355 489 m 0
 355 528 338 550 309 550 c 0
 270 550 241 500 241 434 c 0
 241 395 258 372 287 372 c 0
 325 372 355 424 355 489 c 0
EndSplineSet
Substitution2: "'cv05' Character Variants 05 in Latin lookup 20-1" percent.cv05
EndChar

StartChar: period
Encoding: 46 46 294
GlifName: period
Width: 276
VWidth: 0
GlyphClass: 2
Flags: HW
LayerCount: 2
Fore
SplineSet
70.736328125 197 m 257
 274.736328125 197 l 257
 240 0 l 257
 36 0 l 257
 70.736328125 197 l 257
EndSplineSet
Substitution2: "'cv05' Character Variants 05 in Latin lookup 20-1" period.cv05
Substitution2: "'tnum' Tabular Numbers in Latin lookup 11-1" period.tabl
Substitution2: "ss03StyleSet3inLatinlookup2 subtable" period.ss03
EndChar

StartChar: period.ss03
Encoding: 65589 -1 295
GlifName: period.ss03
Width: 276
VWidth: 0
GlyphClass: 2
Flags: HW
LayerCount: 2
Fore
SplineSet
45 97 m 260
 45 157 93 205 153 205 c 260
 213 205 261 157 261 97 c 260
 261 37 213 -11 153 -11 c 260
 93 -11 45 37 45 97 c 260
EndSplineSet
Substitution2: "'tnum' Tabular Numbers in Latin lookup 11-1" period.ss03.tabl
EndChar

StartChar: periodcentered
Encoding: 183 183 296
GlifName: periodcentered
Width: 276
VWidth: 0
GlyphClass: 2
Flags: HW
LayerCount: 2
Fore
SplineSet
113.0546875 437 m 261
 317.0546875 437 l 261
 282.318359375 240 l 261
 78.318359375 240 l 261
 113.0546875 437 l 261
EndSplineSet
Substitution2: "ss03StyleSet3inLatinlookup2 subtable" periodcentered.ss03
EndChar

StartChar: periodcentered.ss03
Encoding: 65590 -1 297
GlifName: periodcentered.ss03
Width: 276
VWidth: 0
GlyphClass: 2
Flags: W
LayerCount: 2
Fore
SplineSet
30 347 m 256
 30 407 78 455 138 455 c 256
 198 455 246 407 246 347 c 256
 246 287 198 239 138 239 c 256
 78 239 30 287 30 347 c 256
EndSplineSet
EndChar

StartChar: perthousand
Encoding: 8240 8240 298
GlifName: perthousand
Width: 1460
VWidth: 0
GlyphClass: 2
Flags: W
LayerCount: 2
Fore
SplineSet
1032 190 m 256
 1032 315 1111 398 1230 398 c 256
 1348 398 1427 315 1427 190 c 256
 1427 64 1348 -20 1230 -20 c 256
 1111 -20 1032 64 1032 190 c 256
1284 190 m 256
 1284 246 1264 278 1230 278 c 256
 1195 278 1175 246 1175 190 c 256
 1175 133 1195 100 1230 100 c 256
 1264 100 1284 133 1284 190 c 256
603 190 m 256
 603 315 682 398 801 398 c 256
 919 398 998 315 998 190 c 256
 998 64 919 -20 801 -20 c 256
 682 -20 603 64 603 190 c 256
855 190 m 256
 855 246 835 278 801 278 c 256
 766 278 746 246 746 190 c 256
 746 133 766 100 801 100 c 256
 835 100 855 133 855 190 c 256
569 650 m 257
 729 650 l 257
 465 0 l 257
 305 0 l 257
 569 650 l 257
33 462 m 256
 33 587 112 670 231 670 c 256
 349 670 428 587 428 462 c 256
 428 336 349 252 231 252 c 256
 112 252 33 336 33 462 c 256
285 462 m 256
 285 518 265 550 231 550 c 256
 196 550 176 518 176 462 c 256
 176 405 196 372 231 372 c 256
 265 372 285 405 285 462 c 256
EndSplineSet
EndChar

StartChar: plus
Encoding: 43 43 299
GlifName: plus
Width: 588
VWidth: 0
GlyphClass: 2
Flags: HW
LayerCount: 2
Fore
SplineSet
448.53125 400 m 261
 633.53125 400 l 261
 603.908203125 232 l 261
 418.908203125 232 l 261
 386.287109375 47 l 261
 218.287109375 47 l 261
 250.908203125 232 l 261
 65.908203125 232 l 261
 95.53125 400 l 261
 280.53125 400 l 261
 313.151367188 585 l 261
 481.151367188 585 l 261
 448.53125 400 l 261
EndSplineSet
Substitution2: "'cv05' Character Variants 05 in Latin lookup 20-1" plus.cv05
Substitution2: "'sups' Superscript in Latin lookup 15-1" uni207A
Substitution2: "'subs' Subscript in Latin lookup 14-1" uni208A
Substitution2: "'tnum' Tabular Numbers in Latin lookup 11-1" plus.tabl
EndChar

StartChar: q
Encoding: 113 113 300
GlifName: q
Width: 608
VWidth: 0
GlyphClass: 2
Flags: HW
LayerCount: 2
Fore
SplineSet
655.439453125 500 m 257
 464.439453125 500 l 257
 347.435546875 -163 l 257
 538.435546875 -163 l 257
 655.439453125 500 l 257
466 313 m 4
 466 446.478515625 407.385742188 526 309 526 c 0
 177.083984375 526 72 384.114257812 72 206 c 0
 72 72.1259765625 132.908203125 -11 231 -11 c 0
 360.915039062 -11 466 133.8828125 466 313 c 4
266 228 m 0
 266 303.915039062 305.939453125 360 360 360 c 0
 399.03515625 360 420 329.950195312 420 274 c 0
 420 197.676757812 380.772460938 142 327 142 c 0
 287.493164062 142 266 172.30078125 266 228 c 0
EndSplineSet
Substitution2: "'cv05' Character Variants 05 in Latin lookup 20-1" q.cv05
EndChar

StartChar: question
Encoding: 63 63 301
GlifName: question
Width: 587
VWidth: 0
GlyphClass: 2
Flags: HW
LayerCount: 2
Fore
SplineSet
238 200 m 261
 267 301 325 340 372 372 c 4
 410 398 440 418 440 465 c 4
 440 493 420 510 387 510 c 260
 346 510 315 481 305 434 c 261
 112 434 l 261
 145 567 262 658 401 658 c 260
 546 658 635 591 635 488 c 4
 635 399 595 354 549 319 c 4
 501 282 447 256 428 200 c 261
 238 200 l 261
400 0 m 261
 196 0 l 261
 222 147 l 261
 426 147 l 261
 400 0 l 261
EndSplineSet
Substitution2: "'cv05' Character Variants 05 in Latin lookup 20-1" question.cv05
Substitution2: "ss03StyleSet3inLatinlookup2 subtable" question.ss03
EndChar

StartChar: question.ss03
Encoding: 65591 -1 302
GlifName: question.ss03
Width: 587
VWidth: 0
GlyphClass: 2
Flags: W
LayerCount: 2
Fore
SplineSet
190 87 m 256
 190 141 238 185 298 185 c 256
 358 185 406 141 406 87 c 256
 406 33 358 -11 298 -11 c 256
 238 -11 190 33 190 87 c 256
203 220 m 257
 212 291 246 327 280 354 c 256
 319 385 359 405 359 454 c 256
 359 490 335 511 297 511 c 256
 256 511 230 482 228 435 c 257
 35 435 l 257
 45 567 146 658 285 658 c 256
 446 658 552 577 552 454 c 256
 552 372 513 338 474 310 c 256
 438 285 403 265 393 220 c 257
 203 220 l 257
EndSplineSet
EndChar

StartChar: questiondown
Encoding: 191 191 303
GlifName: questiondown
Width: 587
VWidth: 0
GlyphClass: 2
Flags: HW
LayerCount: 2
Fore
SplineSet
440 300 m 257
 411 199 353 160 306 128 c 0
 268 102 238 82 238 35 c 0
 238 7 258 -10 291 -10 c 256
 332 -10 363 19 373 66 c 257
 566 66 l 257
 533 -67 416 -158 277 -158 c 256
 132 -158 43 -91 43 12 c 0
 43 101 83 146 129 181 c 0
 177 218 231 244 250 300 c 257
 440 300 l 257
278 500 m 257
 482 500 l 257
 456 353 l 257
 252 353 l 257
 278 500 l 257
EndSplineSet
Substitution2: "ss03StyleSet3inLatinlookup2 subtable" questiondown.ss03
EndChar

StartChar: questiondown.ss03
Encoding: 65592 -1 304
GlifName: questiondown.ss03
Width: 587
VWidth: 0
GlyphClass: 2
Flags: W
LayerCount: 2
Fore
SplineSet
397 413 m 256
 397 359 349 315 289 315 c 256
 229 315 181 359 181 413 c 256
 181 467 229 511 289 511 c 256
 349 511 397 467 397 413 c 256
384 280 m 257
 375 209 340.988 173.016 307 146 c 256
 268 115 228 95 228 46 c 256
 228 10 252 -11 290 -11 c 256
 331 -11 357 18 359 65 c 257
 552 65 l 257
 542 -67 441 -158 302 -158 c 256
 141 -158 35 -77 35 46 c 256
 35 128 73.5657 162.615 113 190 c 256
 149 215 184 235 194 280 c 257
 384 280 l 257
EndSplineSet
EndChar

StartChar: quotedbl
Encoding: 34 34 305
GlifName: quotedbl
Width: 492
VWidth: 0
GlyphClass: 2
Flags: HW
LayerCount: 2
Fore
SplineSet
400.428710938 700 m 257
 570.428710938 700 l 257
 497.53125 400 l 257
 347.53125 400 l 257
 400.428710938 700 l 257
168.428710938 700 m 257
 338.428710938 700 l 257
 265.53125 400 l 257
 115.53125 400 l 257
 168.428710938 700 l 257
EndSplineSet
Substitution2: "'cv05' Character Variants 05 in Latin lookup 20-1" quotedbl.cv05
EndChar

StartChar: quotedblbase
Encoding: 8222 8222 306
GlifName: quotedblbase
Width: 551
VWidth: 0
GlyphClass: 2
Flags: HW
LayerCount: 2
Fore
SplineSet
70.736328125 197 m 257
 274.736328125 197 l 257
 240 0 l 257
 129.379882812 -185 l 257
 -1.6201171875 -185 l 257
 156 0 l 257
 36 0 l 257
 70.736328125 197 l 257
346.736328125 197 m 257
 550.736328125 197 l 257
 516 0 l 257
 405.379882812 -185 l 257
 274.379882812 -185 l 257
 432 0 l 257
 312 0 l 257
 346.736328125 197 l 257
EndSplineSet
Substitution2: "ss03StyleSet3inLatinlookup2 subtable" quotedblbase.ss03
EndChar

StartChar: quotedblbase.ss03
Encoding: 65593 -1 307
GlifName: quotedblbase.ss03
Width: 551
VWidth: 0
GlyphClass: 2
Flags: W
LayerCount: 2
Fore
SplineSet
30 108 m 256
 30 168 78 216 138 216 c 256
 198 216 246 168 246 108 c 258
 246 -14 l 258
 246 -108.565 191 -164 97 -164 c 258
 45 -164 l 257
 45 -76 l 257
 66 -76 l 258
 128 -76 156 -55.3574 156 -8 c 258
 156 1 l 257
 150 0 144 0 138 0 c 256
 78 0 30 48 30 108 c 256
305 108 m 256
 305 168 353 216 413 216 c 256
 473 216 521 168 521 108 c 258
 521 -14 l 258
 521 -108.565 466 -164 372 -164 c 258
 320 -164 l 257
 320 -76 l 257
 341 -76 l 258
 403 -76 431 -55.3574 431 -8 c 258
 431 1 l 257
 425 0 419 0 413 0 c 256
 353 0 305 48 305 108 c 256
EndSplineSet
EndChar

StartChar: quotedblleft
Encoding: 8220 8220 308
GlifName: quotedblleft
Width: 551
VWidth: 0
GlyphClass: 2
Flags: HW
LayerCount: 2
Fore
SplineSet
567.072265625 318 m 257
 363.072265625 318 l 257
 397.80859375 515 l 257
 508.428710938 700 l 257
 639.428710938 700 l 257
 481.80859375 515 l 257
 601.80859375 515 l 257
 567.072265625 318 l 257
291.072265625 318 m 257
 87.072265625 318 l 257
 121.80859375 515 l 257
 232.428710938 700 l 257
 363.428710938 700 l 257
 205.80859375 515 l 257
 325.80859375 515 l 257
 291.072265625 318 l 257
EndSplineSet
Substitution2: "ss03StyleSet3inLatinlookup2 subtable" quotedblleft.ss03
EndChar

StartChar: quotedblleft.ss03
Encoding: 65594 -1 309
GlifName: quotedblleft.ss03
Width: 551
VWidth: 0
GlyphClass: 2
Flags: W
LayerCount: 2
Fore
SplineSet
521 428 m 256
 521 368 473 320 413 320 c 256
 353 320 305 368 305 428 c 258
 305 550 l 258
 305 644.565 360 700 454 700 c 258
 506 700 l 257
 506 612 l 257
 485 612 l 258
 423 612 395 591.357 395 544 c 258
 395 535 l 257
 401 536 407 536 413 536 c 256
 473 536 521 488 521 428 c 256
246 428 m 256
 246 368 198 320 138 320 c 256
 78 320 30 368 30 428 c 258
 30 550 l 258
 30 644.565 85 700 179 700 c 258
 231 700 l 257
 231 612 l 257
 210 612 l 258
 148 612 120 591.357 120 544 c 258
 120 535 l 257
 126 536 132 536 138 536 c 256
 198 536 246 488 246 428 c 256
EndSplineSet
EndChar

StartChar: quotedblright
Encoding: 8221 8221 310
GlifName: quotedblright
Width: 551
VWidth: 0
GlyphClass: 2
Flags: HW
LayerCount: 2
Fore
SplineSet
159.428710938 700 m 257
 363.428710938 700 l 257
 328.692382812 503 l 257
 218.072265625 318 l 257
 87.072265625 318 l 257
 244.692382812 503 l 257
 124.692382812 503 l 257
 159.428710938 700 l 257
435.428710938 700 m 257
 639.428710938 700 l 257
 604.692382812 503 l 257
 494.072265625 318 l 257
 363.072265625 318 l 257
 520.692382812 503 l 257
 400.692382812 503 l 257
 435.428710938 700 l 257
EndSplineSet
Substitution2: "ss03StyleSet3inLatinlookup2 subtable" quotedblright.ss03
EndChar

StartChar: quotedblright.ss03
Encoding: 65595 -1 311
GlifName: quotedblright.ss03
Width: 551
VWidth: 0
GlyphClass: 2
Flags: W
LayerCount: 2
Fore
SplineSet
30 592 m 256
 30 652 78 700 138 700 c 256
 198 700 246 652 246 592 c 258
 246 470 l 258
 246 375.435 191 320 97 320 c 258
 45 320 l 257
 45 408 l 257
 66 408 l 258
 128 408 156 428.643 156 476 c 258
 156 485 l 257
 150 484 144 484 138 484 c 256
 78 484 30 532 30 592 c 256
305 592 m 256
 305 652 353 700 413 700 c 256
 473 700 521 652 521 592 c 258
 521 470 l 258
 521 375.435 466 320 372 320 c 258
 320 320 l 257
 320 408 l 257
 341 408 l 258
 403 408 431 428.643 431 476 c 258
 431 485 l 257
 425 484 419 484 413 484 c 256
 353 484 305 532 305 592 c 256
EndSplineSet
EndChar

StartChar: quoteleft
Encoding: 8216 8216 312
GlifName: quoteleft
Width: 276
VWidth: 0
GlyphClass: 2
Flags: HW
LayerCount: 2
Fore
SplineSet
291.072265625 318 m 257
 87.072265625 318 l 257
 121.80859375 515 l 257
 232.428710938 700 l 257
 363.428710938 700 l 257
 205.80859375 515 l 257
 325.80859375 515 l 257
 291.072265625 318 l 257
EndSplineSet
Substitution2: "ss03StyleSet3inLatinlookup2 subtable" quoteleft.ss03
EndChar

StartChar: quoteleft.ss03
Encoding: 65596 -1 313
GlifName: quoteleft.ss03
Width: 276
VWidth: 0
GlyphClass: 2
Flags: W
LayerCount: 2
Fore
SplineSet
246 428 m 256
 246 368 198 320 138 320 c 256
 78 320 30 368 30 428 c 258
 30 550 l 258
 30 644.565 85 700 179 700 c 258
 231 700 l 257
 231 612 l 257
 210 612 l 258
 148 612 120 591.357 120 544 c 258
 120 535 l 257
 126 536 132 536 138 536 c 256
 198 536 246 488 246 428 c 256
EndSplineSet
EndChar

StartChar: quotereversed
Encoding: 8219 8219 314
GlifName: quotereversed
Width: 276
VWidth: 0
GlyphClass: 2
Flags: HW
LayerCount: 2
Fore
SplineSet
358.428710938 700 m 257
 323.692382812 503 l 257
 203.692382812 503 l 257
 296.072265625 318 l 257
 165.072265625 318 l 257
 119.692382812 503 l 257
 154.428710938 700 l 257
 358.428710938 700 l 257
EndSplineSet
Substitution2: "ss03StyleSet3inLatinlookup2 subtable" quotereversed.ss03
EndChar

StartChar: quotereversed.ss03
Encoding: 65597 -1 315
GlifName: quotereversed.ss03
Width: 276
VWidth: 0
GlyphClass: 2
Flags: W
LayerCount: 2
Fore
SplineSet
246 592 m 256
 246 532 198 484 138 484 c 256
 132 484 126 484 120 485 c 257
 120 476 l 258
 120 428.643 148 408 210 408 c 258
 231 408 l 257
 231 320 l 257
 179 320 l 258
 85 320 30 375.435 30 470 c 258
 30 592 l 258
 30 652 78 700 138 700 c 256
 198 700 246 652 246 592 c 256
EndSplineSet
EndChar

StartChar: quoteright
Encoding: 8217 8217 316
GlifName: quoteright
Width: 276
VWidth: 0
GlyphClass: 2
Flags: HW
LayerCount: 2
Fore
SplineSet
159.428710938 700 m 257
 363.428710938 700 l 257
 328.692382812 503 l 257
 218.072265625 318 l 257
 87.072265625 318 l 257
 244.692382812 503 l 257
 124.692382812 503 l 257
 159.428710938 700 l 257
EndSplineSet
Substitution2: "ss03StyleSet3inLatinlookup2 subtable" quoteright.ss03
EndChar

StartChar: quoteright.ss03
Encoding: 65598 -1 317
GlifName: quoteright.ss03
Width: 276
VWidth: 0
GlyphClass: 2
Flags: W
LayerCount: 2
Fore
SplineSet
30 592 m 256
 30 652 78 700 138 700 c 256
 198 700 246 652 246 592 c 258
 246 470 l 258
 246 375.435 191 320 97 320 c 258
 45 320 l 257
 45 408 l 257
 66 408 l 258
 128 408 156 428.643 156 476 c 258
 156 485 l 257
 150 484 144 484 138 484 c 256
 78 484 30 532 30 592 c 256
EndSplineSet
EndChar

StartChar: quotesinglbase
Encoding: 8218 8218 318
GlifName: quotesinglbase
Width: 276
VWidth: 0
GlyphClass: 2
Flags: HW
LayerCount: 2
Fore
SplineSet
70.736328125 197 m 257
 274.736328125 197 l 257
 240 0 l 257
 129.379882812 -185 l 257
 -1.6201171875 -185 l 257
 156 0 l 257
 36 0 l 257
 70.736328125 197 l 257
EndSplineSet
Substitution2: "ss03StyleSet3inLatinlookup2 subtable" quotesinglbase.ss03
EndChar

StartChar: quotesinglbase.ss03
Encoding: 65599 -1 319
GlifName: quotesinglbase.ss03
Width: 276
VWidth: 0
GlyphClass: 2
Flags: W
LayerCount: 2
Fore
SplineSet
30 109 m 256
 30 169 78 217 138 217 c 256
 198 217 246 169 246 109 c 258
 246 -13 l 258
 246 -107.565 191 -163 97 -163 c 258
 45 -163 l 257
 45 -75 l 257
 66 -75 l 258
 128 -75 156 -54.3574 156 -7 c 258
 156 2 l 257
 150 1 144 1 138 1 c 256
 78 1 30 49 30 109 c 256
EndSplineSet
EndChar

StartChar: quotesingle
Encoding: 39 39 320
GlifName: quotesingle
Width: 260
VWidth: 0
GlyphClass: 2
Flags: HW
LayerCount: 2
Fore
SplineSet
168.428710938 700 m 257
 338.428710938 700 l 257
 265.53125 400 l 257
 115.53125 400 l 257
 168.428710938 700 l 257
EndSplineSet
Substitution2: "'cv05' Character Variants 05 in Latin lookup 20-1" quotesingle.cv05
EndChar

StartChar: r
Encoding: 114 114 321
GlifName: r
Width: 430
VWidth: 0
GlyphClass: 2
Flags: HW
AnchorPoint: "bottom1" 143.036 0 basechar 0
AnchorPoint: "top1" 351.779 560 basechar 0
LayerCount: 2
Fore
SplineSet
453.755859375 316 m 257
 414.755859375 316 l 258
 344.755859375 316 283.9375 283 275.649414062 236 c 257
 237.708007812 242 l 257
 266.978515625 408 369.963867188 510 447.963867188 510 c 258
 487.963867188 510 l 257
 453.755859375 316 l 257
132.200195312 500 m 257
 322.200195312 500 l 257
 234.036132812 0 l 257
 44.0361328125 0 l 257
 132.200195312 500 l 257
EndSplineSet
Substitution2: "'cv05' Character Variants 05 in Latin lookup 20-1" r.cv05
EndChar

StartChar: s
Encoding: 115 115 324
GlifName: s
Width: 566
VWidth: 0
GlyphClass: 2
Flags: HW
AnchorPoint: "bottom1" 295 0 basechar 0
AnchorPoint: "top1" 372 559 basechar 0
LayerCount: 2
Fore
SplineSet
346 168 m 258
 244 187 l 258
 149.239015327 204.651555968 96 260 96 340 c 0
 96 454 178 519 323 519 c 0
 488 519 578 458 578 346 c 257
 397 346 l 257
 397 373 373 390 334 390 c 0
 306 390 290 377 290 356 c 0
 290 343 298 336 313 333 c 258
 425 313 l 258
 515.264524104 296.881334981 559 248 559 167 c 0
 559 46 481 -17 330 -17 c 0
 162 -17 60 49 60 158 c 257
 252 158 l 257
 252 127 279 108 322 108 c 0
 354 108 373 121 373 142 c 0
 373 155 364 164 346 168 c 258
EndSplineSet
Substitution2: "'cv05' Character Variants 05 in Latin lookup 20-1" s.cv05
EndChar

StartChar: second
Encoding: 8243 8243 329
GlifName: second
Width: 645
VWidth: -50
GlyphClass: 2
Flags: HW
LayerCount: 2
Fore
SplineSet
735.612304688 650 m 257
 510.346679688 450 l 257
 360.346679688 450 l 257
 525.612304688 650 l 257
 735.612304688 650 l 257
479.612304688 650 m 257
 254.346679688 450 l 257
 104.346679688 450 l 257
 269.612304688 650 l 257
 479.612304688 650 l 257
EndSplineSet
EndChar

StartChar: semicolon
Encoding: 59 59 330
GlifName: semicolon
Width: 276
VWidth: 0
GlyphClass: 2
Flags: HW
LayerCount: 2
Fore
SplineSet
123.987304688 499 m 257
 327.987304688 499 l 257
 293.250976562 302 l 257
 89.2509765625 302 l 257
 123.987304688 499 l 257
70.736328125 197 m 257
 274.736328125 197 l 257
 240 0 l 257
 129.379882812 -185 l 257
 -1.6201171875 -185 l 257
 156 0 l 257
 36 0 l 257
 70.736328125 197 l 257
EndSplineSet
Substitution2: "'cv05' Character Variants 05 in Latin lookup 20-1" semicolon.cv05
Substitution2: "ss03StyleSet3inLatinlookup2 subtable" semicolon.ss03
EndChar

StartChar: semicolon.ss03
Encoding: 65600 -1 331
GlifName: semicolon.ss03
Width: 276
VWidth: 0
GlyphClass: 2
Flags: HW
LayerCount: 2
Fore
SplineSet
103 404 m 256
 103 464 151 512 211 512 c 256
 271 512 319 464 319 404 c 256
 319 344 271 296 211 296 c 256
 151 296 103 344 103 404 c 256
35 97 m 256
 35 157 83 205 143 205 c 256
 203 205 251 157 251 97 c 258
 251 -25 l 258
 251 -112 196 -163 102 -163 c 258
 50 -163 l 257
 50 -75 l 257
 71 -75 l 258
 133 -75 161 -58 161 -19 c 258
 161 -10 l 257
 155 -11 149 -11 143 -11 c 256
 83 -11 35 37 35 97 c 256
EndSplineSet
EndChar

StartChar: seven
Encoding: 55 55 332
GlifName: seven
Width: 582
VWidth: 0
GlyphClass: 2
Flags: HW
LayerCount: 2
Fore
SplineSet
358 0 m 261
 395.557617188 213 468.772460938 356 628.462890625 462 c 261
 661.612304688 650 l 261
 149.612304688 650 l 261
 118.2265625 472 l 261
 419.2265625 472 l 261
 288.59375 372 174.905273438 249 131 0 c 261
 358 0 l 261
EndSplineSet
Substitution2: "'cv05' Character Variants 05 in Latin lookup 20-1" seven.cv05
Substitution2: "'cv04' Character Variants 04 in Latin lookup 19-1" uni2466
Substitution2: "'cv03' Character Variants 03 in Latin lookup 18-1" uni277C
Substitution2: "'cv02' Character Variants 02 in Latin lookup 17-1" seven.cv02
Substitution2: "'cv01' Character Variants 01 in Latin lookup 16-1" seven.cv01
Substitution2: "'sups' Superscript in Latin lookup 15-1" uni2077
Substitution2: "'subs' Subscript in Latin lookup 14-1" uni2087
Substitution2: "'numr' Numerators in Latin lookup 13-1" seven.numr
Substitution2: "'dnom' Denominators in Latin lookup 12-1" seven.dnom
Substitution2: "'tnum' Tabular Numbers in Latin lookup 11-1" seven.tabl
EndChar

StartChar: six
Encoding: 54 54 333
GlifName: six
Width: 617
VWidth: 0
GlyphClass: 2
Flags: HW
LayerCount: 2
Fore
SplineSet
85.5540803377 245.028701955 m 4
 85.5540803377 495.984388234 226.798230485 660 422.375976562 660 c 260
 569.869714974 660 656.697265625 589.225115478 656.697265625 469 c 261
 463.697265625 469 l 261
 463.697265625 501.340351034 445.400991027 520 413.690429688 520 c 260
 357.490180139 520 308.699677983 457.67030334 292.359375 365 c 260
 291.266144135 358.797958971 290.79053658 356.101020514 290.243164062 353 c 261
 322.916379095 397.642898404 386.573049596 426 454.115234375 426 c 260
 555.648258711 426 623.88671875 354.476519471 623.88671875 248.055664062 c 4
 623.88671875 104.031162532 512.686908359 -8 344.58984375 -8 c 260
 181.694613274 -8 85.5540803377 85.9110257739 85.5540803377 245.028701955 c 4
285.70668167 194.462428187 m 4
 285.70668167 157.442413365 309.465904482 133 345.451171875 133 c 260
 391.404523619 133 427.531978099 174.473850552 427.531978099 227.227704098 c 4
 427.531978099 263.232506923 405.950331217 285 370.252929688 285 c 260
 322.840934616 285 285.70668167 245.234248453 285.70668167 194.462428187 c 4
EndSplineSet
Substitution2: "'cv05' Character Variants 05 in Latin lookup 20-1" six.cv05
Substitution2: "'cv04' Character Variants 04 in Latin lookup 19-1" uni2465
Substitution2: "'cv03' Character Variants 03 in Latin lookup 18-1" uni277B
Substitution2: "'cv02' Character Variants 02 in Latin lookup 17-1" six.cv02
Substitution2: "'cv01' Character Variants 01 in Latin lookup 16-1" six.cv01
Substitution2: "'sups' Superscript in Latin lookup 15-1" uni2076
Substitution2: "'subs' Subscript in Latin lookup 14-1" uni2086
Substitution2: "'numr' Numerators in Latin lookup 13-1" six.numr
Substitution2: "'dnom' Denominators in Latin lookup 12-1" six.dnom
Substitution2: "'tnum' Tabular Numbers in Latin lookup 11-1" six.tabl
EndChar

StartChar: slash
Encoding: 47 47 334
GlifName: slash
Width: 500
VWidth: 0
GlyphClass: 2
Flags: HW
LayerCount: 2
Fore
SplineSet
361.612304688 650 m 257
 581.612304688 650 l 257
 253 0 l 261
 33 0 l 257
 361.612304688 650 l 257
EndSplineSet
Substitution2: "'cv05' Character Variants 05 in Latin lookup 20-1" slash.cv05
Substitution2: "'tnum' Tabular Numbers in Latin lookup 11-1" slash.tabl
EndChar

StartChar: t
Encoding: 116 116 336
GlifName: t
Width: 378
VWidth: 0
GlyphClass: 2
Flags: HW
HStem: 0 21G<230.5 355> 352 148<23 355>
VStem: 94 190<162.555 630>
AnchorPoint: "top2" 411 528 basechar 0
AnchorPoint: "bottom1" 296 0 basechar 0
LayerCount: 2
Fore
SplineSet
111 500 m 257
 443 500 l 257
 417 352 l 257
 85 352 l 257
 111 500 l 257
382 158 m 257
 354 0 l 257
 292 0 l 258
 167 0 105 66 125 178 c 258
 205 630 l 257
 395 630 l 257
 319 204 l 258
 313 172 323 158 351 158 c 258
 382 158 l 257
EndSplineSet
Substitution2: "'cv05' Character Variants 05 in Latin lookup 20-1" t.cv05
Substitution2: "ss08StyleSet8inLatinlookup7 subtable" t.ss08
EndChar

StartChar: t.ss08
Encoding: 65601 -1 337
GlifName: t.ss08
Width: 378
VWidth: 0
GlyphClass: 2
Flags: HW
HStem: 0 21G<94 284> 352 148<23 355>
VStem: 94 190<0 630>
AnchorPoint: "bottom1" 194 0 basechar 0
AnchorPoint: "top2" 411.101 528 basechar 0
LayerCount: 2
Fore
SplineSet
111.163085938 500 m 261
 443.163085938 500 l 261
 417.067382812 352 l 261
 85.0673828125 352 l 261
 111.163085938 500 l 261
94 0 m 261
 205.0859375 630 l 261
 395.0859375 630 l 261
 284 0 l 261
 94 0 l 261
EndSplineSet
EndChar

StartChar: tbar
Encoding: 359 359 338
GlifName: tbar
Width: 378
VWidth: 0
GlyphClass: 2
Flags: HW
LayerCount: 2
Fore
SplineSet
78.1904296875 313 m 261
 410.190429688 313 l 261
 392.91015625 215 l 261
 60.91015625 215 l 261
 78.1904296875 313 l 261
111.163085938 500 m 257
 443.163085938 500 l 257
 418.830078125 362 l 257
 86.830078125 362 l 257
 111.163085938 500 l 257
382.859375 158 m 257
 355 0 l 257
 293 0 l 258
 168 0 105.637695312 66 125.385742188 178 c 258
 205.0859375 630 l 257
 395.0859375 630 l 257
 318.20703125 194 l 258
 313.791992188 168.95703125 323.859375 158 351.859375 158 c 258
 382.859375 158 l 257
EndSplineSet
Substitution2: "ss08StyleSet8inLatinlookup7 subtable" tbar.ss08
EndChar

StartChar: thorn
Encoding: 254 254 340
GlifName: thorn
Width: 608
VWidth: 0
GlyphClass: 2
Flags: HW
LayerCount: 2
Fore
SplineSet
167 700 m 257
 358 700 l 257
 207.493164062 -163 l 257
 16.4931640625 -163 l 257
 167 700 l 257
231 183 m 0
 231 367 331 514 455 514 c 0
 556 514 625 425 625 294 c 0
 625 117 526 -16 393 -16 c 0
 291 -16 231 58 231 183 c 0
432 281 m 0
 432 331 408 360 367 360 c 0
 316 360 278 301 278 222 c 0
 278 172 302 143 343 143 c 0
 393 143 432 203 432 281 c 0
EndSplineSet
EndChar

StartChar: three
Encoding: 51 51 341
GlifName: three
Width: 597
VWidth: 0
GlyphClass: 2
Flags: HW
LayerCount: 2
Fore
SplineSet
445 396 m 257
 421 260 l 257
 292 260 l 257
 316 396 l 257
 445 396 l 257
366 290 m 257
 385 396 l 257
 428 396 439 437 439 461 c 0
 439 491 421 509 389 509 c 256
 352 509 324 485 316 445 c 257
 123 445 l 261
 160 593 269.899328859 658 411 658 c 256
 545.837209302 658 634 586.914634146 634 484 c 0
 634 383.196078431 544.666666667 290 366 290 c 257
380 366 m 257
 514.377880184 366 596 302.883116883 596 204 c 0
 596 91.2545454545 489.329787234 -8 325 -8 c 256
 167.78600823 -8 72 74 72 210 c 257
 265 210 l 257
 265 166 287 143 329 143 c 256
 390 143 407 192 407 220 c 0
 407 246 391 260 361 260 c 257
 380 366 l 257
EndSplineSet
Substitution2: "'cv05' Character Variants 05 in Latin lookup 20-1" three.cv05
Substitution2: "'cv04' Character Variants 04 in Latin lookup 19-1" uni2462
Substitution2: "'cv03' Character Variants 03 in Latin lookup 18-1" uni2778
Substitution2: "'cv02' Character Variants 02 in Latin lookup 17-1" three.cv02
Substitution2: "'cv01' Character Variants 01 in Latin lookup 16-1" three.cv01
Substitution2: "'sups' Superscript in Latin lookup 15-1" uni00B3
Substitution2: "'subs' Subscript in Latin lookup 14-1" uni2083
Substitution2: "'numr' Numerators in Latin lookup 13-1" three.numr
Substitution2: "'dnom' Denominators in Latin lookup 12-1" three.dnom
Substitution2: "'tnum' Tabular Numbers in Latin lookup 11-1" three.tabl
EndChar

StartChar: tildecomb
Encoding: 771 771 342
GlifName: tildecomb
Width: 300
VWidth: 0
GlyphClass: 4
Flags: HW
AnchorPoint: "top1" 244.163 500 mark 0
LayerCount: 2
Fore
SplineSet
165.666015625 690 m 256
 220.666015625 690 247.315429688 671 273.494140625 655 c 256
 290.73046875 645 306.143554688 636 329.143554688 636 c 256
 365.143554688 636 389.317382812 654 394.607421875 684 c 257
 497.607421875 684 l 257
 476.448242188 564 411.458007812 496 317.458007812 496 c 256
 273.458007812 496 249.103515625 511 228.571289062 525 c 256
 209.864257812 538 193.979492188 550 169.979492188 550 c 256
 140.979492188 550 118.453125 530 113.163085938 500 c 257
 8.1630859375 500 l 257
 30.2041015625 625 84.666015625 690 165.666015625 690 c 256
EndSplineSet
EndChar

StartChar: two
Encoding: 50 50 343
GlifName: two
Width: 587
VWidth: 0
GlyphClass: 2
Flags: HW
LayerCount: 2
Fore
SplineSet
303 167 m 257
 580 167 l 257
 551 0 l 257
 37 0 l 257
 43 34 l 258
 86 279 225 336 326 370 c 0
 390 392 439 411 439 452 c 0
 439 484 418 501 379 501 c 0
 341 501 314 483 306 445 c 257
 111 445 l 257
 143 572 253 658 380 658 c 0
 529 658 632 575 632 459 c 0
 632 333 546 281 462 248 c 0
 390 219 318 204 303 167 c 257
EndSplineSet
Substitution2: "'cv05' Character Variants 05 in Latin lookup 20-1" two.cv05
Substitution2: "'cv04' Character Variants 04 in Latin lookup 19-1" uni2461
Substitution2: "'cv03' Character Variants 03 in Latin lookup 18-1" uni2777
Substitution2: "'cv02' Character Variants 02 in Latin lookup 17-1" two.cv02
Substitution2: "'cv01' Character Variants 01 in Latin lookup 16-1" two.cv01
Substitution2: "'sups' Superscript in Latin lookup 15-1" uni00B2
Substitution2: "'subs' Subscript in Latin lookup 14-1" uni2082
Substitution2: "'numr' Numerators in Latin lookup 13-1" two.numr
Substitution2: "'dnom' Denominators in Latin lookup 12-1" two.dnom
Substitution2: "'tnum' Tabular Numbers in Latin lookup 11-1" two.tabl
EndChar

StartChar: u
Encoding: 117 117 344
GlifName: u
Width: 596
VWidth: 0
GlyphClass: 2
Flags: HW
AnchorPoint: "top3" 453 500 basechar 0
AnchorPoint: "bottom1" 308 0 basechar 0
AnchorPoint: "bottom2" 556 0 basechar 0
AnchorPoint: "top1" 388 560 basechar 0
LayerCount: 2
Fore
SplineSet
274 230 m 258
 265 176 282 150 326 150 c 256
 366 150 396 178 403 225 c 257
 441 216 l 257
 415 64 307 -12 217 -12 c 256
 112 -12 58 100 77 207 c 258
 129 500 l 257
 320 500 l 257
 274 230 l 258
554 0 m 257
 363 0 l 257
 451 500 l 257
 641 500 l 257
 554 0 l 257
EndSplineSet
Substitution2: "'cv05' Character Variants 05 in Latin lookup 20-1" u.cv05
Substitution2: "ss10StyleSet10inLatinlookup9 subtable" u.ss10
EndChar

StartChar: u.ss10
Encoding: 65602 -1 345
GlifName: u.ss10
Width: 596
VWidth: 0
GlyphClass: 2
Flags: HW
HStem: -8 180<251.059 343.817> 480 20G<43 233 363 553>
VStem: 43 190<189.417 500> 363 190<189.417 500>
AnchorPoint: "bottom2" 363 0 basechar 0
AnchorPoint: "top3" 450 500 basechar 0
AnchorPoint: "top1" 392 560 basechar 0
AnchorPoint: "bottom1" 304 0 basechar 0
LayerCount: 2
Fore
SplineSet
128 500 m 257
 320 500 l 257
 277 258 l 258
 267.61295806 204.806762338 289.882794844 171.766684868 335.123406495 171.766684868 c 0
 371.930215192 171.766684868 396.507608705 197.87644933 405 246 c 258
 450 500 l 257
 640.232421875 500 l 257
 593 230 l 258
 567.734385843 85.5713310575 462.210294917 -8.18408670765 324.917793958 -8.18408670765 c 0
 158.451626497 -8.18408670765 60.2964686402 109.220468119 89 274 c 258
 128 500 l 257
EndSplineSet
EndChar

StartChar: underscore
Encoding: 95 95 355
GlifName: underscore
Width: 640
VWidth: 0
GlyphClass: 2
Flags: HW
LayerCount: 2
Fore
SplineSet
25 0 m 257
 615 0 l 257
 591.372070312 -134 l 257
 1.3720703125 -134 l 257
 25 0 l 257
EndSplineSet
Substitution2: "'cv05' Character Variants 05 in Latin lookup 20-1" underscore.cv05
EndChar

StartChar: uni0237
Encoding: 567 567 378
GlifName: uni0237
Width: 276
VWidth: 0
GlyphClass: 2
Flags: HW
HStem: 480 20<43 233 233 233>
VStem: 43 190<4 500>
AnchorPoint: "top1" 240.743 560 basechar 0
LayerCount: 2
Fore
SplineSet
-33.642578125 -32 m 257
 -2.642578125 -32 l 258
 25.357421875 -32 39.296875 -21 43.705078125 4 c 258
 131.163085938 500 l 257
 321.163085938 500 l 257
 232.647460938 -2 l 258
 210.783203125 -126 123.734375 -200 -1.265625 -200 c 258
 -63.265625 -200 l 257
 -33.642578125 -32 l 257
EndSplineSet
PickledDataWithLists: "(dp0
Vcom.fontlab.hintData\\u000d\\u000d\\u000d\\u000d\\u000d\\u000d\\u000d\\u000d\\u000d\\u000d\\u000d\\u000d\\u000d\\u000d\\u000d
p1
(dp2
Vhhints\\u000d\\u000d\\u000d\\u000d\\u000d\\u000d\\u000d\\u000d\\u000d\\u000d\\u000d\\u000d\\u000d\\u000d\\u000d
p3
(lp4
(dp5
Vposition\\u000d\\u000d\\u000d\\u000d\\u000d\\u000d\\u000d\\u000d\\u000d\\u000d\\u000d\\u000d\\u000d\\u000d\\u000d
p6
I480
sVwidth\\u000d\\u000d\\u000d\\u000d\\u000d\\u000d\\u000d\\u000d\\u000d\\u000d\\u000d\\u000d\\u000d\\u000d\\u000d
p7
I20
sasVvhints\\u000d\\u000d\\u000d\\u000d\\u000d\\u000d\\u000d\\u000d\\u000d\\u000d\\u000d\\u000d\\u000d\\u000d\\u000d
p8
(lp9
(dp10
g6
I43
sg7
I190
sass."
EndChar

StartChar: uni02BC
Encoding: 700 700 379
GlifName: uni02B_C_
Width: 233
VWidth: 0
GlyphClass: 2
Flags: HW
LayerCount: 2
Fore
SplineSet
152.428710938 700 m 257
 356.428710938 700 l 257
 316.049804688 471 l 258
 301.821289062 390.303710938 238.48046875 343 144.48046875 343 c 258
 92.48046875 343 l 257
 107.997070312 431 l 257
 128.997070312 431 l 258
 190.997070312 431 221.458984375 444.963867188 227.108398438 477 c 258
 231.692382812 503 l 257
 117.692382812 503 l 257
 152.428710938 700 l 257
EndSplineSet
EndChar

StartChar: uni0302
Encoding: 770 770 380
GlifName: uni0302
Width: 300
VWidth: 0
GlyphClass: 4
Flags: HW
AnchorPoint: "top1" 244.163 500 mark 0
LayerCount: 2
Fore
SplineSet
184.428710938 700 m 257
 364.428710938 700 l 257
 469.163085938 500 l 257
 309.163085938 500 l 257
 262.854492188 606 l 261
 189.163085938 500 l 257
 9.1630859375 500 l 257
 184.428710938 700 l 257
EndSplineSet
EndChar

StartChar: uni0304
Encoding: 772 772 381
GlifName: uni0304
Width: 300
VWidth: 0
GlyphClass: 4
Flags: HW
AnchorPoint: "top1" 244.163 500 mark 0
LayerCount: 2
Fore
SplineSet
83.9072265625 646 m 257
 443.907226562 646 l 257
 419.926757812 510 l 257
 59.9267578125 510 l 257
 83.9072265625 646 l 257
EndSplineSet
EndChar

StartChar: uni0306
Encoding: 774 774 382
GlifName: uni0306
Width: 300
VWidth: 0
GlyphClass: 4
Flags: HW
AnchorPoint: "top1" 244.163 500 mark 0
LayerCount: 2
Fore
SplineSet
495.431640625 683 m 257
 471.983613715 564.308982863 383.221962544 493 258.9296875 493 c 256
 126.986100814 493 42.9368721699 568.86461575 48.431640625 683 c 257
 206.431640625 683 l 257
 206.010979315 645.167884967 226.856151615 623 262.8515625 623 c 256
 297.347148781 623 324.636487461 644.954392673 337.431640625 683 c 257
 495.431640625 683 l 257
EndSplineSet
EndChar

StartChar: uni0307
Encoding: 775 775 383
GlifName: uni0307
Width: 300
VWidth: 0
GlyphClass: 4
Flags: HW
AnchorPoint: "top1" 244.163 500 mark 0
LayerCount: 2
Fore
SplineSet
173.900390625 697 m 257
 377.900390625 697 l 257
 343.163085938 500 l 257
 139.163085938 500 l 257
 173.900390625 697 l 257
EndSplineSet
Substitution2: "ss03StyleSet3inLatinlookup2 subtable" uni0307.ss03
EndChar

StartChar: uni0307.ss03
Encoding: 65614 -1 384
GlifName: uni0307.ss03
Width: 300
VWidth: 0
GlyphClass: 4
Flags: W
AnchorPoint: "top1" 156 500 mark 0
LayerCount: 2
Fore
SplineSet
47 602 m 256
 47 662 95 710 155 710 c 256
 215 710 263 662 263 602 c 256
 263 542 215 494 155 494 c 256
 95 494 47 542 47 602 c 256
EndSplineSet
EndChar

StartChar: uni0308
Encoding: 776 776 385
GlifName: uni0308
Width: 300
VWidth: 0
GlyphClass: 4
Flags: HW
AnchorPoint: "top1" 244.163 500 mark 0
LayerCount: 2
Fore
SplineSet
311.373046875 677 m 257
 495.373046875 677 l 257
 464.163085938 500 l 257
 280.163085938 500 l 257
 311.373046875 677 l 257
53.373046875 677 m 257
 237.373046875 677 l 257
 206.163085938 500 l 257
 22.1630859375 500 l 257
 53.373046875 677 l 257
EndSplineSet
Substitution2: "ss03StyleSet3inLatinlookup2 subtable" uni0308.ss03
EndChar

StartChar: uni0308.ss03
Encoding: 65615 -1 386
GlifName: uni0308.ss03
Width: 300
VWidth: 0
GlyphClass: 4
Flags: W
AnchorPoint: "top1" 156 500 mark 0
LayerCount: 2
Fore
SplineSet
-103 602 m 256
 -103 662 -55 710 5 710 c 256
 65 710 113 662 113 602 c 256
 113 542 65 494 5 494 c 256
 -55 494 -103 542 -103 602 c 256
187 602 m 256
 187 662 235 710 295 710 c 256
 355 710 403 662 403 602 c 256
 403 542 355 494 295 494 c 256
 235 494 187 542 187 602 c 256
EndSplineSet
EndChar

StartChar: uni030A
Encoding: 778 778 387
GlifName: uni030A_
Width: 300
VWidth: 0
GlyphClass: 4
Flags: HW
AnchorPoint: "top1" 244 500 mark 0
LayerCount: 2
Fore
SplineSet
216 642 m 0
 216 618 232 605 259 605 c 256
 294 605 317 629 317 664 c 0
 317 688 302 701 275 701 c 256
 240 701 216 677 216 642 c 0
437 676 m 4
 437 572.647668394 355.343434343 493 249 493 c 256
 154.846153846 493 96 545.858267717 96 630 c 0
 96 733.352331606 177.656565657 813 284 813 c 256
 378.153846154 813 437 760.141732283 437 676 c 4
EndSplineSet
EndChar

StartChar: uni030B
Encoding: 779 779 388
GlifName: uni030B_
Width: 300
VWidth: 0
GlyphClass: 4
Flags: HW
AnchorPoint: "top1" 244.163 500 mark 0
LayerCount: 2
Fore
SplineSet
624.428710938 700 m 257
 429.163085938 500 l 257
 279.163085938 500 l 257
 414.428710938 700 l 257
 624.428710938 700 l 257
374.428710938 700 m 257
 179.163085938 500 l 257
 29.1630859375 500 l 257
 164.428710938 700 l 257
 374.428710938 700 l 257
EndSplineSet
EndChar

StartChar: uni030C
Encoding: 780 780 389
GlifName: uni030C_
Width: 300
VWidth: 0
GlyphClass: 4
Flags: HW
AnchorPoint: "top1" 244.163 500 mark 0
LayerCount: 2
Fore
SplineSet
329.163085938 500 m 257
 149.163085938 500 l 257
 44.4287109375 700 l 257
 204.428710938 700 l 257
 251.73828125 594 l 261
 324.428710938 700 l 257
 504.428710938 700 l 257
 329.163085938 500 l 257
EndSplineSet
EndChar

StartChar: uni0312
Encoding: 786 786 390
GlifName: uni0312
Width: 300
VWidth: 0
GlyphClass: 4
Flags: HW
AnchorPoint: "top1" 244.163 500 mark 0
LayerCount: 2
Fore
SplineSet
341.163085938 500 m 257
 137.163085938 500 l 257
 177.541992188 729 l 258
 191.771484375 809.696289062 255.112304688 857 349.112304688 857 c 258
 401.112304688 857 l 257
 385.595703125 769 l 257
 364.595703125 769 l 258
 302.595703125 769 272.1328125 755.036132812 266.484375 723 c 258
 261.900390625 697 l 257
 375.900390625 697 l 257
 341.163085938 500 l 257
EndSplineSet
Substitution2: "ss03StyleSet3inLatinlookup2 subtable" uni0312.ss03
EndChar

StartChar: uni0312.ss03
Encoding: 65616 -1 391
GlifName: uni0312.ss03
Width: 300
VWidth: 0
GlyphClass: 4
Flags: W
AnchorPoint: "top1" 156 500 mark 0
LayerCount: 2
Fore
SplineSet
274 608 m 256
 274 548 226 500 166 500 c 256
 106 500 58 548 58 608 c 258
 58 730 l 258
 58 817 113 868 207 868 c 258
 259 868 l 257
 259 780 l 257
 238 780 l 258
 176 780 148 763 148 724 c 258
 148 715 l 257
 154 716 160 716 166 716 c 256
 226 716 274 668 274 608 c 256
EndSplineSet
EndChar

StartChar: uni0313
Encoding: 787 787 392
GlifName: uni0313
Width: 300
VWidth: 0
GlyphClass: 4
Flags: HW
AnchorPoint: "top1" 244.163 500 mark 0
LayerCount: 2
Fore
SplineSet
200.112304688 857 m 257
 404.112304688 857 l 257
 363.733398438 628 l 258
 349.504882812 547.303710938 286.163085938 500 192.163085938 500 c 258
 140.163085938 500 l 257
 155.680664062 588 l 257
 176.680664062 588 l 258
 238.680664062 588 269.142578125 601.963867188 274.791015625 634 c 258
 279.375976562 660 l 257
 165.375976562 660 l 257
 200.112304688 857 l 257
EndSplineSet
Substitution2: "ss03StyleSet3inLatinlookup2 subtable" uni0313.ss03
EndChar

StartChar: uni0313.ss03
Encoding: 65617 -1 393
GlifName: uni0313.ss03
Width: 300
VWidth: 0
GlyphClass: 4
Flags: W
AnchorPoint: "top1" 156 500 mark 0
LayerCount: 2
Fore
SplineSet
58 760 m 256
 58 820 106 868 166 868 c 256
 226 868 274 820 274 760 c 258
 274 638 l 258
 274 551 219 500 125 500 c 258
 73 500 l 257
 73 588 l 257
 94 588 l 258
 156 588 184 605 184 644 c 258
 184 653 l 257
 178 652 172 652 166 652 c 256
 106 652 58 700 58 760 c 256
EndSplineSet
EndChar

StartChar: uni0315
Encoding: 789 789 394
GlifName: uni0315
Width: 300
VWidth: 0
GlyphClass: 4
Flags: HW
AnchorPoint: "top2" 212.163 500 mark 0
LayerCount: 2
Fore
SplineSet
300.064453125 783 m 257
 462.064453125 783 l 257
 369.163085938 500 l 257
 212.163085938 500 l 257
 300.064453125 783 l 257
EndSplineSet
EndChar

StartChar: uni031B
Encoding: 795 795 395
GlifName: uni031B_
Width: 300
VWidth: 0
GlyphClass: 4
Flags: HW
AnchorPoint: "top3" 172.627 548 mark 0
LayerCount: 2
Fore
SplineSet
172.626953125 548 m 257
 273.626953125 548 l 258
 301.959960938 548 325.446289062 558.31640625 333.501953125 604 c 258
 345.138671875 670 l 257
 485.138671875 670 l 257
 472.443359375 598 l 258
 452.540039062 485.119140625 352.741210938 450 267.346679688 450 c 258
 155.346679688 450 l 257
 172.626953125 548 l 257
EndSplineSet
EndChar

StartChar: uni0326
Encoding: 806 806 396
GlifName: uni0326
Width: 300
VWidth: 0
GlyphClass: 4
Flags: HW
AnchorPoint: "bottom1" 160 0 mark 0
LayerCount: 2
Fore
SplineSet
49.0625 -28 m 257
 253.0625 -28 l 257
 212.68359375 -257 l 258
 198.455078125 -337.696289062 135.114257812 -385 41.1142578125 -385 c 258
 -10.8857421875 -385 l 257
 4.630859375 -297 l 257
 25.630859375 -297 l 258
 87.630859375 -297 118.092773438 -283.036132812 123.7421875 -251 c 258
 128.326171875 -225 l 257
 14.326171875 -225 l 257
 49.0625 -28 l 257
EndSplineSet
Substitution2: "ss03StyleSet3inLatinlookup2 subtable" uni0326.ss03
EndChar

StartChar: uni0326.ss03
Encoding: 65618 -1 397
GlifName: uni0326.ss03
Width: 300
VWidth: 0
GlyphClass: 4
Flags: W
AnchorPoint: "bottom1" 160 0 mark 0
LayerCount: 2
Fore
SplineSet
52 -146 m 256
 52 -86 100 -38 160 -38 c 256
 220 -38 268 -86 268 -146 c 258
 268 -268 l 258
 268 -355 213 -406 119 -406 c 258
 67 -406 l 257
 67 -318 l 257
 88 -318 l 258
 150 -318 178 -301 178 -262 c 258
 178 -253 l 257
 172 -254 166 -254 160 -254 c 256
 100 -254 52 -206 52 -146 c 256
EndSplineSet
EndChar

StartChar: uni0327
Encoding: 807 807 398
GlifName: uni0327
Width: 300
VWidth: 0
GlyphClass: 4
Flags: HW
AnchorPoint: "bottom1" 160 0 mark 0
LayerCount: 2
Fore
SplineSet
118.763671875 10 m 257
 215.763671875 10 l 257
 165.301757812 -55 l 257
 179.301757812 -55 l 258
 236.711558096 -55 272.6171875 -94.6154957539 272.6171875 -157.95703125 c 0
 272.6171875 -237.065286682 207.13446567 -287 103.39453125 -287 c 258
 -5.60546875 -287 l 257
 17.31640625 -157 l 257
 98.31640625 -157 l 258
 120.567130169 -157 134.69117521 -146.717432911 134.69117521 -130.518492677 c 0
 134.69117521 -120.644748202 126.33652964 -115 111.72265625 -115 c 258
 77.72265625 -115 l 257
 59.775390625 -75 l 257
 118.763671875 10 l 257
EndSplineSet
EndChar

StartChar: uni0328
Encoding: 808 808 399
GlifName: uni0328
Width: 300
VWidth: 0
GlyphClass: 4
Flags: HW
HStem: -266 140<120.426 238> -20 20G<53.9777 196>
VStem: -18 133<-177.002 -62.9251>
AnchorPoint: "bottom2" 196 0 mark 0
LayerCount: 2
Fore
SplineSet
196 0 m 257
 124.990151433 -33.9650212878 98.9190193706 -59.4727750459 98.9190193706 -94.9831308649 c 0
 98.9190193706 -115.238372238 114.83207852 -126 144.783203125 -126 c 258
 215.783203125 -126 l 257
 191.096679688 -266 l 257
 112.096679688 -266 l 258
 15.1234522517 -266 -44.2705078125 -221.684879997 -44.2705078125 -149.331054688 c 4
 -44.2705078125 -88.7099839749 -1.19777877199 -36.53127416 79 0 c 257
 196 0 l 257
EndSplineSet
EndChar

StartChar: uni1E9E
Encoding: 7838 7838 400
GlifName: uni1E_9E_
Width: 685
VWidth: 0
GlyphClass: 2
Flags: HW
LayerCount: 2
Fore
SplineSet
646 440 m 257
 569.008 488.620627907 486.456 523 387 523 c 256
 280.701 523 235 481.809 235 386 c 258
 235 0 l 257
 45 0 l 257
 45 392 l 258
 45 575.944 160.499 671 384 671 c 256
 484.622 671 568.502 643.661652174 646 605 c 257
 646 440 l 257
534.121 367.576 m 257
 617.008 350.696 670 284.053 670 191 c 256
 670 76.3836 582.419 -1.60936e-14 451 0 c 258
 321 0 l 257
 321 150 l 257
 403 150 l 258
 456.476 150 487 168.169 487 200 c 256
 487 233.075 455.337 252 400 252 c 258
 331 252 l 257
 331 392 l 257
 516 532 l 257
 646 440 l 257
 534.121 367.576 l 257
EndSplineSet
EndChar

StartChar: uni1EA1.ss01.ss03
Encoding: 65621 -1 405
GlifName: uni1E_A_1.ss01.ss03
Width: 608
VWidth: 0
GlyphClass: 2
Flags: HW
AnchorPoint: "top1" 408.485 560 basechar 0
LayerCount: 2
Fore
SplineSet
213 -154 m 256
 213 -94 261 -46 321 -46 c 256
 381 -46 429 -94 429 -154 c 256
 429 -214 381 -262 321 -262 c 256
 261 -262 213 -214 213 -154 c 256
EndSplineSet
Refer: 132 -1 N 1 0 0 1 0 0 2
EndChar

StartChar: uni201F
Encoding: 8223 8223 528
GlifName: uni201F_
Width: 551
VWidth: 0
GlyphClass: 2
Flags: HW
LayerCount: 2
Fore
SplineSet
634.428710938 700 m 257
 599.692382812 503 l 257
 479.692382812 503 l 257
 572.072265625 318 l 257
 441.072265625 318 l 257
 395.692382812 503 l 257
 430.428710938 700 l 257
 634.428710938 700 l 257
358.428710938 700 m 257
 323.692382812 503 l 257
 203.692382812 503 l 257
 296.072265625 318 l 257
 165.072265625 318 l 257
 119.692382812 503 l 257
 154.428710938 700 l 257
 358.428710938 700 l 257
EndSplineSet
Substitution2: "ss03StyleSet3inLatinlookup2 subtable" uni201F.ss03
EndChar

StartChar: uni201F.ss03
Encoding: 65658 -1 529
GlifName: uni201F_.ss03
Width: 551
VWidth: 0
GlyphClass: 2
Flags: W
LayerCount: 2
Fore
SplineSet
521 592 m 256
 521 532 473 484 413 484 c 256
 407 484 401 484 395 485 c 257
 395 476 l 258
 395 428.643 423 408 485 408 c 258
 506 408 l 257
 506 320 l 257
 454 320 l 258
 360 320 305 375.435 305 470 c 258
 305 592 l 258
 305 652 353 700 413 700 c 256
 473 700 521 652 521 592 c 256
246 592 m 256
 246 532 198 484 138 484 c 256
 132 484 126 484 120 485 c 257
 120 476 l 258
 120 428.643 148 408 210 408 c 258
 231 408 l 257
 231 320 l 257
 179 320 l 258
 85 320 30 375.435 30 470 c 258
 30 592 l 258
 30 652 78 700 138 700 c 256
 198 700 246 652 246 592 c 256
EndSplineSet
EndChar

StartChar: uni2034
Encoding: 8244 8244 530
GlifName: uni2034
Width: 901
VWidth: -50
GlyphClass: 2
Flags: HW
LayerCount: 2
Fore
SplineSet
479.612304688 650 m 257
 254.346679688 450 l 257
 104.346679688 450 l 257
 269.612304688 650 l 257
 479.612304688 650 l 257
991.612304688 650 m 257
 766.346679688 450 l 257
 616.346679688 450 l 257
 781.612304688 650 l 257
 991.612304688 650 l 257
735.612304688 650 m 257
 510.346679688 450 l 257
 360.346679688 450 l 257
 525.612304688 650 l 257
 735.612304688 650 l 257
EndSplineSet
EndChar

StartChar: uni2035
Encoding: 8245 8245 531
GlifName: uni2035
Width: 390
VWidth: -50
GlyphClass: 2
Flags: HW
LayerCount: 2
Fore
SplineSet
139.612304688 650 m 257
 349.612304688 650 l 257
 444.346679688 450 l 257
 294.346679688 450 l 257
 139.612304688 650 l 257
EndSplineSet
EndChar

StartChar: uni2036
Encoding: 8246 8246 532
GlifName: uni2036
Width: 645
VWidth: -50
GlyphClass: 2
Flags: HW
LayerCount: 2
Fore
SplineSet
139.612304688 650 m 257
 349.612304688 650 l 257
 444.346679688 450 l 257
 294.346679688 450 l 257
 139.612304688 650 l 257
395.612304688 650 m 257
 605.612304688 650 l 257
 700.346679688 450 l 257
 550.346679688 450 l 257
 395.612304688 650 l 257
EndSplineSet
EndChar

StartChar: uni2037
Encoding: 8247 8247 533
GlifName: uni2037
Width: 901
VWidth: -50
GlyphClass: 2
Flags: HW
LayerCount: 2
Fore
SplineSet
651.612304688 650 m 257
 861.612304688 650 l 257
 956.346679688 450 l 257
 806.346679688 450 l 257
 651.612304688 650 l 257
139.612304688 650 m 257
 349.612304688 650 l 257
 444.346679688 450 l 257
 294.346679688 450 l 257
 139.612304688 650 l 257
395.612304688 650 m 257
 605.612304688 650 l 257
 700.346679688 450 l 257
 550.346679688 450 l 257
 395.612304688 650 l 257
EndSplineSet
EndChar

StartChar: v
Encoding: 118 118 537
GlifName: v
Width: 591
VWidth: 0
GlyphClass: 2
Flags: HW
LayerCount: 2
Fore
SplineSet
114.08203125 500 m 257
 301.08203125 500 l 257
 318.188476562 176 l 261
 447.08203125 500 l 257
 655.08203125 500 l 257
 404.91796875 0 l 257
 187.91796875 0 l 257
 114.08203125 500 l 257
EndSplineSet
Substitution2: "'cv05' Character Variants 05 in Latin lookup 20-1" v.cv05
EndChar

StartChar: w
Encoding: 119 119 538
GlifName: w
Width: 909
VWidth: 0
GlyphClass: 2
Flags: HW
AnchorPoint: "top1" 547.661 560 basechar 0
LayerCount: 2
Fore
SplineSet
112.08203125 500 m 257
 302.08203125 500 l 257
 301.833007812 181 l 257
 425.08203125 500 l 257
 642.08203125 500 l 257
 656.833007812 181 l 257
 767.08203125 500 l 257
 971.08203125 500 l 257
 733.91796875 0 l 257
 515.91796875 0 l 257
 503.108398438 313 l 257
 393.91796875 0 l 257
 165.91796875 0 l 257
 112.08203125 500 l 257
EndSplineSet
Substitution2: "'cv05' Character Variants 05 in Latin lookup 20-1" w.cv05
EndChar

StartChar: x
Encoding: 120 120 540
GlifName: x
Width: 581
VWidth: 0
GlyphClass: 2
Flags: HW
LayerCount: 2
Fore
SplineSet
114.08203125 500 m 257
 301.08203125 500 l 257
 343.927734375 346 l 257
 437.08203125 500 l 257
 645.08203125 500 l 257
 478 250 l 257
 556.91796875 0 l 257
 369.91796875 0 l 261
 327.072265625 154 l 261
 233.91796875 0 l 261
 25.91796875 0 l 257
 193 250 l 257
 114.08203125 500 l 257
EndSplineSet
Substitution2: "'cv05' Character Variants 05 in Latin lookup 20-1" x.cv05
EndChar

StartChar: y
Encoding: 121 121 541
GlifName: y
Width: 611
VWidth: 0
GlyphClass: 2
Flags: HW
AnchorPoint: "bottom1" 538.141 0 basechar 0
AnchorPoint: "top1" 407.884 560 basechar 0
LayerCount: 2
Fore
SplineSet
58.2607421875 -22 m 257
 119.260742188 -22 l 258
 152.230520148 -22 169.534978228 -11.4609544935 181.903320312 10 c 258
 193.4296875 30 l 257
 114.303710938 500 l 257
 307.303710938 500 l 257
 340.463867188 206 l 257
 473.303710938 500 l 257
 675.303710938 500 l 257
 422.08203125 -6 l 258
 357.620896574 -134.809405997 299.102964932 -184 124.696289062 -184 c 258
 29.6962890625 -184 l 257
 58.2607421875 -22 l 257
EndSplineSet
Substitution2: "'cv05' Character Variants 05 in Latin lookup 20-1" y.cv05
Substitution2: "ss07StyleSet7inLatinlookup6 subtable" y.ss07
EndChar

StartChar: y.ss07
Encoding: 65659 -1 542
GlifName: y.ss07
Width: 611
VWidth: 0
GlyphClass: 2
Flags: HW
HStem: 480 20G<25 228.204 382.088 586>
AnchorPoint: "top1" 406.743 560 basechar 0
AnchorPoint: "bottom1" 537 0 basechar 0
LayerCount: 2
Fore
SplineSet
104.966796875 -176 m 257
 210.290039062 30 l 257
 113.163085938 500 l 257
 300.163085938 500 l 257
 336.849609375 226 l 257
 466.163085938 500 l 257
 674.163085938 500 l 257
 329.966796875 -176 l 257
 104.966796875 -176 l 257
EndSplineSet
EndChar

StartChar: z
Encoding: 122 122 548
GlifName: z
Width: 522
VWidth: 0
GlyphClass: 2
Flags: HW
AnchorPoint: "top1" 366.661 560 basechar 0
LayerCount: 2
Fore
SplineSet
129.08203125 500 m 257
 565.08203125 500 l 257
 535.458984375 332 l 257
 282.250976562 138 l 257
 501.250976562 138 l 257
 476.91796875 0 l 257
 40.91796875 0 l 257
 70.541015625 168 l 257
 322.749023438 362 l 257
 104.749023438 362 l 257
 129.08203125 500 l 257
EndSplineSet
Substitution2: "'cv05' Character Variants 05 in Latin lookup 20-1" z.cv05
EndChar

StartChar: zero
Encoding: 48 48 553
GlifName: zero
Width: 645
VWidth: 0
GlyphClass: 2
Flags: HW
LayerCount: 2
Fore
SplineSet
85 255 m 0
 85 490 220 660 406 660 c 0
 572 660 670 559 670 388 c 0
 670 152 542 -8 354 -8 c 0
 185 -8 85 90 85 255 c 0
478 384 m 0
 478 454 451 490 399 490 c 0
 332 490 277 388 277 263 c 0
 277 197 306 162 360 162 c 0
 429 162 478 254 478 384 c 0
EndSplineSet
Substitution2: "'cv05' Character Variants 05 in Latin lookup 20-1" zero.cv05
Substitution2: "'cv04' Character Variants 04 in Latin lookup 19-1" uni24EA
Substitution2: "'cv03' Character Variants 03 in Latin lookup 18-1" uni24FF
Substitution2: "'cv02' Character Variants 02 in Latin lookup 17-1" zero.cv02
Substitution2: "'cv01' Character Variants 01 in Latin lookup 16-1" zero.cv01
Substitution2: "'sups' Superscript in Latin lookup 15-1" uni2070
Substitution2: "'subs' Subscript in Latin lookup 14-1" uni2080
Substitution2: "'numr' Numerators in Latin lookup 13-1" zero.numr
Substitution2: "'dnom' Denominators in Latin lookup 12-1" zero.dnom
Substitution2: "'zero' Slashed Zero in Latin lookup 10-1" zero.slsh
Substitution2: "'tnum' Tabular Numbers in Latin lookup 11-1" zero.tabl
EndChar

StartChar: tbar.ss08
Encoding: 65679 -1 571
GlifName: tbar.ss08
Width: 378
VWidth: 0
Flags: HW
HStem: 0 21G<94 284> 215 98<23 355> 352 148<23 355>
VStem: 23 332<215 313 352 500> 94 190<0 630>
LayerCount: 2
Fore
SplineSet
78.1904296875 313 m 261xf0
 410.190429688 313 l 261
 392.91015625 215 l 261
 60.91015625 215 l 261
 78.1904296875 313 l 261xf0
111.163085938 500 m 257
 443.163085938 500 l 257
 417.067382812 352 l 257
 85.0673828125 352 l 257
 111.163085938 500 l 257
94 0 m 257xe8
 205.0859375 630 l 257
 395.0859375 630 l 257
 284 0 l 257
 94 0 l 257xe8
EndSplineSet
EndChar

StartChar: Gdotaccent.ss04.ss03
Encoding: 65698 -1 590
GlifName: G_dotaccent.ss04.ss03
Width: 667
VWidth: 0
Flags: HW
HStem: -8 170<280.034 407.637> 251 131<310 438> 491 169<276.333 406.714> 694.333 216<263.23 392.77>
VStem: 35 193<221.881 432.965> 220 216<737.563 867.103>
LayerCount: 2
Fore
SplineSet
370 802.333007812 m 260xf4
 370 862.333007812 418 910.333007812 478 910.333007812 c 260
 538 910.333007812 586 862.333007812 586 802.333007812 c 260
 586 742.333007812 538 694.333007812 478 694.333007812 c 260
 418 694.333007812 370 742.333007812 370 802.333007812 c 260xf4
EndSplineSet
Refer: 39 -1 N 1 0 0 1 0 0 3
EndChar

StartChar: uni0122.ss04.ss03
Encoding: 65699 -1 591
GlifName: uni0122.ss04.ss03
Width: 667
VWidth: 0
Flags: HW
LayerCount: 2
Fore
SplineSet
244 -146 m 260
 244 -86 292 -38 352 -38 c 260
 412 -38 460 -86 460 -146 c 262
 460 -268 l 262
 460 -355 405 -406 311 -406 c 262
 259 -406 l 261
 259 -318 l 261
 280 -318 l 262
 342 -318 370 -301 370 -262 c 262
 370 -253 l 261
 364 -254 358 -254 352 -254 c 260
 292 -254 244 -206 244 -146 c 260
EndSplineSet
Refer: 39 -1 N 1 0 0 1 0 0 3
EndChar

StartChar: uni0156.ss05.ss03
Encoding: 65700 -1 592
GlifName: uni0156.ss05.ss03
Width: 626
VWidth: 0
Flags: HW
LayerCount: 2
Fore
SplineSet
211 -146 m 256
 211 -86 259 -38 319 -38 c 256
 379 -38 427 -86 427 -146 c 258
 427 -268 l 258
 427 -355 372 -406 278 -406 c 258
 226 -406 l 257
 226 -318 l 257
 247 -318 l 258
 309 -318 337 -301 337 -262 c 258
 337 -253 l 257
 331 -254 325 -254 319 -254 c 256
 259 -254 211 -206 211 -146 c 256
EndSplineSet
Refer: 91 -1 N 1 0 0 1 0 0 3
EndChar

StartChar: ydieresis.ss07.ss03
Encoding: 65701 -1 593
GlifName: ydieresis.ss07.ss03
Width: 611
VWidth: 0
Flags: HW
HStem: 480 20G<25 228.204 382.088 586> 552 216<96.2301 225.77 386.23 515.77>
VStem: 53 216<595.23 724.77> 343 216<595.23 724.77>
LayerCount: 2
Fore
SplineSet
163 660 m 260
 163 720 211 768 271 768 c 260
 331 768 379 720 379 660 c 260
 379 600 331 552 271 552 c 260
 211 552 163 600 163 660 c 260
453 660 m 260
 453 720 501 768 561 768 c 260
 621 768 669 720 669 660 c 260
 669 600 621 552 561 552 c 260
 501 552 453 600 453 660 c 260
EndSplineSet
Refer: 542 -1 N 1 0 0 1 0 0 3
EndChar

StartChar: uni1EF5.ss07.ss03
Encoding: 65702 -1 594
GlifName: uni1E_F_5.ss07.ss03
Width: 611
VWidth: 0
Flags: HW
HStem: -262 216<461.23 590.77> 480 20G<25 228.204 382.088 586>
VStem: 418 216<-218.77 -89.2301>
LayerCount: 2
Fore
SplineSet
418 -154 m 260
 418 -94 466 -46 526 -46 c 260
 586 -46 634 -94 634 -154 c 260
 634 -214 586 -262 526 -262 c 260
 466 -262 418 -214 418 -154 c 260
EndSplineSet
Refer: 542 -1 N 1 0 0 1 0 0 3
EndChar

StartChar: udieresis.ss10.ss03
Encoding: 65703 -1 595
GlifName: udieresis.ss10.ss03
Width: 596
VWidth: 0
Flags: HW
HStem: -8 180<251.059 343.817> 480 20G<43 233 363 553> 552 216<85.2301 214.77 375.23 504.77>
VStem: 42 216<595.23 724.77> 43 190<189.417 500> 332 216<595.23 724.77> 363 190<189.417 500>
LayerCount: 2
Fore
SplineSet
161 660 m 260xf0
 161 720 209 768 269 768 c 260
 329 768 377 720 377 660 c 260
 377 600 329 552 269 552 c 260
 209 552 161 600 161 660 c 260xf0
451 660 m 260xe4
 451 720 499 768 559 768 c 260
 619 768 667 720 667 660 c 260
 667 600 619 552 559 552 c 260
 499 552 451 600 451 660 c 260xe4
EndSplineSet
Refer: 345 -1 N 1 0 0 1 0 0 3
EndChar

StartChar: uni1EE5.ss10.ss03
Encoding: 65704 -1 596
GlifName: uni1E_E_5.ss10.ss03
Width: 596
VWidth: 0
Flags: HW
HStem: -262 216<243.23 372.77> -8 180<251.059 343.817> 480 20G<43 233 363 553>
VStem: 43 190<189.417 500> 200 216<-218.77 -89.2301> 363 190<189.417 500>
LayerCount: 2
Fore
SplineSet
170 -154 m 260xe8
 170 -94 218 -46 278 -46 c 260
 338 -46 386 -94 386 -154 c 260
 386 -214 338 -262 278 -262 c 260
 218 -262 170 -214 170 -154 c 260xe8
EndSplineSet
Refer: 345 -1 N 1 0 0 1 0 0 3
EndChar

StartChar: uni1EF1.ss10.ss03
Encoding: 65705 -1 597
GlifName: uni1E_F_1.ss10.ss03
Width: 596
Flags: HW
LayerCount: 2
Fore
SplineSet
170 -154 m 260xe8
 170 -94 218 -46 278 -46 c 260
 338 -46 386 -94 386 -154 c 260
 386 -214 338 -262 278 -262 c 260
 218 -262 170 -214 170 -154 c 260xe8
EndSplineSet
Refer: 582 -1 N 1 0 0 1 0 0 3
EndChar

StartChar: Gdotaccent.ss03.ss04
Encoding: 65706 -1 598
GlifName: G_dotaccent.ss03.ss04
Width: 667
VWidth: 0
Flags: W
HStem: -8 170<280.034 407.637> 251 131<310 438> 491 169<276.333 406.714> 694.333 216<263.23 392.77>
VStem: 35 193<221.881 432.965> 220 216<737.563 867.103>
LayerCount: 2
Fore
SplineSet
370 802.333007812 m 260xf4
 370 862.333007812 418 910.333007812 478 910.333007812 c 260
 538 910.333007812 586 862.333007812 586 802.333007812 c 260
 586 742.333007812 538 694.333007812 478 694.333007812 c 260
 418 694.333007812 370 742.333007812 370 802.333007812 c 260xf4
EndSplineSet
Refer: 39 -1 N 1 0 0 1 0 0 3
Decomposition: "G+AwcA"
EndChar

StartChar: uni0122.ss03.ss04
Encoding: 65707 -1 599
GlifName: uni0122.ss03.ss04
Width: 667
VWidth: 0
Flags: HW
LayerCount: 2
Fore
SplineSet
244 -146 m 260
 244 -86 292 -38 352 -38 c 260
 412 -38 460 -86 460 -146 c 262
 460 -268 l 262
 460 -355 405 -406 311 -406 c 262
 259 -406 l 261
 259 -318 l 261
 280 -318 l 262
 342 -318 370 -301 370 -262 c 262
 370 -253 l 261
 364 -254 358 -254 352 -254 c 260
 292 -254 244 -206 244 -146 c 260
EndSplineSet
Refer: 39 -1 N 1 0 0 1 0 0 3
EndChar

StartChar: uni0156.ss03.ss05
Encoding: 65708 -1 600
GlifName: uni0156.ss03.ss05
Width: 626
VWidth: 0
Flags: HW
LayerCount: 2
Fore
SplineSet
211 -146 m 256
 211 -86 259 -38 319 -38 c 256
 379 -38 427 -86 427 -146 c 258
 427 -268 l 258
 427 -355 372 -406 278 -406 c 258
 226 -406 l 257
 226 -318 l 257
 247 -318 l 258
 309 -318 337 -301 337 -262 c 258
 337 -253 l 257
 331 -254 325 -254 319 -254 c 256
 259 -254 211 -206 211 -146 c 256
EndSplineSet
Refer: 91 -1 N 1 0 0 1 0 0 3
EndChar

StartChar: uni1EF5.ss03.ss07
Encoding: 65709 -1 601
GlifName: uni1E_F_5.ss03.ss07
Width: 611
VWidth: 0
Flags: W
HStem: -262 216<461.23 590.77> 480 20G<25 228.204 382.088 586>
VStem: 418 216<-218.77 -89.2301>
LayerCount: 2
Fore
SplineSet
418 -154 m 260
 418 -94 466 -46 526 -46 c 260
 586 -46 634 -94 634 -154 c 260
 634 -214 586 -262 526 -262 c 260
 466 -262 418 -214 418 -154 c 260
EndSplineSet
Refer: 542 -1 N 1 0 0 1 0 0 3
EndChar

StartChar: ydieresis.ss03.ss07
Encoding: 65710 -1 602
GlifName: ydieresis.ss03.ss07
Width: 611
VWidth: 0
Flags: W
HStem: 480 20G<25 228.204 382.088 586> 552 216<96.2301 225.77 386.23 515.77>
VStem: 53 216<595.23 724.77> 343 216<595.23 724.77>
LayerCount: 2
Fore
SplineSet
163 660 m 260
 163 720 211 768 271 768 c 260
 331 768 379 720 379 660 c 260
 379 600 331 552 271 552 c 260
 211 552 163 600 163 660 c 260
453 660 m 260
 453 720 501 768 561 768 c 260
 621 768 669 720 669 660 c 260
 669 600 621 552 561 552 c 260
 501 552 453 600 453 660 c 260
EndSplineSet
Refer: 542 -1 N 1 0 0 1 0 0 3
EndChar

StartChar: udieresis.ss03.ss10
Encoding: 65711 -1 603
GlifName: udieresis.ss03.ss10
Width: 596
VWidth: 0
Flags: W
HStem: -8 180<251.059 343.817> 480 20G<43 233 363 553> 552 216<85.2301 214.77 375.23 504.77>
VStem: 42 216<595.23 724.77> 43 190<189.417 500> 332 216<595.23 724.77> 363 190<189.417 500>
LayerCount: 2
Fore
SplineSet
161 660 m 260xf0
 161 720 209 768 269 768 c 260
 329 768 377 720 377 660 c 260
 377 600 329 552 269 552 c 260
 209 552 161 600 161 660 c 260xf0
451 660 m 260xe4
 451 720 499 768 559 768 c 260
 619 768 667 720 667 660 c 260
 667 600 619 552 559 552 c 260
 499 552 451 600 451 660 c 260xe4
EndSplineSet
Refer: 345 -1 N 1 0 0 1 0 0 3
EndChar

StartChar: uni1EE5.ss03.ss10
Encoding: 65712 -1 604
GlifName: uni1E_E_5.ss03.ss10
Width: 596
VWidth: 0
Flags: W
HStem: -262 216<243.23 372.77> -8 180<251.059 343.817> 480 20G<43 233 363 553>
VStem: 43 190<189.417 500> 200 216<-218.77 -89.2301> 363 190<189.417 500>
LayerCount: 2
Fore
SplineSet
170 -154 m 260xe8
 170 -94 218 -46 278 -46 c 260
 338 -46 386 -94 386 -154 c 260
 386 -214 338 -262 278 -262 c 260
 218 -262 170 -214 170 -154 c 260xe8
EndSplineSet
Refer: 345 -1 N 1 0 0 1 0 0 3
EndChar

StartChar: uni1EF1.ss03.ss10
Encoding: 65713 -1 605
GlifName: uni1E_F_1.ss03.ss10
Width: 596
Flags: HW
LayerCount: 2
Fore
SplineSet
170 -154 m 260xe8
 170 -94 218 -46 278 -46 c 260
 338 -46 386 -94 386 -154 c 260
 386 -214 338 -262 278 -262 c 260
 218 -262 170 -214 170 -154 c 260xe8
EndSplineSet
Refer: 582 -1 N 1 0 0 1 0 0 3
EndChar

StartChar: zero.slsh
Encoding: 65714 -1 606
GlifName: zero.slsh
Width: 645
VWidth: 0
Flags: W
HStem: -8 170<246.827 380.043> 490 170<271.567 374.284> 501 20G<426.247 466>
VStem: 35 193<258.976 439.166> 417 193<202.922 377.693>
LayerCount: 2
Fore
SplineSet
444 521 m 257xb8
 510 461 l 257
 194 105 l 257
 128 165 l 257
 444 521 l 257xb8
35 317 m 256
 35 533 142 660 323 660 c 256xd8
 504 660 610 533 610 317 c 256
 610 112 504 -8 323 -8 c 256
 141 -8 35 112 35 317 c 256
417 317 m 256
 417 432 386 490 323 490 c 256
 260 490 228 432 228 317 c 256
 228 213 259 162 323 162 c 256
 386 162 417 213 417 317 c 256
EndSplineSet
Substitution2: "'tnum' Tabular Numbers in Latin lookup 11-1" zero.slsh.tabl
EndChar

StartChar: zero.tabl
Encoding: 65715 -1 607
GlifName: zero.tabl
Width: 625
VWidth: 0
Flags: HW
LayerCount: 2
Fore
SplineSet
86.501953125 255 m 4
 86.501953125 490 217.296345648 660 397.501953125 660 c 0
 557.214074337 660 651.501953125 559 651.501953125 388 c 0
 651.501953125 152 527.552586036 -8 345.501953125 -8 c 0
 182.784481006 -8 86.501953125 90 86.501953125 255 c 4
459.501953125 384 m 0
 459.501953125 454 435.919674644 490 390.501953125 490 c 0
 328.993756404 490 278.501953125 388 278.501953125 263 c 4
 278.501953125 197 304.007977221 162 351.501953125 162 c 0
 414.654495498 162 459.501953125 254 459.501953125 384 c 0
EndSplineSet
Substitution2: "'zero' Slashed Zero in Latin lookup 10-1" zero.tabl.slsh
EndChar

StartChar: one.tabl
Encoding: 65716 -1 608
GlifName: one.tabl
Width: 625
VWidth: 0
Flags: HW
LayerCount: 2
Fore
SplineSet
375.564453125 650 m 1
 565.564453125 650 l 1
 454.286132812 168 l 1
 582.286132812 168 l 1
 543.5 0 l 1
 81.5 0 l 1
 120.286132812 168 l 1
 264.286132812 168 l 1
 313.229492188 380 l 1
 169.229492188 380 l 1
 206.861328125 543 l 1
 270.861328125 543 l 2
 322.861328125 543 354.32421875 558 366.330078125 610 c 2
 375.564453125 650 l 1
EndSplineSet
EndChar

StartChar: two.tabl
Encoding: 65717 -1 609
GlifName: two.tabl
Width: 625
VWidth: 0
Flags: HW
LayerCount: 2
Fore
SplineSet
321.755859375 167 m 257
 598.755859375 167 l 257
 569.755859375 0 l 257
 55.755859375 0 l 257
 61.755859375 34 l 258
 104.755859375 279 243.755859375 336 344.755859375 370 c 0
 408.755859375 392 457.755859375 411 457.755859375 452 c 0
 457.755859375 484 436.755859375 501 397.755859375 501 c 0
 359.755859375 501 332.755859375 483 324.755859375 445 c 257
 129.755859375 445 l 257
 161.755859375 572 271.755859375 658 398.755859375 658 c 0
 547.755859375 658 650.755859375 575 650.755859375 459 c 0
 650.755859375 333 564.755859375 281 480.755859375 248 c 0
 408.755859375 219 336.755859375 204 321.755859375 167 c 257
EndSplineSet
EndChar

StartChar: three.tabl
Encoding: 65718 -1 610
GlifName: three.tabl
Width: 625
VWidth: 0
Flags: HW
LayerCount: 2
Fore
SplineSet
458.626953125 396 m 257
 434.626953125 260 l 257
 305.626953125 260 l 257
 329.626953125 396 l 257
 458.626953125 396 l 257
379.626953125 290 m 257
 398.626953125 396 l 257
 441.626953125 396 452.626953125 437 452.626953125 461 c 0
 452.626953125 491 434.626953125 509 402.626953125 509 c 256
 365.626953125 509 337.626953125 485 329.626953125 445 c 257
 136.626953125 445 l 261
 173.626953125 593 283.526367188 658 424.626953125 658 c 256
 559.46484375 658 647.626953125 586.915039062 647.626953125 484 c 0
 647.626953125 383.196289062 558.293945312 290 379.626953125 290 c 257
393.626953125 366 m 257
 528.004882812 366 609.626953125 302.8828125 609.626953125 204 c 0
 609.626953125 91.2548828125 502.95703125 -8 338.626953125 -8 c 256
 181.413085938 -8 85.626953125 74 85.626953125 210 c 257
 278.626953125 210 l 257
 278.626953125 166 300.626953125 143 342.626953125 143 c 256
 403.626953125 143 420.626953125 192 420.626953125 220 c 0
 420.626953125 246 404.626953125 260 374.626953125 260 c 257
 393.626953125 366 l 257
EndSplineSet
EndChar

StartChar: four.tabl
Encoding: 65719 -1 611
GlifName: four.tabl
Width: 625
VWidth: 0
Flags: HW
LayerCount: 2
Fore
SplineSet
539.275390625 132 m 257
 516 0 l 257
 336 0 l 257
 359.275390625 132 l 257
 50.275390625 132 l 257
 85.01171875 329 l 257
 400.612304688 650 l 257
 630.612304688 650 l 257
 566.958984375 289 l 257
 648.958984375 289 l 257
 621.275390625 132 l 257
 539.275390625 132 l 257
386.958984375 289 m 257
 414.641601562 446 l 257
 259.958984375 289 l 261
 386.958984375 289 l 257
EndSplineSet
EndChar

StartChar: five.tabl
Encoding: 65720 -1 612
GlifName: five.tabl
Width: 625
VWidth: 0
Flags: HW
LayerCount: 2
Fore
SplineSet
422.75390625 243.733398438 m 0
 422.75390625 188.209960938 389.278320312 152 337.947265625 152 c 256
 298.283203125 152 277.526367188 172.612304688 277.526367188 212 c 257
 84.5263671875 212 l 257
 84.5263671875 73.9365234375 178.458007812 -8 336.735351562 -8 c 256
 500.022460938 -8 618.75 103.600585938 618.75 257.084960938 c 0
 618.75 370.732421875 557.142578125 443 460.258789062 443 c 256
 401.03515625 443 347.331054688 418 307.739257812 372 c 257
 345.075195312 493 l 257
 638.075195312 493 l 257
 665.934570312 651 l 257
 198.934570312 651 l 257
 94.4013671875 268 l 257
 283.401367188 268 l 257
 301.508789062 292.590820312 328.573242188 306 360.1015625 306 c 256
 400.119140625 306 422.75390625 283.50390625 422.75390625 243.733398438 c 0
EndSplineSet
EndChar

StartChar: six.tabl
Encoding: 65721 -1 613
GlifName: six.tabl
Width: 625
VWidth: 0
Flags: HW
LayerCount: 2
Fore
SplineSet
89.5078125 245.028320312 m 4
 89.5078125 495.984375 230.751953125 660 426.330078125 660 c 260
 573.82421875 660 660.651367188 589.225585938 660.651367188 469 c 261
 467.651367188 469 l 261
 467.651367188 501.340820312 449.35546875 520 417.64453125 520 c 260
 361.444335938 520 312.653320312 457.669921875 296.313476562 365 c 260
 295.219726562 358.797851562 294.744140625 356.100585938 294.197265625 353 c 261
 326.870117188 397.642578125 390.52734375 426 458.069335938 426 c 260
 559.602539062 426 627.840820312 354.4765625 627.840820312 248.055664062 c 4
 627.840820312 104.03125 516.640625 -8 348.543945312 -8 c 260
 185.6484375 -8 89.5078125 85.9111328125 89.5078125 245.028320312 c 4
289.661132812 194.462890625 m 4
 289.661132812 157.442382812 313.419921875 133 349.405273438 133 c 260
 395.358398438 133 431.486328125 174.473632812 431.486328125 227.227539062 c 4
 431.486328125 263.232421875 409.904296875 285 374.20703125 285 c 260
 326.794921875 285 289.661132812 245.234375 289.661132812 194.462890625 c 4
EndSplineSet
EndChar

StartChar: seven.tabl
Encoding: 65722 -1 614
GlifName: seven.tabl
Width: 625
VWidth: 0
Flags: HW
LayerCount: 2
Fore
SplineSet
379.5 0 m 261
 417.057617188 213 490.272460938 356 649.962890625 462 c 261
 683.112304688 650 l 261
 171.112304688 650 l 261
 139.7265625 472 l 261
 440.7265625 472 l 261
 310.09375 372 196.405273438 249 152.5 0 c 261
 379.5 0 l 261
EndSplineSet
EndChar

StartChar: eight.tabl
Encoding: 65723 -1 615
GlifName: eight.tabl
Width: 625
VWidth: 0
Flags: HW
HStem: -8 145<255.897 368.407> 257 140<272.987 351.987> 302 50<302.227 309.987 314.987 322.747> 513 145<266.423 357.845>
VStem: 48.9865 193<150.942 244.505> 68.9865 183<407.796 501.417> 299.987 10<257 397> 314.987 10<257 302 352 397> 372.987 183<407.512 501.025> 382.987 193<151.433 242.708>
LayerCount: 2
Fore
SplineSet
522.987304688 319 m 1
 579.987304688 294.083007812 609.987304688 249.666992188 609.987304688 189 c 0
 609.987304688 74.61328125 493.34765625 -8 330.987304688 -8 c 0
 176.797851562 -8 77.9873046875 60.8203125 77.9873046875 168 c 0
 77.9873046875 245.469726562 130.987304688 309.712890625 218.987304688 339 c 1
 172.987304688 364.03515625 149.987304688 406.486328125 149.987304688 462 c 0
 149.987304688 575.42578125 258.569335938 658 407.987304688 658 c 0
 550.13671875 658 641.987304688 590.157226562 641.987304688 485 c 0
 641.987304688 412.375 596.987304688 349.181640625 522.987304688 319 c 1
388.987304688 397 m 2
 427.64453125 397 454.987304688 424.916992188 454.987304688 464 c 0
 454.987304688 495.181640625 434.911132812 513 398.987304688 513 c 0
 357.803710938 513 330.987304688 486.013671875 330.987304688 446 c 0
 330.987304688 414.818359375 349.375 397 383.987304688 397 c 2
 388.987304688 397 l 2
356.987304688 257 m 2
 351.987304688 257 l 2
 304.84765625 257 275.987304688 230.944335938 275.987304688 190 c 0
 275.987304688 155.770507812 298.38671875 137 339.987304688 137 c 0
 387.577148438 137 418.987304688 164.97265625 418.987304688 206 c 0
 418.987304688 239.260742188 396.918945312 257 356.987304688 257 c 2
EndSplineSet
EndChar

StartChar: nine.tabl
Encoding: 65724 -1 616
GlifName: nine.tabl
Width: 625
VWidth: 0
Flags: HW
LayerCount: 2
Fore
SplineSet
650.458007812 406.971679688 m 4
 650.458007812 156.015625 509.212890625 -8 313.635742188 -8 c 260
 166.141601562 -8 79.314453125 62.7744140625 79.314453125 183 c 261
 272.314453125 183 l 261
 272.314453125 150.659179688 290.610351562 132 322.321289062 132 c 260
 378.521484375 132 427.311523438 194.330078125 443.65234375 287 c 260
 444.745117188 293.202148438 445.220703125 295.899414062 445.768554688 299 c 261
 413.094726562 254.357421875 349.438476562 226 281.896484375 226 c 260
 180.36328125 226 112.125 297.5234375 112.125 403.944335938 c 4
 112.125 547.96875 223.32421875 660 391.421875 660 c 260
 554.31640625 660 650.458007812 566.088867188 650.458007812 406.971679688 c 4
450.305664062 457.537109375 m 4
 450.305664062 494.557617188 426.545898438 519 390.560546875 519 c 260
 344.607421875 519 308.48046875 477.526367188 308.48046875 424.772460938 c 4
 308.48046875 388.767578125 330.061523438 367 365.758789062 367 c 260
 413.170898438 367 450.305664062 406.765625 450.305664062 457.537109375 c 4
EndSplineSet
EndChar

StartChar: zero.slsh.tabl
Encoding: 65725 -1 617
GlifName: zero.slsh.tabl
Width: 625
VWidth: 0
Flags: HW
LayerCount: 2
Fore
SplineSet
434 521 m 257
 500 461 l 257
 184 105 l 257
 118 165 l 257
 434 521 l 257
35 317 m 260
 35 533 138.284722222 660 313 660 c 256
 487.693379791 660 590 533 590 317 c 256
 590 112 487.693379791 -8 313 -8 c 256
 137.319444444 -8 35 112 35 317 c 260
397 317 m 256
 397 432 369.29787234 490 313 490 c 256
 256.631578947 490 228 432 228 317 c 260
 228 213 255.736842105 162 313 162 c 256
 369.29787234 162 397 213 397 317 c 256
EndSplineSet
EndChar

StartChar: plus.tabl
Encoding: 65726 -1 618
GlifName: plus.tabl
Width: 625
VWidth: 0
Flags: HW
LayerCount: 2
Fore
SplineSet
466.03125 400 m 257
 652.03125 400 l 257
 622.408203125 232 l 257
 436.408203125 232 l 257
 403.787109375 47 l 257
 235.787109375 47 l 257
 268.408203125 232 l 257
 84.408203125 232 l 257
 114.03125 400 l 257
 298.03125 400 l 257
 330.651367188 585 l 257
 498.651367188 585 l 257
 466.03125 400 l 257
EndSplineSet
EndChar

StartChar: hyphen.tabl
Encoding: 65727 -1 619
GlifName: hyphen.tabl
Width: 625
VWidth: 0
Flags: HW
LayerCount: 2
Fore
SplineSet
144.977539062 360 m 257
 606.977539062 360 l 257
 577.354492188 192 l 257
 115.354492188 192 l 257
 144.977539062 360 l 257
EndSplineSet
EndChar

StartChar: period.tabl
Encoding: 65728 -1 620
GlifName: period.tabl
Width: 625
VWidth: 0
Flags: HW
LayerCount: 2
Fore
SplineSet
245.236328125 197 m 257
 449.236328125 197 l 257
 414.5 0 l 257
 210.5 0 l 257
 245.236328125 197 l 257
EndSplineSet
EndChar

StartChar: slash.tabl
Encoding: 65729 -1 621
GlifName: slash.tabl
Width: 625
VWidth: 0
Flags: HW
LayerCount: 2
Fore
SplineSet
434.112304688 650 m 257
 644.112304688 650 l 257
 305.5 0 l 257
 95.5 0 l 257
 434.112304688 650 l 257
EndSplineSet
EndChar

StartChar: colon.tabl
Encoding: 65730 -1 622
GlifName: colon.tabl
Width: 625
VWidth: 0
Flags: HW
LayerCount: 2
Fore
SplineSet
298.487304688 499 m 257
 502.487304688 499 l 257
 467.750976562 302 l 257
 263.750976562 302 l 257
 298.487304688 499 l 257
245.236328125 197 m 257
 449.236328125 197 l 257
 414.5 0 l 257
 210.5 0 l 257
 245.236328125 197 l 257
EndSplineSet
EndChar

StartChar: multiply.tabl
Encoding: 65731 -1 623
GlifName: multiply.tabl
Width: 625
VWidth: 0
Flags: HW
LayerCount: 2
Fore
SplineSet
387.439453125 425 m 257
 544.30078125 566 l 257
 641.318359375 447 l 257
 478.219726562 316 l 257
 595.120117188 185 l 257
 456.137695312 66 l 257
 349 207 l 257
 194.137695312 66 l 257
 95.1201171875 185 l 257
 260.219726562 316 l 257
 141.318359375 447 l 257
 282.30078125 566 l 257
 387.439453125 425 l 257
EndSplineSet
EndChar

StartChar: divide.tabl
Encoding: 65732 -1 624
GlifName: divide.tabl
Width: 625
VWidth: 0
Flags: HW
LayerCount: 2
Fore
SplineSet
329.361328125 555 m 257
 493.361328125 555 l 257
 463.915039062 388 l 257
 299.915039062 388 l 257
 329.361328125 555 l 257
260.241210938 163 m 257
 424.241210938 163 l 257
 394.794921875 -4 l 257
 230.794921875 -4 l 257
 260.241210938 163 l 257
143.21484375 350 m 257
 605.21484375 350 l 257
 579.118164062 202 l 257
 117.118164062 202 l 257
 143.21484375 350 l 257
EndSplineSet
EndChar

StartChar: colon.ss03.tabl
Encoding: 65733 -1 625
GlifName: colon.ss03.tabl
Width: 625
VWidth: 0
Flags: HW
LayerCount: 2
Fore
SplineSet
277 404 m 260
 277 464 325 512 385 512 c 260
 445 512 493 464 493 404 c 260
 493 344 445 296 385 296 c 260
 325 296 277 344 277 404 c 260
220 97 m 260
 220 157 268 205 328 205 c 260
 388 205 436 157 436 97 c 260
 436 37 388 -11 328 -11 c 260
 268 -11 220 37 220 97 c 260
EndSplineSet
EndChar

StartChar: divide.ss03.tabl
Encoding: 65734 -1 626
GlifName: divide.ss03.tabl
Width: 625
VWidth: 0
Flags: HW
LayerCount: 2
Fore
SplineSet
284 479 m 260
 284 539 332 587 392 587 c 260
 452 587 500 539 500 479 c 260
 500 419 452 371 392 371 c 260
 332 371 284 419 284 479 c 260
226 72 m 260
 226 132 274 180 334 180 c 260
 394 180 442 132 442 72 c 260
 442 12 394 -36 334 -36 c 260
 274 -36 226 12 226 72 c 260
143 350 m 261
 605 350 l 261
 579 202 l 261
 117 202 l 261
 143 350 l 261
EndSplineSet
EndChar

StartChar: period.ss03.tabl
Encoding: 65735 -1 627
GlifName: period.ss03.tabl
Width: 625
VWidth: 0
Flags: HW
HStem: -11 216<247.73 377.27>
VStem: 204.5 216<32.2301 161.77>
LayerCount: 2
Fore
SplineSet
224.5 97 m 260
 224.5 157 272.5 205 332.5 205 c 260
 392.5 205 440.5 157 440.5 97 c 260
 440.5 37 392.5 -11 332.5 -11 c 260
 272.5 -11 224.5 37 224.5 97 c 260
EndSplineSet
EndChar

StartChar: cent
Encoding: 162 162 628
GlifName: cent
Width: 593
VWidth: 0
Flags: HW
LayerCount: 2
Fore
SplineSet
385.553710938 649.666992188 m 257
 445.553710938 649.666992188 l 257
 331 0 l 257
 271 0 l 257
 385.553710938 649.666992188 l 257
87.05078125 292 m 0
 87.05078125 477.192350416 208.231662109 596 373.05078125 596 c 0
 539.03841345 596 623.05078125 510 623.05078125 368 c 257
 443.05078125 368 l 257
 443.05078125 419.13725038 416.876820081 446 367.05078125 446 c 0
 311.123020312 446 269.05078125 382.033024283 269.05078125 297 c 0
 269.05078125 238.465993861 296.435944271 208 349.05078125 208 c 4
 397.415855135 208 424.334879617 231.475893444 435.05078125 283 c 257
 610.05078125 283 l 257
 586.219112042 139.863923679 487.955698122 57 342.05078125 57 c 0
 186.965664663 57 87.05078125 149.078421969 87.05078125 292 c 0
EndSplineSet
EndChar

StartChar: sterling
Encoding: 163 163 629
GlifName: sterling
Width: 634
Flags: HW
LayerCount: 2
Fore
SplineSet
108.415039062 388 m 1
 535.415039062 388 l 1
 521.844726562 260 l 5
 85.8447265625 260 l 1
 108.415039062 388 l 1
484.462890625 462 m 1
 484.462890625 490.787526059 468.41462656 508 441.57421875 508 c 0
 413.73232922 508 393.429790867 484.496913126 386.2890625 444 c 2
 352.2578125 251 l 2
 345.364870422 211.908346859 324.349421958 182.160401965 293.623046875 168 c 1
 628.623046875 168 l 1
 599 0 l 1
 35 0 l 1
 65.6806640625 174 l 1
 121.474611117 188.540036947 156.620801725 219.02763403 163.668945312 259 c 2
 199.110351562 460 l 2
 220.029987801 578.64221341 320.007592197 658 448.0234375 658 c 0
 587.874349404 658 674.462890625 583.051249484 674.462890625 462 c 1
 484.462890625 462 l 1
EndSplineSet
EndChar

StartChar: currency
Encoding: 164 164 630
GlifName: currency
Width: 588
Flags: HW
LayerCount: 2
Fore
SplineSet
283.547851562 281 m 0
 276.318359375 240 294.91015625 215 332.91015625 215 c 0
 369.91015625 215 397.318359375 240 404.547851562 281 c 0
 411.600585938 321 392.185546875 347 355.185546875 347 c 0
 318.185546875 347 290.600585938 321 283.547851562 281 c 0
433.875976562 453 m 1
 518.27734375 529 l 1
 616.293945312 410 l 1
 532.48046875 343 l 1
 536.306640625 325 535.603515625 304 531.547851562 281 c 0
 527.668945312 259 519.7890625 237 509.086914062 216 c 1
 570.096679688 148 l 1
 430.11328125 29 l 1
 370.04296875 108 l 1
 352.162109375 103 333.80859375 101 312.80859375 101 c 0
 290.80859375 101 272.162109375 103 256.04296875 108 c 1
 168.11328125 29 l 1
 70.0966796875 148 l 1
 156.086914062 216 l 1
 152.7890625 237 152.668945312 259 156.547851562 281 c 0
 160.07421875 301 166.600585938 321 177.303710938 342 c 1
 116.293945312 410 l 1
 256.27734375 529 l 1
 313.875976562 453 l 1
 334.7578125 458 355.287109375 461 375.287109375 461 c 0
 395.287109375 461 414.7578125 458 433.875976562 453 c 1
EndSplineSet
EndChar

StartChar: degree
Encoding: 176 176 631
GlifName: degree
Width: 425
Flags: HW
LayerCount: 2
Fore
SplineSet
247 481 m 4
 247 452 265 435 294 435 c 4
 326 435 350 462 350 500 c 4
 350 529 332 547 303 547 c 4
 271 547 247 519 247 481 c 4
487 509 m 4
 487 396 401 311 288 311 c 4
 183 311 110 377 110 472 c 4
 110 585 197 671 310 671 c 4
 415 671 487 605 487 509 c 4
EndSplineSet
EndChar

StartChar: yen
Encoding: 165 165 632
GlifName: yen
Width: 657
VWidth: 0
Flags: HW
LayerCount: 2
Fore
SplineSet
127.446289062 167 m 257
 589.446289062 167 l 257
 568.639648438 49 l 257
 106.639648438 49 l 257
 127.446289062 167 l 257
155.834960938 328 m 257
 617.834960938 328 l 257
 597.028320312 210 l 257
 135.028320312 210 l 257
 155.834960938 328 l 257
273.7890625 237 m 257
 129.612304688 650 l 257
 326.612304688 650 l 257
 391.470703125 411 l 261
 538.612304688 650 l 257
 756.612304688 650 l 257
 463.61328125 236 l 257
 422 0 l 257
 232 0 l 257
 273.7890625 237 l 257
EndSplineSet
EndChar

StartChar: brokenbar
Encoding: 166 166 633
GlifName: brokenbar
Width: 276
Flags: HW
LayerCount: 2
Fore
SplineSet
186.23828125 801 m 1
 372.23828125 801 l 5
 293.243164062 353 l 5
 107.243164062 353 l 1
 186.23828125 801 l 1
274.729492188 248 m 5
 195.734375 -200 l 5
 9.734375 -200 l 1
 88.7294921875 248 l 1
 274.729492188 248 l 5
EndSplineSet
EndChar

StartChar: uni2070
Encoding: 8304 8304 634
GlifName: uni2070
Width: 461
VWidth: 364
Flags: HW
LayerCount: 2
Fore
SplineSet
33 554 m 260
 33 679 112 762 231 762 c 260
 349 762 428 679 428 554 c 260
 428 428 349 344 231 344 c 260
 112 344 33 428 33 554 c 260
285 554 m 260
 285 610 265 642 231 642 c 260
 196 642 176 610 176 554 c 260
 176 497 196 464 231 464 c 260
 265 464 285 497 285 554 c 260
EndSplineSet
EndChar

StartChar: uni2074
Encoding: 8308 8308 635
GlifName: uni2074
Width: 437
VWidth: 364
Flags: HW
LayerCount: 2
Fore
SplineSet
370 436 m 257
 370 364 l 257
 230 364 l 257
 230 436 l 257
 25 436 l 257
 25 553 l 257
 200 750 l 261
 370 750 l 257
 370 543 l 257
 422 543 l 257
 422 436 l 257
 370 436 l 257
230 543 m 257
 230 624 l 257
 167 543 l 257
 230 543 l 257
EndSplineSet
EndChar

StartChar: uni2075
Encoding: 8309 8309 636
GlifName: uni2075
Width: 447
VWidth: 364
Flags: HW
LayerCount: 2
Fore
SplineSet
259 488 m 256
 259 464.822265625 246.5 452 224 452 c 256
 202.704101562 452 189.013671875 463.116210938 188 481 c 257
 35 481 l 257
 42.232421875 400.61328125 121.06640625 346 231 346 c 256
 341.296875 346 412 403.940429688 412 494 c 256
 412 565.704101562 360.2734375 615 286 615 c 256
 246.704101562 615 213.958007812 604.7890625 193 586 c 257
 201 637 l 257
 389 637 l 257
 389 750 l 257
 75 750 l 257
 37 505 l 257
 186 505 l 257
 192.599609375 518.815429688 204.385742188 526 219 526 c 256
 244.06640625 526 259 511.92578125 259 488 c 256
EndSplineSet
EndChar

StartChar: uni2076
Encoding: 8310 8310 637
GlifName: uni2076
Width: 457
VWidth: 364
Flags: HW
LayerCount: 2
Fore
SplineSet
35 557 m 256
 35 684.889648438 107.954101562 762 230 762 c 256
 328.909179688 762 397.272460938 715.905273438 414 638 c 257
 261 638 l 257
 255.90234375 651.587890625 248.220703125 659 232 659 c 256
 205.787109375 659 188 627 188 579 c 256
 188 574 188 569 188 564 c 257
 206.377929688 598.520507812 249.748046875 620 299 620 c 256
 369.891601562 620 422 567.0234375 422 495 c 256
 422 413.088867188 350.755859375 356 248 356 c 256
 117.146484375 356 35 433.806640625 35 557 c 256
200 490 m 256
 200 470.961914062 215.416992188 457 237 457 c 256
 256.104492188 457 269 469.237304688 269 488 c 256
 269 506.762695312 255.6953125 519 235 519 c 256
 214 519 200 507.243164062 200 490 c 256
EndSplineSet
EndChar

StartChar: uni2077
Encoding: 8311 8311 638
GlifName: uni2077
Width: 454
VWidth: 364
Flags: HW
LayerCount: 2
Fore
SplineSet
288 364 m 257
 288 473.727539062 321.26953125 547.393554688 419 602 c 257
 419 750 l 257
 35 750 l 257
 35 612 l 257
 238 612 l 261
 162.483398438 559.458007812 101 494.830078125 101 364 c 257
 288 364 l 257
EndSplineSet
EndChar

StartChar: uni2078
Encoding: 8312 8312 639
GlifName: uni2078
Width: 447
VWidth: 364
Flags: HW
LayerCount: 2
Fore
SplineSet
223 762 m 257
 223 657 l 257
 200.7109375 657 188 646.763671875 188 628.814453125 c 256
 188 611.104492188 200.3515625 601 222 601 c 257
 222 546 l 257
 108.075195312 546 45 582.063476562 45 647.201171875 c 256
 45 715.846679688 116.561523438 762 223 762 c 257
223 461 m 257
 223 356 l 257
 110.229492188 356 35 402.623046875 35 472.51171875 c 256
 35 539.037109375 101.790039062 576 222 576 c 257
 222 521 l 257
 200.012695312 521 188 510.688476562 188 491.814453125 c 256
 188 472.3125 200.849609375 461 223 461 c 257
236 601 m 257
 236 521 l 257
 211 521 l 257
 211 601 l 257
 236 601 l 257
223 762 m 257
 330.21875 762 402 715.762695312 402 646.69921875 c 256
 402 581.619140625 339.392578125 546 225 546 c 257
 225 601 l 257
 246.399414062 601 259 611.379882812 259 629.006835938 c 256
 259 646.8828125 245.989257812 657 223 657 c 257
 223 762 l 257
223 461 m 257
 245.795898438 461 259 472.163085938 259 491.436523438 c 256
 259 510.159179688 246.532226562 521 225 521 c 257
 225 576 l 257
 345.59765625 576 412 539.532226562 412 473.301757812 c 256
 412 403.081054688 336.140625 356 223 356 c 257
 223 461 l 257
EndSplineSet
EndChar

StartChar: uni2079
Encoding: 8313 8313 640
GlifName: uni2079
Width: 457
VWidth: 364
Flags: HW
LayerCount: 2
Fore
SplineSet
422 561 m 256
 422 433.110351562 347.174804688 356 222 356 c 256
 120.403320312 356 50.181640625 402.094726562 33 480 c 257
 186 480 l 257
 188.625976562 464.412109375 199.219726562 459 216 459 c 256
 247.57421875 459 269 491 269 539 c 256
 269 544 269 549 269 554 c 257
 250.622070312 519.479492188 207.251953125 498 158 498 c 256
 87.1083984375 498 35 550.9765625 35 623 c 256
 35 704.911132812 106.244140625 762 209 762 c 256
 339.853515625 762 422 684.193359375 422 561 c 256
257 628 m 256
 257 647.038085938 241.583007812 661 220 661 c 256
 200.895507812 661 188 648.762695312 188 630 c 256
 188 611.237304688 201.3046875 599 222 599 c 256
 243 599 257 610.756835938 257 628 c 256
EndSplineSet
EndChar

StartChar: uni207A
Encoding: 8314 8314 641
GlifName: uni207A_
Width: 388
VWidth: 364
Flags: HW
LayerCount: 2
Fore
SplineSet
258 621 m 257
 363 621 l 257
 363 493 l 257
 258 493 l 257
 258 388 l 257
 130 388 l 257
 130 493 l 257
 25 493 l 257
 25 621 l 257
 130 621 l 257
 130 726 l 257
 258 726 l 257
 258 621 l 257
EndSplineSet
EndChar

StartChar: uni207B
Encoding: 8315 8315 642
GlifName: uni207B_
Width: 388
VWidth: 364
Flags: HW
LayerCount: 2
Fore
SplineSet
25 621 m 1
 363 621 l 1
 363 493 l 1
 25 493 l 1
 25 621 l 1
EndSplineSet
EndChar

StartChar: uni207C
Encoding: 8316 8316 643
GlifName: uni207C_
Width: 388
VWidth: 364
Flags: HW
LayerCount: 2
Fore
SplineSet
25 528 m 5
 363 528 l 5
 363 400 l 5
 25 400 l 5
 25 528 l 5
25 718 m 5
 363 718 l 5
 363 590 l 5
 25 590 l 5
 25 718 l 5
EndSplineSet
EndChar

StartChar: uni207D
Encoding: 8317 8317 644
GlifName: uni207D_
Width: 290
VWidth: 364
Flags: HW
LayerCount: 2
Fore
SplineSet
275 250 m 261
 124 250 l 261
 67.208984375 307.124023438 25 427.231445312 25 551 c 256
 25 674.768554688 67.208984375 794.875976562 124 852 c 257
 275 852 l 257
 210.079101562 789.749023438 178 682.825195312 178 551 c 256
 178 419.174804688 210.079101562 312.250976562 275 250 c 261
EndSplineSet
EndChar

StartChar: uni207E
Encoding: 8318 8318 645
GlifName: uni207E_
Width: 290
VWidth: 364
Flags: HW
LayerCount: 2
Fore
SplineSet
15 852 m 257
 166 852 l 257
 222.791015625 794.875976562 265 674.768554688 265 551 c 256
 265 427.231445312 222.791015625 307.124023438 166 250 c 257
 15 250 l 257
 79.9208984375 312.250976562 112 419.174804688 112 551 c 256
 112 682.825195312 79.9208984375 789.749023438 15 852 c 257
EndSplineSet
EndChar

StartChar: uni207F
Encoding: 8319 8319 646
GlifName: uni207F_
Width: 506
VWidth: 364
Flags: HW
LayerCount: 2
Fore
SplineSet
315 570 m 258
 315 618.97265625 290.888671875 640 253 640 c 256
 219.735351562 640 195 613.189453125 195 576 c 257
 156 582 l 257
 156 698.907226562 239.92578125 770 317 770 c 260
 402.856445312 770 465 712.819335938 465 610 c 258
 465 363 l 257
 315 363 l 257
 315 570 l 258
45 750 m 257
 195 750 l 257
 195 363 l 257
 45 363 l 257
 45 750 l 257
EndSplineSet
EndChar

StartChar: uni2080
Encoding: 8320 8320 647
GlifName: uni2080
Width: 461
VWidth: -100
Flags: HW
LayerCount: 2
Fore
SplineSet
33 90 m 260
 33 215 112 298 231 298 c 260
 349 298 428 215 428 90 c 260
 428 -36 349 -120 231 -120 c 260
 112 -120 33 -36 33 90 c 260
285 90 m 260
 285 146 265 178 231 178 c 260
 196 178 176 146 176 90 c 260
 176 33 196 0 231 0 c 260
 265 0 285 33 285 90 c 260
EndSplineSet
EndChar

StartChar: uni2081
Encoding: 8321 8321 648
GlifName: uni2081
Width: 325
VWidth: -100
Flags: HW
LayerCount: 2
Fore
SplineSet
130 286 m 257
 280 286 l 257
 280 -100 l 257
 130 -100 l 257
 130 91 l 257
 25 91 l 257
 25 212 l 257
 71 212 l 258
 109.834960938 212 130 224.08984375 130 266 c 258
 130 286 l 257
EndSplineSet
EndChar

StartChar: uni2082
Encoding: 8322 8322 649
GlifName: uni2082
Width: 447
VWidth: -100
Flags: HW
LayerCount: 2
Fore
SplineSet
201 18 m 257
 408 18 l 257
 408 -100 l 257
 35 -100 l 257
 35 -66 l 258
 35 75 117 109 182 127 c 0
 224 139 259 143 259 165 c 256
 259 182 247 191 227 191 c 256
 204 191 189 178 188 158 c 257
 35 158 l 257
 43 241 120 298 227 298 c 256
 339 298 412 245 412 165 c 256
 412 96 351 71 294 54 c 0
 255 42 217 34 201 18 c 257
EndSplineSet
EndChar

StartChar: uni2083
Encoding: 8323 8323 650
GlifName: uni2083
Width: 457
VWidth: -100
Flags: HW
LayerCount: 2
Fore
SplineSet
275 132 m 257
 275 55 l 257
 192 55 l 257
 192 132 l 257
 275 132 l 257
237 75 m 257
 237 132 l 257
 251.040039062 132 259 140.68359375 259 156 c 256
 259 176.389648438 245.625 189 224 189 c 256
 202.126953125 189 188.588867188 176.213867188 188 155 c 257
 35 155 l 257
 42.37890625 240.862304688 119.094726562 298 227 298 c 256
 334.530273438 298 412 249.423828125 412 182 c 256
 412 109.711914062 355.227539062 75 237 75 c 257
237 112 m 261
 358.993164062 112 422 73.85546875 422 0 c 256
 422 -64.048828125 349.155273438 -108 243 -108 c 256
 127.037109375 -108 43.16015625 -47.9150390625 35 41 c 257
 188 41 l 257
 191.009765625 16.8974609375 207.833007812 3 234 3 c 256
 256.149414062 3 269 12.9130859375 269 30 c 256
 269 45.97265625 257.4453125 55 237 55 c 257
 237 112 l 261
EndSplineSet
EndChar

StartChar: uni2084
Encoding: 8324 8324 651
GlifName: uni2084
Width: 437
VWidth: -100
Flags: HW
LayerCount: 2
Fore
SplineSet
370 -28 m 257
 370 -100 l 257
 230 -100 l 257
 230 -28 l 257
 25 -28 l 257
 25 89 l 257
 200 286 l 261
 370 286 l 257
 370 79 l 257
 422 79 l 257
 422 -28 l 257
 370 -28 l 257
230 79 m 257
 230 160 l 257
 167 79 l 257
 230 79 l 257
EndSplineSet
EndChar

StartChar: uni2085
Encoding: 8325 8325 652
GlifName: uni2085
Width: 447
VWidth: -100
Flags: HW
LayerCount: 2
Fore
SplineSet
259 24 m 256
 259 0.822265625 246.5 -12 224 -12 c 256
 202.704101562 -12 189.013671875 -0.8837890625 188 17 c 257
 35 17 l 257
 42.232421875 -63.38671875 121.06640625 -118 231 -118 c 256
 341.296875 -118 412 -60.0595703125 412 30 c 256
 412 101.704101562 360.2734375 151 286 151 c 256
 246.704101562 151 213.958007812 140.7890625 193 122 c 257
 201 173 l 257
 389 173 l 257
 389 286 l 257
 75 286 l 257
 37 41 l 257
 186 41 l 257
 192.599609375 54.8154296875 204.385742188 62 219 62 c 256
 244.06640625 62 259 47.92578125 259 24 c 256
EndSplineSet
EndChar

StartChar: uni2086
Encoding: 8326 8326 653
GlifName: uni2086
Width: 457
VWidth: -100
Flags: HW
LayerCount: 2
Fore
SplineSet
35 93 m 256
 35 220.889648438 107.954101562 298 230 298 c 256
 328.909179688 298 397.272460938 251.905273438 414 174 c 257
 261 174 l 257
 255.90234375 187.587890625 248.220703125 195 232 195 c 256
 205.787109375 195 188 163 188 115 c 256
 188 110 188 105 188 100 c 257
 206.377929688 134.520507812 249.748046875 156 299 156 c 256
 369.891601562 156 422 103.0234375 422 31 c 256
 422 -50.9111328125 350.755859375 -108 248 -108 c 256
 117.146484375 -108 35 -30.193359375 35 93 c 256
200 26 m 256
 200 6.9619140625 215.416992188 -7 237 -7 c 256
 256.104492188 -7 269 5.2373046875 269 24 c 256
 269 42.7626953125 255.6953125 55 235 55 c 256
 214 55 200 43.2431640625 200 26 c 256
EndSplineSet
EndChar

StartChar: uni2087
Encoding: 8327 8327 654
GlifName: uni2087
Width: 454
VWidth: -100
Flags: HW
LayerCount: 2
Fore
SplineSet
288 -100 m 257
 288 9.7275390625 321.26953125 83.3935546875 419 138 c 257
 419 286 l 257
 35 286 l 257
 35 148 l 257
 238 148 l 261
 162.483398438 95.4580078125 101 30.830078125 101 -100 c 257
 288 -100 l 257
EndSplineSet
EndChar

StartChar: uni2088
Encoding: 8328 8328 655
GlifName: uni2088
Width: 447
VWidth: -100
Flags: HW
LayerCount: 2
Fore
SplineSet
223 298 m 257
 223 193 l 257
 200.7109375 193 188 182.763671875 188 164.814453125 c 256
 188 147.104492188 200.3515625 137 222 137 c 257
 222 82 l 257
 108.075195312 82 45 118.063476562 45 183.201171875 c 256
 45 251.846679688 116.561523438 298 223 298 c 257
223 -3 m 257
 223 -108 l 257
 110.229492188 -108 35 -61.376953125 35 8.51171875 c 256
 35 75.037109375 101.790039062 112 222 112 c 257
 222 57 l 257
 200.012695312 57 188 46.6884765625 188 27.814453125 c 256
 188 8.3125 200.849609375 -3 223 -3 c 257
236 137 m 257
 236 57 l 257
 211 57 l 257
 211 137 l 257
 236 137 l 257
223 298 m 257
 330.21875 298 402 251.762695312 402 182.69921875 c 256
 402 117.619140625 339.392578125 82 225 82 c 257
 225 137 l 257
 246.399414062 137 259 147.379882812 259 165.006835938 c 256
 259 182.8828125 245.989257812 193 223 193 c 257
 223 298 l 257
223 -3 m 257
 245.795898438 -3 259 8.1630859375 259 27.4365234375 c 256
 259 46.1591796875 246.532226562 57 225 57 c 257
 225 112 l 257
 345.59765625 112 412 75.5322265625 412 9.3017578125 c 256
 412 -60.9189453125 336.140625 -108 223 -108 c 257
 223 -3 l 257
EndSplineSet
EndChar

StartChar: uni2089
Encoding: 8329 8329 656
GlifName: uni2089
Width: 457
VWidth: -100
Flags: HW
LayerCount: 2
Fore
SplineSet
422 97 m 256
 422 -30.8896484375 347.174804688 -108 222 -108 c 256
 120.403320312 -108 50.181640625 -61.9052734375 33 16 c 257
 186 16 l 257
 188.625976562 0.412109375 199.219726562 -5 216 -5 c 256
 247.57421875 -5 269 27 269 75 c 256
 269 80 269 85 269 90 c 257
 250.622070312 55.4794921875 207.251953125 34 158 34 c 256
 87.1083984375 34 35 86.9765625 35 159 c 256
 35 240.911132812 106.244140625 298 209 298 c 256
 339.853515625 298 422 220.193359375 422 97 c 256
257 164 m 256
 257 183.038085938 241.583007812 197 220 197 c 256
 200.895507812 197 188 184.762695312 188 166 c 256
 188 147.237304688 201.3046875 135 222 135 c 256
 243 135 257 146.756835938 257 164 c 256
EndSplineSet
EndChar

StartChar: uni208A
Encoding: 8330 8330 657
GlifName: uni208A_
Width: 388
VWidth: -100
Flags: HW
LayerCount: 2
Fore
SplineSet
258 157 m 257
 363 157 l 257
 363 29 l 257
 258 29 l 257
 258 -76 l 257
 130 -76 l 257
 130 29 l 257
 25 29 l 257
 25 157 l 257
 130 157 l 257
 130 262 l 257
 258 262 l 257
 258 157 l 257
EndSplineSet
EndChar

StartChar: uni208B
Encoding: 8331 8331 658
GlifName: uni208B_
Width: 388
VWidth: -100
Flags: HW
LayerCount: 2
Fore
SplineSet
25 157 m 1
 363 157 l 1
 363 29 l 1
 25 29 l 1
 25 157 l 1
EndSplineSet
EndChar

StartChar: uni208C
Encoding: 8332 8332 659
GlifName: uni208C_
Width: 388
VWidth: -100
Flags: HW
LayerCount: 2
Fore
SplineSet
25 64 m 5
 363 64 l 5
 363 -64 l 5
 25 -64 l 5
 25 64 l 5
25 254 m 5
 363 254 l 5
 363 126 l 5
 25 126 l 5
 25 254 l 5
EndSplineSet
EndChar

StartChar: uni208D
Encoding: 8333 8333 660
GlifName: uni208D_
Width: 290
VWidth: -100
Flags: HW
LayerCount: 2
Fore
SplineSet
275 -214 m 261
 124 -214 l 261
 67.208984375 -156.875976562 25 -36.7685546875 25 87 c 256
 25 210.768554688 67.208984375 330.875976562 124 388 c 257
 275 388 l 257
 210.079101562 325.749023438 178 218.825195312 178 87 c 256
 178 -44.8251953125 210.079101562 -151.749023438 275 -214 c 261
EndSplineSet
EndChar

StartChar: uni208E
Encoding: 8334 8334 661
GlifName: uni208E_
Width: 290
VWidth: -100
Flags: HW
LayerCount: 2
Fore
SplineSet
15 388 m 257
 166 388 l 257
 222.791015625 330.875976562 265 210.768554688 265 87 c 256
 265 -36.7685546875 222.791015625 -156.875976562 166 -214 c 257
 15 -214 l 257
 79.9208984375 -151.749023438 112 -44.8251953125 112 87 c 256
 112 218.825195312 79.9208984375 325.749023438 15 388 c 257
EndSplineSet
EndChar

StartChar: uni2099
Encoding: 8345 8345 662
GlifName: uni2099
Width: 506
VWidth: -100
Flags: HW
LayerCount: 2
Fore
SplineSet
315 106 m 258
 315 154.97265625 290.888671875 176 253 176 c 256
 219.735351562 176 195 149.189453125 195 112 c 257
 156 118 l 257
 156 234.907226562 239.92578125 306 317 306 c 260
 402.856445312 306 465 248.819335938 465 146 c 258
 465 -101 l 257
 315 -101 l 257
 315 106 l 258
45 286 m 257
 195 286 l 257
 195 -101 l 257
 45 -101 l 257
 45 286 l 257
EndSplineSet
EndChar

StartChar: uni2460
Encoding: 9312 9312 663
GlifName: uni2460
Width: 885
VWidth: 132
Flags: HW
LayerCount: 2
Fore
SplineSet
497.125976562 62 m 0
 656.611328125 62 765 168.971679688 765 326.372070312 c 0
 765 481.58203125 659.37109375 586 502.360351562 586 c 0
 344.740234375 586 240 480.345703125 240 321.349609375 c 0
 240 164.859375 341.977539062 62 497.125976562 62 c 0
900 325.092773438 m 0
 900 96.375 736.604492188 -60 497.619140625 -60 c 0
 262.064453125 -60 105 89.9345703125 105 314.795898438 c 0
 105 546.490234375 269.092773438 708 504.494140625 708 c 0
 738.020507812 708 900 551.180664062 900 325.092773438 c 0
450 518 m 261
 600 518 l 261
 600 132 l 261
 450 132 l 261
 450 323 l 261
 345 323 l 261
 345 444 l 261
 391 444 l 262
 430 444 450 456 450 498 c 262
 450 518 l 261
EndSplineSet
EndChar

StartChar: uni2461
Encoding: 9313 9313 664
GlifName: uni2461
Width: 885
VWidth: 132
Flags: HW
LayerCount: 2
Fore
SplineSet
497.125976562 62 m 4
 656.611328125 62 765 168.971679688 765 326.372070312 c 4
 765 481.58203125 659.37109375 586 502.360351562 586 c 4
 344.740234375 586 240 480.345703125 240 321.349609375 c 4
 240 164.859375 341.977539062 62 497.125976562 62 c 4
900 325.092773438 m 4
 900 96.375 736.604492188 -60 497.619140625 -60 c 4
 262.064453125 -60 105 89.9345703125 105 314.795898438 c 4
 105 546.490234375 269.092773438 708 504.494140625 708 c 4
 738.020507812 708 900 551.180664062 900 325.092773438 c 4
480 250 m 257
 687 250 l 257
 687 132 l 257
 314 132 l 257
 314 166 l 258
 314 274 357 330 461 359 c 0
 542 382 538 380 538 397 c 256
 538 414 526 423 506 423 c 256
 483 423 468 410 467 390 c 257
 314 390 l 257
 322 473 400 530 506 530 c 256
 618 530 691 477 691 397 c 256
 691 343 657 311 573 286 c 0
 480 257 492 262 480 250 c 257
EndSplineSet
EndChar

StartChar: uni2462
Encoding: 9314 9314 665
GlifName: uni2462
Width: 885
VWidth: 132
Flags: HW
LayerCount: 2
Fore
SplineSet
900 325.092773438 m 0
 900 96.375 736.604492188 -60 497.619140625 -60 c 0
 262.064453125 -60 105 89.9345703125 105 314.795898438 c 0
 105 546.490234375 269.092773438 708 504.494140625 708 c 0
 738.020507812 708 900 551.180664062 900 325.092773438 c 0
497.125976562 62 m 0
 656.611328125 62 765 168.971679688 765 326.372070312 c 0
 765 481.58203125 659.37109375 586 502.360351562 586 c 0
 344.740234375 586 240 480.345703125 240 321.349609375 c 0
 240 164.859375 341.977539062 62 497.125976562 62 c 0
628.489257812 326.0234375 m 1
 673.206054688 307.997070312 696 276.510742188 696 232 c 0
 696 168 623 124 517 124 c 0
 401 124 317 184 309 273 c 1
 462 273 l 1
 465 249 482 235 508 235 c 0
 530 235 543 245 543 262 c 0
 543 278 531 287 511 287 c 2
 466 287 l 1
 466 364 l 1
 511 364 l 2
 525 364 533 373 533 388 c 0
 533 408 520 421 498 421 c 0
 476 421 463 408 462 387 c 1
 309 387 l 1
 316 473 393 530 501 530 c 0
 608 530 686 481 686 414 c 0
 686 372.5234375 667.084960938 343.325195312 628.489257812 326.0234375 c 1
EndSplineSet
EndChar

StartChar: uni2463
Encoding: 9315 9315 666
GlifName: uni2463
Width: 885
VWidth: 132
Flags: HW
LayerCount: 2
Fore
SplineSet
497.125976562 62 m 0
 656.611328125 62 765 168.971679688 765 326.372070312 c 0
 765 481.58203125 659.37109375 586 502.360351562 586 c 0
 344.740234375 586 240 480.345703125 240 321.349609375 c 0
 240 164.859375 341.977539062 62 497.125976562 62 c 0
900 325.092773438 m 0
 900 96.375 736.604492188 -60 497.619140625 -60 c 0
 262.064453125 -60 105 89.9345703125 105 314.795898438 c 0
 105 546.490234375 269.092773438 708 504.494140625 708 c 0
 738.020507812 708 900 551.180664062 900 325.092773438 c 0
643 204 m 261
 643 132 l 261
 503 132 l 261
 503 204 l 261
 298 204 l 261
 298 321 l 261
 473 518 l 261
 643 518 l 261
 643 311 l 261
 695 311 l 261
 695 204 l 261
 643 204 l 261
503 311 m 261
 503 392 l 261
 440 311 l 261
 503 311 l 261
EndSplineSet
EndChar

StartChar: uni2464
Encoding: 9316 9316 667
GlifName: uni2464
Width: 885
VWidth: 132
Flags: HW
LayerCount: 2
Fore
SplineSet
497.125976562 62 m 0
 656.611328125 62 765 168.971679688 765 326.372070312 c 0
 765 481.58203125 659.37109375 586 502.360351562 586 c 0
 344.740234375 586 240 480.345703125 240 321.349609375 c 0
 240 164.859375 341.977539062 62 497.125976562 62 c 0
900 325.092773438 m 0
 900 96.375 736.604492188 -60 497.619140625 -60 c 0
 262.064453125 -60 105 89.9345703125 105 314.795898438 c 0
 105 546.490234375 269.092773438 708 504.494140625 708 c 0
 738.020507812 708 900 551.180664062 900 325.092773438 c 0
528 256 m 260
 528 233 515 220 493 220 c 260
 472 220 458 231 457 249 c 261
 304 249 l 261
 311 169 390 114 500 114 c 260
 610 114 681 172 681 262 c 260
 681 334 629 383 555 383 c 260
 516 383 483 373 462 354 c 261
 470 405 l 261
 658 405 l 261
 658 518 l 261
 344 518 l 261
 306 273 l 261
 455 273 l 261
 462 287 473 294 488 294 c 260
 513 294 528 280 528 256 c 260
EndSplineSet
EndChar

StartChar: uni2465
Encoding: 9317 9317 668
GlifName: uni2465
Width: 885
VWidth: 132
Flags: HW
LayerCount: 2
Fore
SplineSet
497.125976562 62 m 0
 656.611328125 62 765 168.971679688 765 326.372070312 c 0
 765 481.58203125 659.37109375 586 502.360351562 586 c 0
 344.740234375 586 240 480.345703125 240 321.349609375 c 0
 240 164.859375 341.977539062 62 497.125976562 62 c 0
900 325.092773438 m 0
 900 96.375 736.604492188 -60 497.619140625 -60 c 0
 262.064453125 -60 105 89.9345703125 105 314.795898438 c 0
 105 546.490234375 269.092773438 708 504.494140625 708 c 0
 738.020507812 708 900 551.180664062 900 325.092773438 c 0
299 325 m 260
 299 453 372 530 494 530 c 260
 593 530 661 484 678 406 c 261
 525 406 l 261
 520 421 511 427 496 427 c 260
 470 427 452 395 452 347 c 260
 452 342 452 337 452 332 c 261
 470 366 513 388 563 388 c 260
 634 388 686 335 686 263 c 260
 686 181 615 124 512 124 c 260
 381 124 299 202 299 325 c 260
464 258 m 260
 464 239 479 225 501 225 c 260
 520 225 533 237 533 256 c 260
 533 275 520 287 499 287 c 260
 478 287 464 275 464 258 c 260
EndSplineSet
EndChar

StartChar: uni2466
Encoding: 9318 9318 669
GlifName: uni2466
Width: 885
VWidth: 132
Flags: HW
LayerCount: 2
Fore
SplineSet
497.125976562 62 m 0
 656.611328125 62 765 168.971679688 765 326.372070312 c 0
 765 481.58203125 659.37109375 586 502.360351562 586 c 0
 344.740234375 586 240 480.345703125 240 321.349609375 c 0
 240 164.859375 341.977539062 62 497.125976562 62 c 0
900 325.092773438 m 0
 900 96.375 736.604492188 -60 497.619140625 -60 c 0
 262.064453125 -60 105 89.9345703125 105 314.795898438 c 0
 105 546.490234375 269.092773438 708 504.494140625 708 c 0
 738.020507812 708 900 551.180664062 900 325.092773438 c 0
565 125 m 261
 565 242 603 311 695 363 c 261
 695 511 l 261
 311 511 l 261
 311 373 l 261
 515 373 l 261
 416 304 377 234 377 125 c 261
 565 125 l 261
EndSplineSet
EndChar

StartChar: uni2467
Encoding: 9319 9319 670
GlifName: uni2467
Width: 885
VWidth: 132
Flags: HW
LayerCount: 2
Fore
SplineSet
900 325.092773438 m 0
 900 96.375 736.604492188 -60 497.619140625 -60 c 0
 262.064453125 -60 105 89.9345703125 105 314.795898438 c 0
 105 546.490234375 269.092773438 708 504.494140625 708 c 0
 738.020507812 708 900 551.180664062 900 325.092773438 c 0
497.125976562 62 m 0
 656.611328125 62 765 168.971679688 765 326.372070312 c 0
 765 481.58203125 659.37109375 586 502.360351562 586 c 0
 344.740234375 586 240 480.345703125 240 321.349609375 c 0
 240 164.859375 341.977539062 62 497.125976562 62 c 0
391.560546875 330.02734375 m 1
 347.426757812 346.509765625 324 375.36328125 324 415 c 0
 324 484 396 530 502 530 c 0
 609 530 681 484 681 415 c 0
 681 375.193359375 657.372070312 346.262695312 612.872070312 329.81640625 c 1
 663.747070312 313.390625 691 283.09375 691 241 c 0
 691 171 615 124 502 124 c 0
 389 124 314 171 314 241 c 0
 314 283.696289062 340.801757812 313.803710938 391.560546875 330.02734375 c 1
501 369 m 2
 504 369 l 2
 525 369 538 379 538 397 c 0
 538 415 525 425 502 425 c 0
 480 425 467 415 467 397 c 0
 467 379 479 369 501 369 c 2
501 289 m 2
 479 289 467 279 467 260 c 0
 467 240 480 229 502 229 c 0
 525 229 538 240 538 259 c 0
 538 278 526 289 504 289 c 2
 501 289 l 2
EndSplineSet
EndChar

StartChar: uni2468
Encoding: 9320 9320 671
GlifName: uni2468
Width: 885
VWidth: 132
Flags: HW
LayerCount: 2
Fore
SplineSet
497.125976562 62 m 0
 656.611328125 62 765 168.971679688 765 326.372070312 c 0
 765 481.58203125 659.37109375 586 502.360351562 586 c 0
 344.740234375 586 240 480.345703125 240 321.349609375 c 0
 240 164.859375 341.977539062 62 497.125976562 62 c 0
900 325.092773438 m 0
 900 96.375 736.604492188 -60 497.619140625 -60 c 0
 262.064453125 -60 105 89.9345703125 105 314.795898438 c 0
 105 546.490234375 269.092773438 708 504.494140625 708 c 0
 738.020507812 708 900 551.180664062 900 325.092773438 c 0
702 329 m 260
 702 201 627 124 502 124 c 260
 400 124 330 170 313 248 c 261
 466 248 l 261
 469 233 478 227 496 227 c 260
 528 227 549 259 549 307 c 260
 549 312 549 317 549 322 c 261
 531 288 488 266 438 266 c 260
 367 266 315 319 315 391 c 260
 315 473 386 530 489 530 c 260
 620 530 702 452 702 329 c 260
537 396 m 260
 537 415 522 429 500 429 c 260
 481 429 468 417 468 398 c 260
 468 379 481 367 502 367 c 260
 523 367 537 379 537 396 c 260
EndSplineSet
EndChar

StartChar: uni24EA
Encoding: 9450 9450 672
GlifName: uni24E_A_
Width: 885
VWidth: 132
Flags: HW
LayerCount: 2
Fore
SplineSet
497.125976562 62 m 4
 656.611328125 62 765 168.971679688 765 326.372070312 c 4
 765 481.58203125 659.37109375 586 502.360351562 586 c 4
 344.740234375 586 240 480.345703125 240 321.349609375 c 4
 240 164.859375 341.977539062 62 497.125976562 62 c 4
900 325.092773438 m 4
 900 96.375 736.604492188 -60 497.619140625 -60 c 4
 262.064453125 -60 105 89.9345703125 105 314.795898438 c 4
 105 546.490234375 269.092773438 708 504.494140625 708 c 4
 738.020507812 708 900 551.180664062 900 325.092773438 c 4
305 327 m 256
 305 449 384 530 503 530 c 256
 621 530 700 449 700 327 c 256
 700 204 621 122 503 122 c 256
 384 122 305 204 305 327 c 256
557 327 m 256
 557 380 537 410 503 410 c 256
 468 410 448 380 448 327 c 256
 448 273 468 242 503 242 c 256
 537 242 557 273 557 327 c 256
EndSplineSet
EndChar

StartChar: uni24FF
Encoding: 9471 9471 673
GlifName: uni24F_F_
Width: 885
VWidth: 132
Flags: HW
LayerCount: 2
Fore
SplineSet
900 325.092773438 m 0
 900 96.375 736.604492188 -60 497.619140625 -60 c 0
 262.064453125 -60 105 89.9345703125 105 314.795898438 c 0
 105 546.490234375 269.092773438 708 504.494140625 708 c 0
 738.020507812 708 900 551.180664062 900 325.092773438 c 0
305 327 m 256
 305 204 384 122 503 122 c 256
 621 122 700 204 700 327 c 256
 700 449 621 530 503 530 c 256
 384 530 305 449 305 327 c 256
557 327 m 256
 557 273 537 242 503 242 c 256
 468 242 448 273 448 327 c 256
 448 380 468 410 503 410 c 256
 537 410 557 380 557 327 c 256
EndSplineSet
EndChar

StartChar: uni2776
Encoding: 10102 10102 674
GlifName: uni2776
Width: 885
VWidth: 132
Flags: HW
LayerCount: 2
Fore
SplineSet
900 325.092773438 m 0
 900 96.375 736.604492188 -60 497.619140625 -60 c 0
 262.064453125 -60 105 89.9345703125 105 314.795898438 c 0
 105 546.490234375 269.092773438 708 504.494140625 708 c 0
 738.020507812 708 900 551.180664062 900 325.092773438 c 0
450 518 m 257
 450 498 l 258
 450 456 430 444 391 444 c 258
 345 444 l 257
 345 323 l 257
 450 323 l 257
 450 132 l 257
 600 132 l 257
 600 518 l 257
 450 518 l 257
EndSplineSet
EndChar

StartChar: uni2777
Encoding: 10103 10103 675
GlifName: uni2777
Width: 885
VWidth: 132
Flags: HW
LayerCount: 2
Fore
SplineSet
900 325.092773438 m 0
 900 96.375 736.604492188 -60 497.619140625 -60 c 0
 262.064453125 -60 105 89.9345703125 105 314.795898438 c 0
 105 546.490234375 269.092773438 708 504.494140625 708 c 0
 738.020507812 708 900 551.180664062 900 325.092773438 c 0
480 250 m 257
 492 262 480 257 573 286 c 0
 657 311 691 343 691 397 c 256
 691 477 618 530 506 530 c 256
 400 530 322 473 314 390 c 257
 467 390 l 257
 468 410 483 423 506 423 c 256
 526 423 538 414 538 397 c 256
 538 380 542 382 461 359 c 0
 357 330 314 274 314 166 c 258
 314 132 l 257
 687 132 l 257
 687 250 l 257
 480 250 l 257
EndSplineSet
EndChar

StartChar: uni2778
Encoding: 10104 10104 676
GlifName: uni2778
Width: 885
VWidth: 132
Flags: HW
LayerCount: 2
Fore
SplineSet
900 325.092773438 m 0
 900 96.375 736.604492188 -60 497.619140625 -60 c 0
 262.064453125 -60 105 89.9345703125 105 314.795898438 c 0
 105 546.490234375 269.092773438 708 504.494140625 708 c 0
 738.020507812 708 900 551.180664062 900 325.092773438 c 0
628.489257812 326.0234375 m 1
 667.084960938 343.325195312 686 372.5234375 686 414 c 0
 686 481 608 530 501 530 c 0
 393 530 316 473 309 387 c 1
 462 387 l 1
 463 408 476 421 498 421 c 0
 520 421 533 408 533 388 c 0
 533 373 525 364 511 364 c 2
 466 364 l 1
 466 287 l 1
 511 287 l 2
 531 287 543 278 543 262 c 0
 543 245 530 235 508 235 c 0
 482 235 465 249 462 273 c 1
 309 273 l 1
 317 184 401 124 517 124 c 0
 623 124 696 168 696 232 c 0
 696 276.510742188 673.206054688 307.997070312 628.489257812 326.0234375 c 1
EndSplineSet
EndChar

StartChar: uni2779
Encoding: 10105 10105 677
GlifName: uni2779
Width: 885
VWidth: 132
Flags: HW
LayerCount: 2
Fore
SplineSet
900 325.092773438 m 0
 900 96.375 736.604492188 -60 497.619140625 -60 c 0
 262.064453125 -60 105 89.9345703125 105 314.795898438 c 0
 105 546.490234375 269.092773438 708 504.494140625 708 c 0
 738.020507812 708 900 551.180664062 900 325.092773438 c 0
643 204 m 257
 695 204 l 257
 695 311 l 257
 643 311 l 257
 643 518 l 257
 473 518 l 257
 298 321 l 257
 298 204 l 257
 503 204 l 257
 503 132 l 257
 643 132 l 257
 643 204 l 257
503 311 m 257
 440 311 l 257
 503 392 l 257
 503 311 l 257
EndSplineSet
EndChar

StartChar: uni277A
Encoding: 10106 10106 678
GlifName: uni277A_
Width: 885
VWidth: 132
Flags: HW
LayerCount: 2
Fore
SplineSet
900 325.092773438 m 0
 900 96.375 736.604492188 -60 497.619140625 -60 c 0
 262.064453125 -60 105 89.9345703125 105 314.795898438 c 0
 105 546.490234375 269.092773438 708 504.494140625 708 c 0
 738.020507812 708 900 551.180664062 900 325.092773438 c 0
528 256 m 256
 528 233 515 220 493 220 c 256
 472 220 458 231 457 249 c 257
 304 249 l 257
 311 169 390 114 500 114 c 256
 610 114 681 172 681 262 c 256
 681 334 629 383 555 383 c 256
 516 383 483 373 462 354 c 257
 470 405 l 257
 658 405 l 257
 658 518 l 257
 344 518 l 257
 306 273 l 257
 455 273 l 257
 462 287 473 294 488 294 c 256
 513 294 528 280 528 256 c 256
EndSplineSet
EndChar

StartChar: uni277B
Encoding: 10107 10107 679
GlifName: uni277B_
Width: 885
VWidth: 132
Flags: HW
LayerCount: 2
Fore
SplineSet
900 325.092773438 m 0
 900 96.375 736.604492188 -60 497.619140625 -60 c 0
 262.064453125 -60 105 89.9345703125 105 314.795898438 c 0
 105 546.490234375 269.092773438 708 504.494140625 708 c 0
 738.020507812 708 900 551.180664062 900 325.092773438 c 0
299 325 m 256
 299 202 381 124 512 124 c 256
 615 124 686 181 686 263 c 256
 686 335 634 388 563 388 c 256
 513 388 470 366 452 332 c 257
 452 337 452 342 452 347 c 256
 452 395 470 427 496 427 c 256
 511 427 520 421 525 406 c 257
 678 406 l 257
 661 484 593 530 494 530 c 256
 372 530 299 453 299 325 c 256
464 258 m 256
 464 275 478 287 499 287 c 256
 520 287 533 275 533 256 c 256
 533 237 520 225 501 225 c 256
 479 225 464 239 464 258 c 256
EndSplineSet
EndChar

StartChar: uni277C
Encoding: 10108 10108 680
GlifName: uni277C_
Width: 885
VWidth: 132
Flags: HW
LayerCount: 2
Fore
SplineSet
900 325.092773438 m 0
 900 96.375 736.604492188 -60 497.619140625 -60 c 0
 262.064453125 -60 105 89.9345703125 105 314.795898438 c 0
 105 546.490234375 269.092773438 708 504.494140625 708 c 0
 738.020507812 708 900 551.180664062 900 325.092773438 c 0
565 125 m 257
 565 242 603 311 695 363 c 257
 695 511 l 257
 311 511 l 257
 311 373 l 257
 515 373 l 257
 416 304 377 234 377 125 c 257
 565 125 l 257
EndSplineSet
EndChar

StartChar: uni277D
Encoding: 10109 10109 681
GlifName: uni277D_
Width: 885
VWidth: 132
Flags: HW
LayerCount: 2
Fore
SplineSet
900 325.092773438 m 0
 900 96.375 736.604492188 -60 497.619140625 -60 c 0
 262.064453125 -60 105 89.9345703125 105 314.795898438 c 0
 105 546.490234375 269.092773438 708 504.494140625 708 c 0
 738.020507812 708 900 551.180664062 900 325.092773438 c 0
612.872070312 329.81640625 m 1
 657.372070312 346.262695312 681 375.193359375 681 415 c 0
 681 484 609 530 502 530 c 0
 396 530 324 484 324 415 c 0
 324 375.36328125 347.426757812 346.509765625 391.560546875 330.02734375 c 1
 340.801757812 313.803710938 314 283.696289062 314 241 c 0
 314 171 389 124 502 124 c 0
 615 124 691 171 691 241 c 0
 691 283.09375 663.747070312 313.390625 612.872070312 329.81640625 c 1
504 369 m 2
 501 369 l 2
 479 369 467 379 467 397 c 0
 467 415 480 425 502 425 c 0
 525 425 538 415 538 397 c 0
 538 379 525 369 504 369 c 2
504 289 m 2
 526 289 538 278 538 259 c 0
 538 240 525 229 502 229 c 0
 480 229 467 240 467 260 c 0
 467 279 479 289 501 289 c 2
 504 289 l 2
EndSplineSet
EndChar

StartChar: uni277E
Encoding: 10110 10110 682
GlifName: uni277E_
Width: 885
VWidth: 132
Flags: HW
LayerCount: 2
Fore
SplineSet
900 325.092773438 m 0
 900 96.375 736.604492188 -60 497.619140625 -60 c 0
 262.064453125 -60 105 89.9345703125 105 314.795898438 c 0
 105 546.490234375 269.092773438 708 504.494140625 708 c 0
 738.020507812 708 900 551.180664062 900 325.092773438 c 0
702 329 m 256
 702 452 620 530 489 530 c 256
 386 530 315 473 315 391 c 256
 315 319 367 266 438 266 c 256
 488 266 531 288 549 322 c 257
 549 317 549 312 549 307 c 256
 549 259 528 227 496 227 c 256
 478 227 469 233 466 248 c 257
 313 248 l 257
 330 170 400 124 502 124 c 256
 627 124 702 201 702 329 c 256
537 396 m 256
 537 379 523 367 502 367 c 256
 481 367 468 379 468 398 c 256
 468 417 481 429 500 429 c 256
 522 429 537 415 537 396 c 256
EndSplineSet
EndChar

StartChar: filledbox
Encoding: 9632 9632 683
GlifName: filledbox
Width: 885
Flags: HW
LayerCount: 2
Fore
SplineSet
900 -70 m 5
 105 -70 l 5
 105 720 l 5
 900 720 l 5
 900 -70 l 5
EndSplineSet
EndChar

StartChar: H22073
Encoding: 9633 9633 684
GlifName: H_22073
Width: 885
Flags: HW
LayerCount: 2
Fore
SplineSet
750 70 m 5
 750 580 l 1
 255 580 l 1
 255 70 l 5
 750 70 l 5
900 -70 m 5
 105 -70 l 5
 105 720 l 1
 900 720 l 1
 900 -70 l 5
EndSplineSet
EndChar

StartChar: triagup
Encoding: 9650 9650 685
GlifName: triagup
Width: 865
Flags: HW
LayerCount: 2
Fore
SplineSet
880 -60 m 1
 105 -60 l 1
 492.5 710 l 1
 880 -60 l 1
EndSplineSet
EndChar

